<svg width="37" height="39" viewBox="0 0 37 39" fill="none" xmlns="http://www.w3.org/2000/svg">
<path d="M2.25 19.875H33.75" stroke="white" stroke-width="2" stroke-linecap="round" stroke-linejoin="round"/>
<path d="M31.5 28.875V32.25C31.5 32.5484 31.3815 32.8345 31.1705 33.0455C30.9595 33.2565 30.6734 33.375 30.375 33.375H27C26.7016 33.375 26.4155 33.2565 26.2045 33.0455C25.9935 32.8345 25.875 32.5484 25.875 32.25V28.875" stroke="white" stroke-width="2" stroke-linecap="round" stroke-linejoin="round"/>
<path d="M10.125 28.875V32.25C10.125 32.5484 10.0065 32.8345 9.79549 33.0455C9.58452 33.2565 9.29837 33.375 9 33.375H5.625C5.32663 33.375 5.04048 33.2565 4.82951 33.0455C4.61853 32.8345 4.5 32.5484 4.5 32.25V28.875" stroke="white" stroke-width="2" stroke-linecap="round" stroke-linejoin="round"/>
<path d="M9 24.375H11.25" stroke="white" stroke-width="2" stroke-linecap="round" stroke-linejoin="round"/>
<path d="M24.75 24.375H27" stroke="white" stroke-width="2" stroke-linecap="round" stroke-linejoin="round"/>
<path d="M31.5 19.875L27.2969 10.4181C27.2085 10.2192 27.0644 10.0503 26.8819 9.9317C26.6995 9.81311 26.4865 9.75 26.2689 9.75H9.73111C9.51349 9.75 9.30055 9.81311 9.11808 9.9317C8.93561 10.0503 8.79145 10.2192 8.70307 10.4181L4.5 19.875V28.875H31.5V19.875Z" stroke="white" stroke-width="2" stroke-linecap="round" stroke-linejoin="round"/>
<path d="M31.4154 9.5929C31.4154 8.99967 31.5279 8.80113 31.7021 8.37451C31.8999 7.8999 32.2559 7.39233 32.77 6.85181C33.2578 6.31787 33.5676 5.89929 33.6995 5.59607C33.8379 5.29285 33.9071 4.90723 33.9071 4.43921C33.9071 4.01074 33.8082 3.66138 33.6105 3.39111C33.4127 3.12085 33.0996 2.98572 32.6711 2.98572C31.9592 2.98572 31.2111 3.2395 30.4266 3.74707L29.4972 1.76953C30.5321 1.06421 31.6791 0.711548 32.9381 0.711548C34.0258 0.711548 34.8827 1.01477 35.5089 1.62122C36.1417 2.22107 36.4581 3.05823 36.4581 4.13269C36.4581 4.88416 36.3494 5.52356 36.1318 6.0509C35.9143 6.57166 35.4628 7.20117 34.7772 7.93945C34.3356 8.42065 34.0521 8.79309 33.9269 9.05676C33.907 9.09979 33.7489 9.49194 33.7489 9.5929H31.4154ZM30.9507 12.8954C30.9507 12.3746 31.0891 11.9758 31.366 11.699C31.6494 11.4155 32.0581 11.2738 32.592 11.2738C33.1326 11.2738 33.5413 11.4188 33.8181 11.7089C34.095 11.9923 34.2334 12.3878 34.2334 12.8954C34.2334 13.3964 34.0917 13.7919 33.8082 14.0819C33.5248 14.3719 33.1194 14.517 32.592 14.517C32.0647 14.517 31.6593 14.3752 31.3759 14.0918C31.0924 13.8083 30.9507 13.4095 30.9507 12.8954Z" fill="white"/>
</svg>
