<svg width="28" height="24" viewBox="0 0 28 24" fill="none" xmlns="http://www.w3.org/2000/svg">
<path d="M14.7071 22.4853L24.8361 12.3563C27.3249 9.86747 27.6921 5.77302 25.3369 3.15748C24.7469 2.50044 24.0293 1.97048 23.2278 1.59995C22.4262 1.22942 21.5576 1.02609 20.6749 1.00235C19.7922 0.978612 18.9139 1.13497 18.0936 1.46189C17.2733 1.78881 16.5282 2.27943 15.9038 2.90381L14 4.80761L12.3563 3.16387C9.86747 0.675068 5.77302 0.307884 3.15748 2.66313C2.50044 3.25309 1.97048 3.97072 1.59995 4.77225C1.22942 5.57379 1.02609 6.44241 1.00235 7.32512C0.978612 8.20784 1.13497 9.08613 1.46189 9.90642C1.78881 10.7267 2.27943 11.4718 2.90381 12.0962L13.2929 22.4853C13.4804 22.6728 13.7348 22.7782 14 22.7782C14.2652 22.7782 14.5196 22.6728 14.7071 22.4853V22.4853Z" stroke="#D6E152" stroke-width="2" stroke-linecap="round" stroke-linejoin="round"/>
</svg>
