<svg width="33" height="32" viewBox="0 0 33 32" fill="none" xmlns="http://www.w3.org/2000/svg">
<path d="M5.3335 22V9C5.3335 8.46957 5.54421 7.96086 5.91928 7.58579C6.29436 7.21071 6.80306 7 7.3335 7H25.3335C25.8639 7 26.3726 7.21071 26.7477 7.58579C27.1228 7.96086 27.3335 8.46957 27.3335 9V22" stroke="#0E8ECF" stroke-width="2" stroke-linecap="round" stroke-linejoin="round"/>
<path d="M3.3335 22H29.3335V24C29.3335 24.5304 29.1228 25.0391 28.7477 25.4142C28.3726 25.7893 27.8639 26 27.3335 26H5.3335C4.80306 26 4.29436 25.7893 3.91928 25.4142C3.54421 25.0391 3.3335 24.5304 3.3335 24V22Z" stroke="#0E8ECF" stroke-width="2" stroke-linecap="round" stroke-linejoin="round"/>
<path d="M18.3335 11H14.3335" stroke="#0E8ECF" stroke-width="2" stroke-linecap="round" stroke-linejoin="round"/>
</svg>
