<svg width="32" height="32" viewBox="0 0 32 32" fill="none" xmlns="http://www.w3.org/2000/svg">
<path d="M15.9993 22C21.5221 22 25.9993 17.5228 25.9993 12C25.9993 6.47715 21.5221 2 15.9993 2C10.4764 2 5.99927 6.47715 5.99927 12C5.99927 17.5228 10.4764 22 15.9993 22Z" stroke="#0E8ECF" stroke-width="2" stroke-linecap="round" stroke-linejoin="round"/>
<path d="M15.9993 18C19.313 18 21.9993 15.3137 21.9993 12C21.9993 8.68629 19.313 6 15.9993 6C12.6856 6 9.99927 8.68629 9.99927 12C9.99927 15.3137 12.6856 18 15.9993 18Z" stroke="#0E8ECF" stroke-width="2" stroke-linecap="round" stroke-linejoin="round"/>
<path d="M22 19.9994V30L15.9991 27L10 30V20.0003" stroke="#0E8ECF" stroke-width="2" stroke-linecap="round" stroke-linejoin="round"/>
</svg>
