<svg width="49" height="48" viewBox="0 0 49 48" fill="none" xmlns="http://www.w3.org/2000/svg">
<path d="M0.333252 24C0.333252 10.7452 11.0784 0 24.3333 0C37.5881 0 48.3333 10.7452 48.3333 24C48.3333 37.2548 37.5881 48 24.3333 48C11.0784 48 0.333252 37.2548 0.333252 24Z" fill="#F68634"/>
<path d="M26.9293 29.4403L30.5159 32.9028C31.2507 33.6106 31.2507 34.7601 30.5159 35.4686C29.7819 36.1771 28.5923 36.1771 27.859 35.4686L24.3326 32.0661L20.8093 35.4686C20.4419 35.8225 19.9605 35.9996 19.4791 35.9996C18.9985 35.9996 18.5179 35.8225 18.1505 35.4686C17.4165 34.7601 17.4165 33.6113 18.1497 32.9028L21.7368 29.4403C20.4308 29.1531 19.1713 28.6536 18.0112 27.951C17.1332 27.4167 16.8695 26.2972 17.4227 25.449C17.9743 24.5996 19.1344 24.3439 20.0139 24.8783C22.6405 26.4732 26.0241 26.4736 28.6522 24.8783C29.5316 24.3439 30.6914 24.5996 31.2442 25.449C31.7973 26.2964 31.5329 27.4167 30.6549 27.951C29.4948 28.6543 28.2353 29.1531 26.9293 29.4403Z" fill="white"/>
<path fill-rule="evenodd" clip-rule="evenodd" d="M17.9011 18.1936C17.9011 21.6079 20.7787 24.3853 24.317 24.3853C27.8561 24.3853 30.733 21.6079 30.733 18.1936C30.733 14.7781 27.8561 12 24.317 12C20.7787 12 17.9011 14.7781 17.9011 18.1936ZM26.9736 18.1936C26.9736 16.7795 25.782 15.6297 24.317 15.6297C22.8533 15.6297 21.6605 16.7795 21.6605 18.1936C21.6605 19.6065 22.8533 20.7571 24.317 20.7571C25.782 20.7571 26.9736 19.6065 26.9736 18.1936Z" fill="white"/>
</svg>
