<svg width="40" height="40" viewBox="0 0 40 40" fill="none" xmlns="http://www.w3.org/2000/svg">
<g clip-path="url(#clip0)">
<path d="M0 4C0 1.79086 1.79086 0 4 0H36C38.2091 0 40 1.79086 40 4V36C40 38.2091 38.2091 40 36 40H4C1.79086 40 0 38.2091 0 36V4Z" fill="#E0EB65"/>
<g clip-path="url(#clip1)">
<g clip-path="url(#clip2)">
<path fill-rule="evenodd" clip-rule="evenodd" d="M-3.64868 21.9726C-3.64868 21.9726 -2.37791 20.4311 0.123136 19.9801C0.123136 19.9801 -0.958035 19.1256 -1.12985 17.8415C-1.27239 16.7762 -0.293811 15.2742 -0.293811 15.2742C-0.293811 15.2742 -1.07878 11.5531 1.92602 9.46135C1.92602 9.46135 2.26341 8.1727 4.23306 7.87718C6.20195 7.58175 6.95249 8.66087 6.95249 8.66087C6.95249 8.66087 9.92009 9.15665 10.5916 12.5106C10.5916 12.5106 13.4752 14.5159 12.071 18.0836C12.071 18.0836 13.249 17.8304 14.3177 18.1976C14.3177 18.1976 15.5963 17.2613 18.33 17.9159C18.33 17.9159 19.9892 16.2592 22.6333 16.9578C22.6333 16.9578 23.3197 15.6541 25.076 15.1956C25.076 15.1956 26.0215 13.9215 27.5256 14.1985C27.5256 14.1985 27.5583 13.4928 28.285 12.7258C29.0109 11.9593 29.5167 11.4451 29.5124 10.9354C29.5082 10.4258 29.3835 9.26295 31.1381 9.02817C32.6422 8.82693 33.12 9.783 33.12 9.783C33.12 9.783 34.0201 9.12038 35.0229 8.9862C36.0246 8.85218 36.4247 9.21289 36.4247 9.21289C36.4247 9.21289 37.2136 8.9166 38.1727 9.64835C39.1316 10.3809 38.7453 11.0707 38.7453 11.0707C38.7453 11.0707 39.0379 11.3507 39.0295 11.766C39.0219 12.1817 38.9608 12.4453 38.6908 12.8001C38.4185 13.1556 37.8702 13.5793 37.8702 13.5793C37.8702 13.5793 37.5467 14.7385 37.0413 15.7306C36.5367 16.7229 36.0251 17.9077 33.1631 18.6729C33.1631 18.6729 33.0424 21.1121 31.6674 22.0298C31.6674 22.0298 31.5811 25.1977 27.8303 25.7635C27.8303 25.7635 27.0671 29.1176 23.2765 29.6248C23.2765 29.6248 22.9563 30.5605 22.3063 31.1892C22.3063 31.1892 22.821 33.1295 21.7088 34.5855C21.7088 34.5855 22.3968 36.1512 21.2728 38.9477C21.2728 38.9477 22.7476 39.9619 22.9242 43.191C22.9242 43.191 26.3938 44.576 27.2182 48.834C27.2182 48.834 27.9474 49.7568 28.1367 50.6875C28.1367 50.6875 31.689 51.7432 30.7575 56.9374C30.7575 56.9374 31.6921 58.9168 30.4734 61.2482C30.4734 61.2482 30.6183 61.611 30.62 61.8659C30.62 61.8659 32.4678 60.6622 34.3289 60.5088C36.1901 60.3561 36.7223 60.7627 37.0819 61.0653C37.4407 61.3679 37.951 61.8414 38.0761 62.3037C38.0761 62.3037 38.2512 62.1839 38.4792 62.696C38.7072 63.2073 38.9143 64.0408 38.5681 64.7885C38.2219 65.5361 37.6159 65.7767 36.7706 66.368C35.925 66.9598 33.6343 68.6693 31.7332 70.4219C31.7332 70.4219 30.5427 71.5376 30.2778 71.701C30.0129 71.8636 29.0167 72.2836 28.4527 72.3591C27.8893 72.4344 26.6568 72.2803 26.1783 71.8025C25.6997 71.3248 25.2923 70.9007 25.2688 70.011C25.2461 69.1215 25.128 67.2881 25.1129 66.9394C25.0979 66.5908 24.7743 65.359 23.9428 64.3859C23.9428 64.3859 21.0439 64.168 20.1382 61.4507C20.1382 61.4507 17.1765 60.2852 17.5176 56.6362L17.3242 56.1526C17.3242 56.1526 14.4407 55.3265 13.6729 53.1654C13.6729 53.1654 12.0331 52.5879 10.94 50.8525C10.94 50.8525 9.87554 52.4296 8.57054 52.9232C8.57054 52.9232 7.88533 56.1397 4.28299 57.1007C4.28299 57.1007 2.7739 59.407 0.111437 59.7632C-1.92488 60.0357 -3.44125 59.1858 -3.44125 59.1858C-3.44125 59.1858 -5.02995 59.9409 -6.46531 59.4632C-6.46531 59.4632 -6.37938 59.8664 -6.29986 60.4607C-6.22013 61.0566 -5.64562 64.8694 -9.40442 65.3723C-11.4722 65.649 -13.3463 64.7518 -13.803 61.3383C-14.2599 57.9236 -13.9738 56.9605 -14.1247 55.8323C-14.2755 54.7053 -14.4453 54.6317 -14.5836 53.5982C-14.7218 52.5647 -14.729 50.3658 -12.3482 50.0472C-10.782 49.8377 -10.7732 50.379 -10.3662 50.3246C-9.95926 50.2701 -9.95971 49.7916 -9.36041 49.2652C-8.76084 48.738 -8.16985 48.1495 -6.3849 47.9106C-5.63269 47.81 -5.36574 47.9014 -5.36574 47.9014C-5.36574 47.9014 -4.41605 46.6588 -2.44053 46.171C-2.44053 46.171 -2.61024 45.1417 -1.24317 42.7272C-1.24317 42.7272 -1.40451 41.7604 -1.11083 40.3813C-1.11083 40.3813 -1.92627 38.6731 -1.78724 36.9963C-1.78724 36.9963 -2.4913 36.2617 -2.70675 35.3657C-2.70675 35.3657 -3.06753 36.7214 -3.39282 37.1472C-3.39282 37.1472 -2.85338 38.7971 -1.59702 40.3188C-1.59702 40.3188 -2.16028 41.8288 -3.28765 41.9796C-4.4154 42.1305 -4.89811 41.6217 -4.89811 41.6217C-4.89811 41.6217 -4.88135 41.747 -4.76864 42.1142C-4.65555 42.4813 -4.48437 42.8102 -4.41741 43.3107C-4.35035 43.8119 -4.50547 46.2237 -6.50403 45.8222C-6.50403 45.8222 -7.38248 47.1193 -8.703 46.3075C-8.703 46.3075 -9.79517 46.4853 -10.4053 45.7384C-10.4053 45.7384 -12.0138 45.8558 -12.7396 42.3522C-13.1901 40.1806 -11.531 38.0453 -11.531 38.0453L-11.8089 37.1577C-11.8089 37.1577 -13.3637 36.0267 -13.7116 33.4263C-14.0594 30.8266 -12.2658 29.2156 -12.2658 29.2156C-12.2658 29.2156 -11.793 27.2711 -10.0036 26.1068C-10.004 26.1069 -8.75151 21.8049 -3.64868 21.9726Z" fill="#0651A7"/>
<path fill-rule="evenodd" clip-rule="evenodd" d="M0.940495 14.4702C0.940495 14.4702 0.425786 12.7113 1.60501 11.1941C2.71161 9.77051 3.81758 9.83987 3.9532 9.78781C4.08914 9.73532 4.06953 9.58882 3.83374 9.5776C3.59838 9.5667 3.38143 9.53214 3.36745 9.42766C3.35347 9.32318 3.76275 8.88577 4.51421 8.78522C5.26567 8.68467 5.71242 8.8642 5.74139 9.08074C5.77036 9.29728 5.63973 9.25118 5.63 9.33687C5.62005 9.42375 5.71245 9.47497 5.84011 9.47869C5.96868 9.48345 6.93336 9.54513 7.58258 9.94765C8.23137 10.3498 9.24664 11.1065 9.41709 12.3803C9.45341 12.6518 9.50776 12.7297 9.43951 12.7812C9.37159 12.8323 9.18382 12.8574 9.37873 13.044C9.57364 13.2307 9.79418 13.2863 10.0539 13.4851C10.3144 13.6841 11.1589 14.2728 11.3902 15.6873C11.6214 17.1014 11.1785 18.235 10.5524 18.4834C10.5524 18.4834 10.652 18.5918 10.7868 18.8073C10.9225 19.0234 11.0182 19.2661 10.9488 19.3813C10.8791 19.497 10.7533 19.6622 10.6543 19.7178C10.5554 19.7735 10.3965 19.8587 10.4104 19.9628C10.4244 20.0673 10.8597 19.9882 11.1032 19.743C11.3474 19.4976 11.4304 19.1674 11.4304 19.1674C11.4304 19.1674 11.6369 19.1186 11.8896 19.106C12.143 19.0932 13.9869 18.8889 15.5751 19.8032C17.1643 20.7169 18.2701 21.6745 18.3986 22.6353C18.4406 22.9487 18.6122 23.1169 18.0366 23.1091C17.4621 23.1009 15.2707 23.2453 13.0985 23.536C10.9274 23.8265 6.35505 24.6082 1.2493 25.8443C1.2493 25.8443 0.0858619 23.4274 -2.60183 22.6823C-2.60183 22.6823 -1.44309 21.2941 0.374041 21.051C1.18872 20.942 1.33358 21.0713 1.63981 21.1367C1.94567 21.2021 2.21343 21.2939 2.27475 21.1157C2.3357 20.9376 2.05029 20.8695 1.98509 20.8574C1.91941 20.8446 1.68291 20.6639 1.96802 20.413C2.25352 20.1621 2.40527 20.1846 2.04587 20.0416C1.68675 19.8977 0.305475 19.424 0.0735359 17.6905C-0.116463 16.2705 0.548431 15.523 0.784304 15.2151C1.01937 14.907 1.52838 14.5842 1.79697 14.5267C2.066 14.4695 2.14658 14.1184 1.67463 14.2459C1.20178 14.3724 1.08596 14.4284 0.940495 14.4702Z" fill="white"/>
<path fill-rule="evenodd" clip-rule="evenodd" d="M-8.52254 25.8979C-8.52254 25.8979 -7.67456 23.6588 -4.87581 23.2844C-2.07781 22.91 0.379061 24.7496 0.786968 27.7982C1.25085 31.2651 -1.63578 32.8837 -1.63578 32.8837C-1.63578 32.8837 -1.088 31.5777 -1.2668 30.2413C-1.5965 27.7772 -3.99221 25.1218 -7.33346 25.5688C-7.95999 25.6527 -8.52254 25.8979 -8.52254 25.8979Z" fill="white"/>
<path fill-rule="evenodd" clip-rule="evenodd" d="M-8.03006 31.8056C-5.39902 31.4536 -4.21979 34.0692 -4.10658 34.9152C-3.99342 35.761 -4.37557 36.4818 -4.64677 36.3586C-4.91831 36.2358 -5.37556 35.9143 -5.77532 35.5532C-6.17427 35.1923 -6.71081 34.7535 -6.81547 34.9274C-6.91986 35.1005 -6.76938 35.2719 -6.57879 35.5011C-6.38886 35.7312 -5.75567 36.4114 -5.36508 36.7098C-4.97449 37.0082 -4.72974 37.167 -4.65472 37.2525C-4.57964 37.3384 -4.40791 37.6657 -4.30351 37.9708C-4.19916 38.2755 -4.01056 38.7289 -3.76834 39.1107C-3.52564 39.4933 -2.93006 40.3704 -2.93006 40.3704C-2.93006 40.3704 -3.10737 40.7128 -3.57717 40.7756C-4.04697 40.8385 -4.84114 40.1475 -5.1777 39.2997C-5.1777 39.2997 -5.70233 38.9556 -5.84363 39.3252C-5.98568 39.6949 -5.9576 41.0941 -5.95172 41.3801C-5.94545 41.6659 -6.00996 41.898 -5.90943 42.1713C-5.80918 42.4453 -5.52049 43.1716 -5.518 43.4264C-5.51551 43.6812 -5.52 44.6066 -5.98943 44.6694C-6.45961 44.7323 -6.6625 43.9302 -6.72292 43.7148C-6.78362 43.5002 -7.28781 41.8775 -7.28781 41.8775L-7.4303 40.8126C-7.46798 40.5309 -7.64985 39.8859 -7.69766 39.7648C-7.7459 39.6433 -7.75218 40.3135 -7.78315 40.7962C-7.81418 41.2786 -7.84974 41.73 -7.79528 42.1369C-7.74083 42.5439 -7.58532 43.2252 -7.43316 43.651C-7.28072 44.0761 -7.09424 44.2746 -7.19684 44.703C-7.29869 45.1313 -7.43029 45.34 -7.68128 45.3736C-7.93151 45.4071 -8.27636 44.9754 -8.50653 43.7303C-8.73741 42.4857 -8.92769 41.7779 -8.86109 41.3223C-8.79406 40.8671 -8.82552 39.9149 -8.95082 39.9317C-9.07651 39.9485 -9.18468 41.0466 -9.23414 41.6273C-9.28397 42.2082 -9.33214 42.5653 -9.24169 42.9994C-9.15151 43.4343 -8.70233 45.1268 -8.79621 45.1393C-8.8901 45.1519 -9.28487 45.3003 -9.4751 44.5928C-9.66533 43.8854 -9.8305 42.8871 -9.93523 42.5824C-10.0403 42.2778 -10.1447 41.9727 -10.1326 41.5884C-10.1197 41.204 -10.1263 40.9182 -9.92815 40.2536C-9.92815 40.2536 -9.94531 39.6501 -10.0354 39.6938C-10.1251 39.7381 -10.25 40.2331 -10.3707 40.7594C-10.4918 41.2854 -10.6226 41.9726 -10.5722 42.3489C-10.5219 42.7249 -10.2923 43.4906 -10.2588 43.7413L-10.1498 44.5559C-10.1498 44.5559 -10.3693 44.5853 -10.5152 44.4453C-10.6619 44.3054 -11.3426 43.5036 -11.527 42.1253C-11.7114 40.7473 -11.2755 39.9556 -10.9394 39.3685C-10.6037 38.7814 -10.2865 38.2927 -10.0988 37.789C-9.91106 37.2853 -9.81327 36.8268 -9.61726 36.3851C-9.4211 35.9446 -9.39388 35.909 -9.20402 35.6605C-9.01411 35.4123 -8.82845 35.1324 -8.92233 35.145C-9.01697 35.1576 -9.45039 35.2476 -9.69054 35.5984C-9.93068 35.9492 -10.3188 36.3838 -10.3875 36.5845C-10.457 36.7849 -10.5752 37.0878 -10.711 36.7873C-10.8475 36.4869 -10.8748 36.0443 -10.9251 35.6684C-10.9754 35.2921 -10.7554 32.1703 -8.03006 31.8056ZM1.25696 26.5454C1.25696 26.5454 5.80907 25.2986 13.034 24.3319C17.1688 23.7787 20.36 22.8411 20.8629 26.5999C21.0082 27.686 20.5763 28.5939 20.2824 28.9311C19.9871 29.2677 19.6969 29.6471 17.9601 30.0067C16.223 30.3671 12.8037 30.867 10.6318 31.1575C8.45997 31.4481 0.0785272 32.3569 0.0785272 32.3569C0.0785272 32.3569 2.24701 30.4514 1.25696 26.5454ZM-0.828517 33.2011C-0.828517 33.2011 9.81882 32.074 11.7404 31.8169C13.6617 31.5598 19.4421 30.9139 20.477 29.7551C20.477 29.7551 20.9732 30.2841 21.1352 31.4951C21.3476 33.0824 20.7931 33.782 20.4736 34.1766C19.8176 34.9873 18.0611 36.7953 12.1725 37.5832C6.28347 38.3711 1.98672 37.7133 1.05928 37.4548C0.131887 37.1966 -1.24473 36.7404 -1.84446 33.845L-0.828517 33.2011Z" fill="white"/>
<path fill-rule="evenodd" clip-rule="evenodd" d="M-0.592366 37.5058C-0.592366 37.5058 0.474278 38.1711 2.16437 38.4128C3.85474 38.6536 7.17132 38.9756 12.3501 38.2826C18.0298 37.5227 20.6183 35.2631 20.6183 35.2631C20.6183 35.2631 20.9647 37.8521 19.4656 39.6685C17.7952 41.6908 13.0042 42.5314 11.5842 42.7214C7.03112 43.3306 2.33082 42.5137 1.30802 41.5454C0.285988 40.577 -0.382678 40.0291 -0.592366 37.5058ZM15.3876 19.0425C15.3876 19.0425 15.9088 18.8028 16.2844 18.7525C16.6607 18.7022 18.3812 18.8546 19.5874 19.9263C20.7943 20.9976 22.2701 22.5006 22.6893 25.6333C23.1084 28.7659 21.4801 30.2589 21.4801 30.2589L20.9893 29.1339C20.9893 29.1339 21.8436 28.2123 21.6033 26.4163C21.2736 23.9522 19.1182 23.0923 19.1182 23.0923C19.1182 23.0923 19.1948 20.4887 15.3876 19.0425Z" fill="white"/>
<path fill-rule="evenodd" clip-rule="evenodd" d="M19.1855 18.8318C19.1855 18.8318 20.2852 17.4948 22.6774 18.2375C22.6774 18.2375 22.4603 18.5212 22.5832 19.44C22.7061 20.3588 23.3583 22.69 25.1334 24.2004C25.997 24.9353 26.6627 25.1437 26.6627 25.1437C26.6627 25.1437 26.4662 27.8054 23.1889 28.4138C23.1889 28.4138 23.6286 27.2502 23.3659 25.287C23.1029 23.3241 21.6843 20.0281 19.1855 18.8318Z" fill="white"/>
<path fill-rule="evenodd" clip-rule="evenodd" d="M24.9938 16.4813C24.9938 16.4813 24.7045 17.4984 24.8386 18.5008C24.9727 19.5029 25.536 20.5331 26.4345 21.2206C27.3341 21.9079 28.3067 22.501 30.3781 22.0963C30.3781 22.0963 30.3601 24.1819 27.9376 24.506C25.5152 24.8302 24.1013 21.5755 24.1013 21.5755C24.1013 21.5755 23.7564 20.8987 23.5637 20.4147C23.3717 19.9302 23.1483 18.8969 23.44 18.2202C23.7329 17.5432 23.88 17.0557 24.9938 16.4813Z" fill="white"/>
<path fill-rule="evenodd" clip-rule="evenodd" d="M27.7102 15.183C27.7102 15.183 27.2342 15.1188 26.9836 15.1523C26.733 15.1859 26.3994 15.2305 26.0289 15.9606C25.6584 16.6903 25.4588 17.0996 25.6153 18.2694C25.8668 20.149 27.2292 21.7516 29.8182 21.4052C31.8648 21.1314 32.1117 19.4834 31.8805 18.7062C31.8805 18.7062 31.318 18.9514 31.0262 19.1496C30.7338 19.3487 30.4329 19.4845 30.08 19.4677C29.7271 19.4514 29.0506 19.1589 28.9811 18.8815C28.9124 18.6036 29.2418 18.6871 29.3448 18.7369C29.4472 18.7875 29.8394 18.8618 30.0271 18.8367C30.2149 18.8116 30.5979 18.5692 30.7681 18.4189C30.9398 18.268 31.017 18.1305 32.1239 17.8232C33.2306 17.5152 35.0207 16.8657 35.6232 15.856C36.3256 14.6777 36.4995 13.8259 36.6998 13.4165C36.9001 13.007 36.9504 12.4269 36.4114 12.6894C35.8733 12.9533 35.8667 13.1457 35.6118 13.6256C35.3578 14.1058 34.6207 15.0337 34.4413 15.1217C34.2619 15.2093 34.1438 14.8108 34.2259 14.7043C34.3072 14.5975 34.8847 13.914 35.044 13.6704C35.2024 13.4257 35.4606 12.9769 35.5661 12.8029C35.6597 12.6494 35.789 12.5209 35.943 12.4282C36.097 12.3355 36.2711 12.2813 36.4505 12.2703C36.9559 12.2346 37.0582 12.2849 37.3021 12.4434C37.3021 12.4434 37.9391 11.7204 38.24 11.5846C38.24 11.5846 37.9641 10.9514 37.2996 11.2318C36.6365 11.5125 36.4061 11.7024 35.9691 12.016C35.5332 12.3294 35.0114 12.7179 34.7583 12.9749C34.506 13.2318 34.2806 13.4538 34.1012 13.5414C33.9217 13.629 33.5253 13.5229 33.6058 13.4162C33.6878 13.3093 36.65 10.4263 37.6457 10.4842C37.6457 10.4842 37.5116 9.95995 36.7456 10.1904C35.9802 10.4203 34.5851 11.4359 33.1112 12.8126C33.1112 12.8126 32.6082 12.6245 33.324 12.0189C34.0391 11.413 35.409 10.2093 35.9169 9.94983C35.9169 9.94983 35.5179 9.58897 34.0559 10.5823C32.887 11.376 32.8224 11.6078 32.8224 11.6078C32.8224 11.6078 32.2794 12.7968 31.8787 13.1371C31.8787 13.1371 31.95 13.6697 31.8585 13.9367C31.7664 14.2041 31.638 14.6675 31.638 14.6675C31.638 14.6675 31.3079 14.5845 31.2987 14.0436C31.2904 13.5033 31.2568 13.2523 30.9726 13.0352C30.9726 13.0352 32.1499 11.8261 31.9948 10.6665C31.8397 9.50734 30.8967 10.0805 30.8967 10.0805C30.8967 10.0805 30.9705 11.3461 30.2337 12.2732C29.4969 13.2007 29.1835 13.2426 28.9057 13.7904C28.6282 14.3373 28.4974 14.5463 28.5561 14.9847C28.6148 15.4238 28.686 15.9557 28.5813 16.1293C28.4773 16.3027 28.2435 16.4615 28.1789 16.6929C28.1144 16.925 28.0533 17.1883 28.1052 17.3405C28.158 17.493 27.9727 17.7729 27.9727 17.7729C27.9727 17.7729 27.3123 17.6062 27.3835 17.1824C27.4539 16.7583 27.5227 16.558 27.6962 16.1841C27.8685 15.81 27.8679 15.2467 27.7102 15.183ZM0.0169471 41.1864C0.0169471 41.1864 0.639738 42.0279 1.62793 42.5015C2.61612 42.975 5.36117 44.4254 13.1043 43.1982C13.1043 43.1982 12.8956 48.0723 8.00862 48.7261C4.81388 49.1536 0.55429 47.109 -0.0240646 42.7865C-0.150214 41.8465 0.0169471 41.1864 0.0169471 41.1864ZM14.2857 42.9762C14.2857 42.9762 19.3289 41.8228 20.2052 39.7923C20.2052 39.7923 21.665 40.9368 21.6395 43.3637C21.6395 43.3637 20.8858 43.2087 19.6013 43.3805C18.3168 43.5524 15.5773 44.5247 14.507 46.2945C13.4363 48.0643 13.0276 48.8203 13.3771 51.1962C13.3771 51.1962 12.197 50.7167 11.5553 49.4951C11.5553 49.4951 11.9769 48.8329 12.0327 48.0605C12.0327 48.0605 14.0602 46.7689 14.2857 42.9762Z" fill="white"/>
<path fill-rule="evenodd" clip-rule="evenodd" d="M3.95804 17.3411C3.95804 17.3411 3.98887 17.2518 4.08305 17.0053C4.17799 16.7587 4.19064 16.6603 4.33209 16.6259C4.4743 16.5915 4.51506 16.6427 4.57408 16.8937C4.57408 16.8937 4.93096 16.8279 5.13436 16.7583C5.33771 16.6883 6.24941 16.354 6.85753 16.2938C7.46608 16.2339 7.74025 16.2181 7.892 16.2405C8.04408 16.2626 8.1514 16.2698 8.22306 16.1747C8.29558 16.0802 8.41253 16.001 8.53373 16.1119C8.65461 16.2233 8.80616 16.5726 8.72782 16.6956C8.64996 16.8193 8.35462 16.5185 8.01063 16.9688C7.66731 17.4182 7.34287 18.0146 6.84165 18.0816C6.17385 18.171 5.64568 17.5615 5.28656 17.4177C4.92721 17.275 4.48381 17.2414 4.3738 17.3236C4.2646 17.406 4.24803 17.599 4.08108 17.6213C3.91343 17.6442 3.89109 17.4772 3.95804 17.3411Z" fill="#0651A7"/>
<path fill-rule="evenodd" clip-rule="evenodd" d="M5.49529 17.0714C5.49529 17.0714 6.14069 16.8148 6.87132 16.717C7.60196 16.6192 7.836 16.6635 7.836 16.6635C7.836 16.6635 7.74483 16.7281 7.58176 16.9406C7.41917 17.1539 7.14355 17.637 6.76801 17.6872C6.51702 17.7208 6.14445 17.4736 5.95752 17.3495C5.77065 17.2257 5.56608 17.062 5.49529 17.0714Z" fill="white"/>
<path fill-rule="evenodd" clip-rule="evenodd" d="M5.2639 13.5738L5.27431 13.6603L5.28198 13.7463L5.28711 13.8308L5.28794 13.9147L5.28818 13.9971L5.28438 14.0782L5.27848 14.1579L5.26991 14.235L5.25891 14.3112L5.24567 14.3851L5.23028 14.4573L5.21265 14.5271L5.19277 14.5945L5.17177 14.6593L5.14701 14.722L5.12228 14.7819L5.09487 14.8391L5.0662 14.8927L5.03647 14.9441L5.00423 14.9912L4.97164 15.0356L4.93703 15.0764L4.9024 15.1142L4.86682 15.1479L4.83014 15.179L4.79247 15.2056L4.75525 15.2299L4.71634 15.2501L4.67741 15.2672L4.63877 15.2809L4.59816 15.2913L4.55592 15.2981L4.60956 15.699L4.68259 15.6862L4.75401 15.667L4.82515 15.6428L4.89218 15.6138L4.9565 15.579L5.01917 15.5406L5.07839 15.4964L5.13531 15.4495L5.18925 15.3976L5.24051 15.343L5.28894 15.2845L5.33465 15.2228L5.3772 15.1578L5.41798 15.0911L5.45512 15.0202L5.49012 14.9477L5.52282 14.8724L5.55139 14.795L5.57846 14.7151L5.60247 14.6325L5.62358 14.5484L5.64174 14.4623L5.6577 14.3743L5.67043 14.2851L5.68011 14.1932L5.68703 14.101L5.691 14.0068L5.6925 13.9114L5.68925 13.8151L5.68433 13.7179L5.67657 13.6195L5.66481 13.5201L5.2639 13.5738ZM4.12749 12.0962L4.17005 12.0917L4.21197 12.0911L4.25283 12.0941L4.29491 12.1004L4.33777 12.1097L4.38005 12.1233L4.4234 12.1391L4.46697 12.1595L4.51014 12.1826L4.55349 12.2099L4.59767 12.2406L4.64075 12.2745L4.68423 12.3115L4.72642 12.3533L4.76816 12.3974L4.80965 12.4454L4.84928 12.4967L4.88963 12.5507L4.92694 12.6077L4.96384 12.6675L4.99921 12.7302L5.03303 12.7958L5.06522 12.8636L5.09587 12.9342L5.1244 13.0063L5.15106 13.0818L5.17603 13.159L5.19747 13.2386L5.21873 13.3197L5.23604 13.403L5.25117 13.4872L5.2639 13.5738L5.66481 13.5201L5.65002 13.4212L5.63171 13.3246L5.61084 13.2291L5.58866 13.1354L5.56214 13.0437L5.53355 12.9539L5.50262 12.8667L5.46919 12.781L5.43341 12.698L5.39481 12.6168L5.35477 12.5393L5.31223 12.4633L5.2674 12.3903L5.22022 12.3199L5.17231 12.2527L5.12092 12.1883L5.06814 12.128L5.01372 12.0697L4.95678 12.0157L4.89868 11.9645L4.83833 11.9167L4.77617 11.8726L4.7124 11.8338L4.64671 11.7978L4.57951 11.7679L4.51072 11.7405L4.44019 11.7203L4.36893 11.7032L4.29664 11.6929L4.22165 11.6883L4.14775 11.6889L4.07385 11.6953L4.12749 12.0962Z" fill="#0651A7"/>
<path fill-rule="evenodd" clip-rule="evenodd" d="M3.42034 13.8204L3.41025 13.7335L3.40269 13.6482L3.39751 13.5634L3.39631 13.4795L3.39644 13.397L3.40024 13.316L3.40576 13.2363L3.41433 13.1592L3.42532 13.083L3.43809 13.0084L3.45358 12.937L3.47197 12.8671L3.49137 12.799L3.51274 12.7341L3.53722 12.6722L3.56196 12.6123L3.58936 12.5551L3.61804 12.5015L3.64777 12.4501L3.68001 12.4031L3.71227 12.359L3.74683 12.3178L3.78184 12.28L3.81693 12.2456L3.85334 12.2153L3.89139 12.1887L3.9286 12.1644L3.96751 12.1442L4.00645 12.127L4.04508 12.1134L4.08569 12.1029L4.12756 12.0962L4.07392 11.6953L4.00131 11.7084L3.92984 11.7273L3.85908 11.7514L3.7913 11.7805L3.72741 11.8156L3.66469 11.8537L3.60552 11.8982L3.54903 11.9454L3.49499 11.9966L3.44368 12.0509L3.39568 12.1097L3.34964 12.1717L3.30704 12.2364L3.26631 12.3035L3.22874 12.374L3.19407 12.4461L3.16142 12.5218L3.13296 12.5999L3.10594 12.6802L3.08177 12.7617L3.06109 12.8462L3.04255 12.9323L3.02692 13.0199L3.01424 13.1095L3.00452 13.2009L2.99721 13.2932L2.99362 13.3874L2.99212 13.4827L2.99462 13.5791L2.99996 13.6767L3.00768 13.7747L3.01944 13.8741L3.42034 13.8204Z" fill="#0651A7"/>
<path fill-rule="evenodd" clip-rule="evenodd" d="M4.55595 15.2981L4.51378 15.3026L4.47185 15.3032L4.43099 15.3002L4.38891 15.2939L4.34605 15.2846L4.30377 15.271L4.26005 15.2552L4.21696 15.2356L4.17407 15.2116L4.13034 15.1844L4.08621 15.154L4.04346 15.1197L3.99998 15.0827L3.95779 15.041L3.91605 14.9969L3.87456 14.9488L3.83493 14.8975L3.7951 14.8446L3.75737 14.7873L3.72075 14.7267L3.68462 14.6641L3.6509 14.5992L3.61899 14.5306L3.58834 14.46L3.55982 14.3879L3.53353 14.3124L3.50856 14.2352L3.48674 14.1557L3.46586 14.0745L3.44861 13.9916L3.43337 13.9066L3.42031 13.8204L3.01941 13.8741L3.03419 13.9731L3.05256 14.07L3.073 14.1652L3.09593 14.2588L3.12245 14.3505L3.15066 14.4403L3.18197 14.5275L3.21545 14.6135L3.25118 14.6962L3.28931 14.7767L3.32987 14.8553L3.37198 14.9309L3.41672 15.0032L3.4639 15.0735L3.51191 15.1415L3.56325 15.2055L3.6157 15.2663L3.67054 15.3249L3.72743 15.3785L3.78558 15.4301L3.84625 15.4775L3.90799 15.5212L3.97181 15.5605L4.0374 15.5956L4.10437 15.6267L4.17311 15.6538L4.24369 15.6744L4.31452 15.6911L4.38756 15.7014L4.46217 15.706L4.53612 15.7058L4.60959 15.699L4.55595 15.2981Z" fill="#0651A7"/>
<path fill-rule="evenodd" clip-rule="evenodd" d="M4.59803 15.3449C5.0196 15.2758 5.27746 14.706 5.17338 14.0722C5.06941 13.4391 4.6422 12.9822 4.21992 13.0518C3.79764 13.1214 3.54054 13.6911 3.64456 14.3246C3.74859 14.958 4.17575 15.4145 4.59803 15.3449ZM8.376 13.0699L8.38846 13.1573L8.39834 13.2426L8.4058 13.3272L8.41084 13.4109L8.4114 13.4929L8.41063 13.5736L8.40706 13.6534L8.40101 13.7321L8.39224 13.8076L8.38109 13.8827L8.36798 13.9546L8.35309 14.0248L8.33482 14.0927L8.31512 14.1586L8.29387 14.2215L8.26994 14.2818L8.24458 14.3399L8.21757 14.3944L8.18875 14.4468L8.15823 14.4952L8.12683 14.5398L8.09479 14.5826L8.06064 14.6211L8.02602 14.6562L7.98972 14.6873L7.95311 14.716L7.91637 14.741L7.8788 14.7626L7.84039 14.7808L7.80148 14.7953L7.76145 14.8072L7.72022 14.8158L7.78464 15.2137L7.85818 15.1989L7.92896 15.1778L7.99823 15.1512L8.06495 15.12L8.12831 15.0837L8.1895 15.0428L8.24791 14.9984L8.30253 14.9487L8.35513 14.8954L8.40425 14.8391L8.45182 14.78L8.49533 14.7163L8.53621 14.6504L8.57419 14.5829L8.61005 14.511L8.64263 14.4377L8.67242 14.3609L8.69965 14.2821L8.72397 14.2017L8.7449 14.1192L8.76435 14.0341L8.78003 13.9468L8.79297 13.8592L8.80284 13.7689L8.80992 13.6777L8.81414 13.5855L8.81617 13.4912L8.81297 13.3953L8.80816 13.2988L8.80097 13.2019L8.78898 13.1037L8.77397 13.0059L8.376 13.0699Z" fill="#0651A7"/>
<path fill-rule="evenodd" clip-rule="evenodd" d="M7.19516 11.6264L7.23729 11.6215L7.27944 11.6197L7.32128 11.6214L7.36354 11.6262L7.40592 11.6348L7.44913 11.6467L7.492 11.6618L7.5365 11.6805L7.58098 11.7019L7.62504 11.7288L7.66934 11.7575L7.71383 11.7905L7.75834 11.8265L7.80185 11.8666L7.84544 11.9101L7.88738 11.9557L7.92912 12.0056L7.97013 12.0587L8.01031 12.1142L8.04792 12.1735L8.08578 12.2347L8.12107 12.2998L8.15505 12.3665L8.18825 12.436L8.2191 12.5082L8.24831 12.5825L8.27464 12.6584L8.29977 12.7367L8.32179 12.8178L8.34283 12.9001L8.36023 12.9841L8.37594 13.0699L8.77391 13.0058L8.75648 12.9072L8.73551 12.811L8.7128 12.7161L8.68608 12.623L8.65777 12.5324L8.6261 12.4426L8.59262 12.3565L8.55669 12.2723L8.51912 12.1902L8.47835 12.1101L8.43495 12.0335L8.39067 11.9589L8.34344 11.8881L8.2949 11.8191L8.24412 11.7534L8.19141 11.6907L8.13594 11.6304L8.07993 11.5746L8.022 11.5219L7.96254 11.4721L7.90066 11.4272L7.83724 11.3852L7.77216 11.348L7.70591 11.3137L7.63811 11.285L7.56788 11.2613L7.4967 11.2419L7.42471 11.228L7.35187 11.2193L7.27832 11.2168L7.20429 11.2194L7.1308 11.2288L7.19516 11.6264Z" fill="#0651A7"/>
<path fill-rule="evenodd" clip-rule="evenodd" d="M6.53912 13.3731L6.52699 13.2853L6.51711 13.1999L6.50965 13.1154L6.50504 13.032L6.5041 12.95L6.50487 12.8694L6.50839 12.7891L6.51449 12.7109L6.52321 12.6349L6.53365 12.5603L6.54748 12.488L6.56236 12.4178L6.58063 12.3498L6.60033 12.284L6.62191 12.2206L6.64578 12.16L6.67125 12.1026L6.69783 12.0478L6.7267 11.9958L6.75717 11.947L6.78895 11.9023L6.82103 11.8599L6.85514 11.821L6.89018 11.7863L6.92558 11.7542L6.96229 11.7261L6.99865 11.7012L7.03697 11.6795L7.075 11.6613L7.11434 11.6472L7.15437 11.6353L7.19517 11.6264L7.13081 11.2288L7.05727 11.2437L6.98643 11.2643L6.91716 11.2909L6.85044 11.3222L6.78746 11.3584L6.7259 11.3994L6.66759 11.4446L6.61249 11.4936L6.55989 11.5468L6.51077 11.6031L6.46363 11.6626L6.42012 11.7262L6.37957 11.7918L6.34131 11.8601L6.3054 11.9315L6.27292 12.0056L6.24346 12.082L6.21575 12.1601L6.19186 12.2408L6.17055 12.3234L6.15115 12.4088L6.13618 12.4956L6.12254 12.5837L6.11299 12.6737L6.10558 12.7652L6.10141 12.8579L6.09971 12.9517L6.10253 13.0477L6.1073 13.1438L6.11492 13.241L6.12609 13.3389L6.14153 13.4371L6.53912 13.3731Z" fill="#0651A7"/>
<path fill-rule="evenodd" clip-rule="evenodd" d="M7.72015 14.8158L7.67792 14.8199L7.63593 14.8228L7.59403 14.8207L7.55183 14.8163L7.50939 14.8074L7.46628 14.7962L7.42337 14.7807L7.37881 14.7616L7.33466 14.7398L7.29038 14.7141L7.24602 14.685L7.20191 14.652L7.15701 14.616L7.11351 14.5759L7.06993 14.5324L7.02798 14.4868L6.98662 14.4368L6.94527 14.3842L6.90542 14.3283L6.86744 14.269L6.82957 14.2078L6.79428 14.1427L6.75955 14.0761L6.72711 14.0065L6.69593 13.9347L6.66705 13.86L6.64071 13.7841L6.61559 13.7058L6.59362 13.6251L6.57258 13.5428L6.55513 13.4584L6.53909 13.3731L6.14149 13.4371L6.15888 13.5353L6.1799 13.6319L6.2026 13.7267L6.22933 13.8199L6.25764 13.9105L6.28925 13.9999L6.32279 14.0864L6.35871 14.1706L6.39737 14.2521L6.43701 14.3324L6.48035 14.4086L6.52468 14.4836L6.57234 14.5547L6.62045 14.6234L6.67129 14.6894L6.72394 14.7518L6.77899 14.8118L6.83543 14.8679L6.89373 14.9206L6.95276 14.9701L7.01475 15.0157L7.07817 15.0577L7.1433 15.0952L7.20977 15.1284L7.27763 15.1574L7.34753 15.1816L7.41866 15.2006L7.49065 15.2145L7.5635 15.2232L7.63743 15.2257L7.71112 15.2235L7.78457 15.2137L7.72015 14.8158Z" fill="#0651A7"/>
<path fill-rule="evenodd" clip-rule="evenodd" d="M7.6693 14.8272C8.09049 14.7523 8.34108 14.1801 8.22915 13.5481C8.1168 12.9157 7.68414 12.4642 7.26334 12.539C6.84248 12.6134 6.59128 13.1869 6.70353 13.8185C6.81546 14.4505 7.24736 14.9021 7.6693 14.8272Z" fill="#0651A7"/>
</g>
</g>
</g>
<defs>
<clipPath id="clip0">
<path d="M0 4C0 1.79086 1.79086 0 4 0H36C38.2091 0 40 1.79086 40 4V36C40 38.2091 38.2091 40 36 40H4C1.79086 40 0 38.2091 0 36V4Z" fill="white"/>
</clipPath>
<clipPath id="clip1">
<rect width="41" height="40" fill="white" transform="translate(-1)"/>
</clipPath>
<clipPath id="clip2">
<rect width="73.6215" height="73.6215" fill="white" transform="translate(-28.2151 8.94141) rotate(-7.62098)"/>
</clipPath>
</defs>
</svg>
