<svg width="40" height="40" viewBox="0 0 40 40" fill="none" xmlns="http://www.w3.org/2000/svg">
<path d="M0 4C0 1.79086 1.79086 0 4 0H36C38.2091 0 40 1.79086 40 4V36C40 38.2091 38.2091 40 36 40H4C1.79086 40 0 38.2091 0 36V4Z" fill="#E0EB65"/>
<mask id="path-2-inside-1" fill="white">
<path fill-rule="evenodd" clip-rule="evenodd" d="M17 38C24.732 38 31 31.732 31 24C31 16.268 24.732 10 17 10C9.26801 10 3 16.268 3 24C3 31.732 9.26801 38 17 38ZM17 32C21.4183 32 25 28.4183 25 24C25 19.5817 21.4183 16 17 16C12.5817 16 9 19.5817 9 24C9 28.4183 12.5817 32 17 32Z"/>
</mask>
<path fill-rule="evenodd" clip-rule="evenodd" d="M17 38C24.732 38 31 31.732 31 24C31 16.268 24.732 10 17 10C9.26801 10 3 16.268 3 24C3 31.732 9.26801 38 17 38ZM17 32C21.4183 32 25 28.4183 25 24C25 19.5817 21.4183 16 17 16C12.5817 16 9 19.5817 9 24C9 28.4183 12.5817 32 17 32Z" fill="white"/>
<path d="M29.6 24C29.6 30.9588 23.9588 36.6 17 36.6V39.4C25.5052 39.4 32.4 32.5052 32.4 24H29.6ZM17 11.4C23.9588 11.4 29.6 17.0412 29.6 24H32.4C32.4 15.4948 25.5052 8.6 17 8.6V11.4ZM4.4 24C4.4 17.0412 10.0412 11.4 17 11.4V8.6C8.49481 8.6 1.6 15.4948 1.6 24H4.4ZM17 36.6C10.0412 36.6 4.4 30.9588 4.4 24H1.6C1.6 32.5052 8.49481 39.4 17 39.4V36.6ZM23.6 24C23.6 27.6451 20.6451 30.6 17 30.6V33.4C22.1915 33.4 26.4 29.1915 26.4 24H23.6ZM17 17.4C20.6451 17.4 23.6 20.3549 23.6 24H26.4C26.4 18.8085 22.1915 14.6 17 14.6V17.4ZM10.4 24C10.4 20.3549 13.3549 17.4 17 17.4V14.6C11.8085 14.6 7.6 18.8085 7.6 24H10.4ZM17 30.6C13.3549 30.6 10.4 27.6451 10.4 24H7.6C7.6 29.1915 11.8085 33.4 17 33.4V30.6Z" fill="#0651A7" mask="url(#path-2-inside-1)"/>
<path fill-rule="evenodd" clip-rule="evenodd" d="M17 32C21.4183 32 25 28.4183 25 24C25 19.5817 21.4183 16 17 16C12.5817 16 9 19.5817 9 24C9 28.4183 12.5817 32 17 32ZM17 31C20.866 31 24 27.866 24 24C24 20.134 20.866 17 17 17C13.134 17 10 20.134 10 24C10 27.866 13.134 31 17 31Z" fill="#0651A7"/>
<circle cx="27.5" cy="11.5" r="6.79412" fill="white" stroke="#0651A7" stroke-width="1.41176"/>
<path d="M27.5 7.08826V11.5L30.1471 14.1471" stroke="#0651A7" stroke-width="1.41176"/>
</svg>
