<svg width="40" height="40" viewBox="0 0 40 40" fill="none" xmlns="http://www.w3.org/2000/svg">
<rect width="40" height="40" rx="6" fill="#1E9CDB"/>
<path d="M15.5595 19.6019C16.5968 21.7226 18.3158 23.4338 20.4412 24.4614C20.5967 24.5351 20.7687 24.567 20.9403 24.554C21.1119 24.541 21.2771 24.4836 21.4198 24.3874L24.5492 22.3006C24.6877 22.2083 24.8469 22.152 25.0126 22.1368C25.1782 22.1215 25.3451 22.1479 25.498 22.2134L31.3526 24.7225C31.5515 24.807 31.7175 24.9538 31.8257 25.1409C31.9339 25.328 31.9783 25.5451 31.9524 25.7596C31.7673 27.2076 31.0608 28.5385 29.9652 29.5031C28.8695 30.4678 27.4598 30.9999 26 31C21.4913 31 17.1673 29.2089 13.9792 26.0208C10.7911 22.8327 9 18.5087 9 14C9.00008 12.5402 9.53224 11.1305 10.4969 10.0348C11.4615 8.93918 12.7924 8.23267 14.2404 8.04763C14.4549 8.02167 14.672 8.06612 14.8591 8.1743C15.0461 8.28248 15.193 8.44852 15.2775 8.6474L17.7888 14.5071C17.8537 14.6587 17.8802 14.824 17.8658 14.9883C17.8514 15.1525 17.7967 15.3107 17.7064 15.4487L15.6268 18.6261C15.5322 18.7691 15.4762 18.9341 15.4644 19.1051C15.4526 19.2762 15.4854 19.4473 15.5595 19.6019V19.6019Z" stroke="white" stroke-width="2" stroke-linecap="round" stroke-linejoin="round"/>
<path d="M24 11V16H29" stroke="white" stroke-width="2" stroke-linecap="round" stroke-linejoin="round"/>
<path d="M24 16L30 10" stroke="white" stroke-width="2" stroke-linecap="round" stroke-linejoin="round"/>
</svg>
