<svg width="12" height="12" viewBox="0 0 12 12" fill="none" xmlns="http://www.w3.org/2000/svg">
<path d="M7.49597 4.28772L7.57251 4.52328H7.8202H11.1708C11.5011 4.52328 11.6384 4.94588 11.3712 5.13999L8.66049 7.10945L8.46011 7.25504L8.53665 7.4906L9.57206 10.6773C9.67411 10.9913 9.31463 11.2525 9.04745 11.0584L6.33672 9.08894L6.13634 8.94336L5.93596 9.08894L3.22523 11.0584C2.95805 11.2525 2.59857 10.9913 2.70062 10.6773L3.73603 7.4906L3.81257 7.25504L3.61219 7.10945L0.901457 5.13999C0.634282 4.94588 0.771592 4.52328 1.10184 4.52328H4.45249H4.70017L4.77671 4.28772L5.81212 1.10106C5.91417 0.786979 6.35851 0.786981 6.46057 1.10106L7.49597 4.28772Z" stroke="#FF4343" stroke-width="0.681818"/>
</svg>
