<svg width="48" height="48" viewBox="0 0 48 48" fill="none" xmlns="http://www.w3.org/2000/svg">
<g clip-path="url(#clip0_4263:5350)">
<path d="M48 13.6269V5.64794C47.9974 3.44574 46.2127 1.66104 44.0105 1.65845H20.0735C17.8713 1.66104 16.0866 3.44574 16.084 5.64794V12.8697C6.84462 13.2335 -0.350537 21.0183 0.0132056 30.2576C0.376948 39.497 8.16175 46.6922 17.4011 46.3284C17.9539 46.3067 18.5051 46.2575 19.0531 46.1812C19.3845 46.2799 19.7278 46.3336 20.0736 46.3408H44.0106C46.2128 46.3382 47.9975 44.5535 48.0001 42.3513V34.3723C47.9975 32.1701 46.2128 30.3854 44.0106 30.3828H43.9898C44.5178 29.6963 44.8056 28.8552 44.8085 27.9891V20.0101C44.8056 19.144 44.5178 18.3029 43.9898 17.6164H44.0106C46.2127 17.6137 47.9973 15.8291 48 13.6269ZM20.0735 3.25424H44.0105C45.3325 3.25424 46.4042 4.32592 46.4042 5.64794H17.6798C17.6798 4.32592 18.7515 3.25424 20.0735 3.25424ZM17.6798 7.24374H46.4042V8.83954H17.6798V7.24374ZM17.6798 10.4353H46.4042V12.0311H17.6798V10.4353ZM23.0896 43.4013C22.8427 43.5114 22.593 43.6149 22.3403 43.7117C22.2254 43.7564 22.1081 43.7979 21.9909 43.8402C14.1139 46.6667 5.43703 42.5725 2.61047 34.6957C-0.216091 26.8187 3.87813 18.1418 11.755 15.3153C13.3999 14.725 15.1343 14.4238 16.8819 14.4248C17.3606 14.4248 17.8266 14.4528 18.291 14.4958C18.4394 14.5102 18.5854 14.5317 18.733 14.5493C19.0522 14.5884 19.365 14.6355 19.6761 14.6937C19.8437 14.7256 20.0113 14.7591 20.1772 14.7959C20.4637 14.8605 20.7461 14.9355 21.027 15.0153C21.1961 15.0639 21.3677 15.1078 21.5352 15.1629C21.8073 15.2507 22.0722 15.3536 22.3331 15.4565C22.7433 15.6161 23.147 15.7932 23.5436 15.9895C23.6609 16.0478 23.7829 16.0996 23.897 16.1603C24.1803 16.3095 24.4556 16.4746 24.7316 16.639C24.8226 16.6949 24.9144 16.7483 25.0045 16.805C25.2814 16.9829 25.5535 17.172 25.8216 17.3683C25.9014 17.4257 25.9764 17.4832 26.053 17.5414C26.329 17.7542 26.5968 17.9731 26.8564 18.1981C26.9562 18.2851 27.0535 18.3752 27.1501 18.4646C27.3719 18.6681 27.5889 18.8763 27.7972 19.0917C27.9384 19.2386 28.0732 19.3918 28.2089 19.5449C28.3685 19.7221 28.528 19.8984 28.6756 20.0827C28.8504 20.2998 29.0132 20.5256 29.1767 20.7522C29.2805 20.8958 29.3898 21.0354 29.4887 21.1822C29.5517 21.2764 29.6044 21.3777 29.665 21.4735C29.9044 21.8469 30.1302 22.2299 30.3369 22.6328C30.3704 22.6982 30.3991 22.7661 30.4326 22.8315C30.6552 23.2847 30.8627 23.7507 31.0454 24.2342C31.0582 24.2677 31.0701 24.302 31.0829 24.3363C31.2529 24.7975 31.4021 25.2683 31.5273 25.7462L31.5385 25.7893C31.6673 26.2891 31.7706 26.7951 31.8481 27.3053V27.3205C31.9024 27.6811 31.9415 28.0146 31.9718 28.3362C32.0053 28.7471 32.0348 29.1588 32.0348 29.5777C32.0336 30.0862 32.007 30.5944 31.955 31.1001C31.955 31.1448 31.9423 31.1895 31.9375 31.2342C31.8952 31.6188 31.8337 31.9962 31.7635 32.3712C31.7324 32.5308 31.7021 32.6903 31.6662 32.8499C31.6055 33.1236 31.5321 33.3925 31.4571 33.6606C31.3678 33.9765 31.2677 34.2906 31.1571 34.6029C31.1116 34.7314 31.0654 34.8582 31.0167 34.9851C30.8451 35.4335 30.6505 35.8731 30.4366 36.3032C30.4047 36.3686 30.3752 36.4357 30.3425 36.5003C30.0956 36.9814 29.8234 37.4491 29.527 37.9014L29.5214 37.911C29.4137 38.0706 29.2972 38.2301 29.1847 38.3897C29.0475 38.5796 28.9086 38.7687 28.7634 38.9483C28.6469 39.0967 28.5288 39.2435 28.4068 39.3871C28.1881 39.6432 27.9631 39.8922 27.7285 40.1331C27.6128 40.252 27.4892 40.3677 27.3727 40.4834C27.1557 40.6925 26.9327 40.8951 26.704 41.0914C26.5596 41.2151 26.412 41.3308 26.2636 41.4521C26.0649 41.6116 25.8647 41.7593 25.6556 41.9069C25.5032 42.0154 25.3516 42.1271 25.1952 42.2308C24.9295 42.4055 24.655 42.5683 24.3782 42.7271C24.1165 42.8771 23.8492 43.0159 23.5803 43.1492C23.4247 43.2425 23.2579 43.3255 23.0896 43.4013ZM33.57 28.2444V28.2412C33.5628 28.1567 33.5652 28.0697 33.5572 27.9859H43.2126C43.2126 29.3079 42.1409 30.3796 40.8189 30.3796H33.6186C33.6314 30.1115 33.6378 29.845 33.6378 29.5817C33.6378 29.1532 33.6123 28.7072 33.57 28.2444ZM33.3242 26.3933C33.2178 25.8512 33.0872 25.3193 32.9324 24.7975H43.2126V26.3933H33.3242ZM32.3667 23.2017C32.1436 22.6568 31.8917 22.1241 31.6119 21.6059H43.2126V23.2017H32.3667ZM30.6249 20.0101C30.4989 19.8306 30.3552 19.6646 30.226 19.4899C30.0592 19.2705 29.8972 19.0463 29.7201 18.8348C29.6004 18.692 29.4688 18.5595 29.3443 18.4215C29.1049 18.1526 28.8656 17.8845 28.6054 17.6316L28.5887 17.6164H40.8189C42.1409 17.6164 43.2126 18.6881 43.2126 20.0101H30.6249ZM44.0105 44.745H23.9976C24.1508 44.6732 24.2992 44.5902 24.4508 44.5136C24.6263 44.4242 24.805 44.3413 24.9766 44.2455C25.3492 44.0404 25.7115 43.8162 26.0681 43.5816C26.2141 43.4859 26.3554 43.3854 26.4974 43.2856C26.7634 43.0984 27.0245 42.9029 27.2809 42.6992C27.399 42.605 27.5203 42.5149 27.6344 42.4183C27.6623 42.3952 27.6918 42.3744 27.719 42.3513H46.4042C46.4042 43.6732 45.3325 44.745 44.0105 44.745ZM46.4042 40.7555H29.3563C29.4448 40.6566 29.527 40.5512 29.6132 40.4499C29.7169 40.3286 29.8214 40.2105 29.922 40.0837C30.1613 39.7829 30.4007 39.4765 30.6185 39.1597H46.4042V40.7555ZM46.4042 37.5639H31.6127C31.8925 37.0458 32.1444 36.5131 32.3675 35.9681H46.4042V37.5639ZM44.0105 31.9778V31.9786C45.3325 31.9786 46.4042 33.0503 46.4042 34.3723H32.9324C32.9556 34.2925 32.9715 34.2127 32.9939 34.1329C33.0896 33.7962 33.1798 33.4595 33.2548 33.1204C33.2931 32.9417 33.3218 32.7598 33.3545 32.5786C33.3912 32.3784 33.4343 32.1797 33.4654 31.9778H44.0105ZM26.6905 16.0206C26.6554 15.9951 26.6179 15.9735 26.5828 15.948C26.3397 15.7752 26.0918 15.6086 25.8391 15.4485C25.6851 15.3504 25.5279 15.257 25.3708 15.1637C25.1362 15.0248 24.9032 14.8844 24.6606 14.7576C24.2824 14.557 23.8983 14.3709 23.5085 14.199C23.3489 14.1312 23.1893 14.0738 23.0297 14.0107C22.7233 13.8886 22.4145 13.7713 22.1018 13.67C22.0595 13.6565 22.022 13.6381 21.9765 13.6245H46.4042C46.4055 14.9466 45.3349 16.0193 44.0129 16.0206C44.0121 16.0206 44.0113 16.0206 44.0105 16.0206H26.6905Z" fill="black"/>
<path d="M28.9823 25.55V25.5428C28.9025 25.3082 28.8227 25.0864 28.7342 24.8693C28.6695 24.7098 28.6017 24.5502 28.5307 24.3906C28.5195 24.3659 28.5107 24.3419 28.5004 24.318C28.4732 24.2582 28.4405 24.2023 28.4118 24.1449C28.2698 23.8432 28.119 23.5472 27.9546 23.26C27.9394 23.2337 27.9299 23.2105 27.9131 23.1802C27.8852 23.1323 27.8485 23.0852 27.8198 23.0366C27.649 22.7525 27.4711 22.478 27.2796 22.2052C27.2596 22.1772 27.2437 22.1469 27.2237 22.119C27.1846 22.0655 27.1392 22.0177 27.0993 21.965C26.907 21.7065 26.7067 21.4551 26.4953 21.2126C26.4713 21.1846 26.4498 21.1527 26.4258 21.1256C26.4163 21.1144 26.4027 21.1096 26.3923 21.0993C24.5608 19.0367 22.1101 17.6234 19.4075 17.0715C19.1681 17.0236 18.9471 17.0005 18.7197 16.9677C18.5402 16.9414 18.3639 16.9039 18.1819 16.888C18.0894 16.8784 17.996 16.8816 17.9035 16.8744C17.5628 16.8433 17.2253 16.8185 16.8822 16.8185C16.5391 16.8185 16.2016 16.8433 15.8656 16.8704C15.7731 16.8776 15.6797 16.8704 15.5872 16.884C15.4156 16.9015 15.2505 16.9366 15.0813 16.9638C14.8547 16.9965 14.6361 17.0204 14.3943 17.0683H14.3895C11.6604 17.6178 9.18604 19.0453 7.34409 21.1328C7.33611 21.1408 7.32573 21.1448 7.31855 21.1527C7.3002 21.1735 7.28504 21.1958 7.26749 21.2166C7.05365 21.4615 6.85178 21.716 6.6571 21.977C6.62039 22.0264 6.5773 22.0735 6.5406 22.123C6.52225 22.1477 6.50709 22.1764 6.48954 22.2028C6.29246 22.4788 6.10974 22.7613 5.93101 23.0557C5.90069 23.106 5.86558 23.1507 5.83606 23.2017C5.81771 23.2337 5.80095 23.268 5.7826 23.2999C5.70281 23.4339 5.63259 23.568 5.56078 23.7052C5.45307 23.9119 5.34774 24.1249 5.24561 24.3483C5.23763 24.3667 5.23205 24.3858 5.22407 24.4042C5.07087 24.7473 4.93523 25.0983 4.81235 25.4566C4.80198 25.4869 4.78762 25.5156 4.77725 25.5468V25.5571C3.89587 28.1698 3.89587 30.9993 4.77725 33.6119C4.77725 33.6167 4.77725 33.6215 4.77725 33.6263C4.85225 33.8521 4.93683 34.0827 5.03417 34.3173C5.0972 34.4769 5.16263 34.6301 5.23205 34.784C5.24322 34.8088 5.2512 34.8319 5.26237 34.8567C5.28152 34.8973 5.30705 34.9364 5.3262 34.9795C5.4778 35.2987 5.63898 35.6179 5.81531 35.9266C5.82808 35.9482 5.83685 35.9697 5.84962 35.9921C5.87755 36.0399 5.91345 36.0862 5.94138 36.1341C6.11373 36.4205 6.29325 36.7006 6.48634 36.9719C6.50549 36.9982 6.51986 37.0261 6.53901 37.0517C6.57571 37.1019 6.6188 37.1482 6.6563 37.1977C6.85098 37.4586 7.05525 37.7123 7.26509 37.9573C7.29063 37.986 7.31137 38.0179 7.3369 38.0467C7.34728 38.0578 7.36084 38.0626 7.37121 38.0738C9.20279 40.1356 11.6532 41.5481 14.3552 42.1C14.5946 42.1479 14.8156 42.171 15.043 42.2037C15.2225 42.23 15.3989 42.2675 15.5808 42.2835C16.0101 42.3266 16.4457 42.3489 16.8758 42.3489C17.3059 42.3489 17.7415 42.3266 18.17 42.2835L18.1987 42.2795C18.5897 42.2396 18.9814 42.1806 19.4307 42.092C22.1242 41.5378 24.5661 40.1274 26.3923 38.0714C26.4027 38.061 26.4163 38.0562 26.4266 38.0451C26.4522 38.0163 26.4729 37.9844 26.4976 37.9557C26.7123 37.7099 26.9141 37.4554 27.1088 37.1937C27.1455 37.1442 27.1886 37.0988 27.2253 37.0485C27.2437 37.0237 27.2588 36.995 27.2764 36.9687C27.4727 36.6942 27.6538 36.4102 27.8277 36.1205C27.8589 36.0695 27.8948 36.0232 27.9251 35.9713C27.9387 35.9474 27.9498 35.9219 27.9634 35.8979C28.0926 35.6721 28.2107 35.4399 28.3264 35.2061C28.3895 35.0865 28.4517 34.9668 28.5163 34.8231C28.5251 34.804 28.5299 34.7856 28.5387 34.7673C28.6863 34.4354 28.8171 34.0955 28.9376 33.75C28.952 33.7077 28.9735 33.6646 28.9871 33.6231V33.6087C29.8682 30.9944 29.8665 28.1632 28.9823 25.55ZM20.0738 18.8851C21.7454 19.3876 23.2758 20.2752 24.542 21.4767L20.0738 24.0571V18.8851ZM13.6906 18.8851V24.0571L9.22234 21.4767C10.4885 20.2751 12.0189 19.3875 13.6906 18.8851ZM6.02516 32.1685C5.60706 30.4718 5.60706 28.6989 6.02516 27.0021L10.499 29.5849L6.02516 32.1685ZM13.6906 40.2848C12.019 39.7823 10.4885 38.8947 9.22234 37.6932L13.6906 35.1128V40.2848ZM20.0738 40.2848V35.1128L24.542 37.6932C23.2758 38.8946 21.7454 39.7823 20.0738 40.2848ZM27.2405 33.7476C27.187 33.8784 27.1288 34.0117 27.0681 34.1465C27.0474 34.1928 27.0235 34.2367 27.0019 34.2822C26.9413 34.4087 26.8777 34.5335 26.8112 34.6564L26.6469 34.9755C26.6229 35.0266 26.5926 35.0825 26.5607 35.1407C26.5288 35.199 26.5 35.2396 26.4697 35.2899C26.3157 35.5492 26.1506 35.807 25.9702 36.0591C25.8657 36.2051 25.7588 36.3495 25.6471 36.4908L19.6748 33.0398C19.2932 32.8195 18.8052 32.9503 18.5849 33.3319C18.5143 33.4541 18.4775 33.5929 18.478 33.734V40.6279C18.3327 40.6494 18.1907 40.6797 18.0431 40.6949H18.0168C17.262 40.7707 16.5016 40.7707 15.7468 40.6949H15.7236C15.576 40.6797 15.4324 40.6494 15.2864 40.6279V33.734C15.2864 33.2934 14.9291 32.9361 14.4885 32.9361C14.3484 32.9361 14.2108 32.973 14.0895 33.043L8.11725 36.4916C8.00874 36.3543 7.90421 36.2131 7.79809 36.0703C7.61218 35.8109 7.43904 35.5421 7.27228 35.2612C7.24674 35.2181 7.21961 35.1814 7.19248 35.1343C7.03291 34.8598 6.89008 34.5758 6.74885 34.2726C6.72412 34.2199 6.69619 34.1689 6.66906 34.113C6.6159 33.9917 6.56424 33.8708 6.51427 33.75L6.50629 33.7276L12.4937 30.2759C12.8753 30.0556 13.0061 29.5676 12.7858 29.186C12.7157 29.0647 12.615 28.964 12.4937 28.894L6.51666 25.443V25.4375C6.57012 25.3034 6.62837 25.1686 6.68901 25.0321C6.71215 24.9819 6.73768 24.9324 6.76162 24.8821C6.89407 24.5989 7.03849 24.3156 7.20286 24.0284C7.23158 23.9789 7.2627 23.9318 7.29142 23.8831C7.451 23.6222 7.61058 23.3637 7.7941 23.1108C7.89783 22.9656 8.00395 22.8219 8.11326 22.6823L14.0895 26.13C14.4711 26.3503 14.9591 26.2196 15.1795 25.838C15.2501 25.7157 15.2869 25.577 15.2864 25.4359V18.542C15.4308 18.5213 15.5728 18.4909 15.7196 18.4758L15.7476 18.4718C16.5024 18.396 17.2628 18.396 18.0176 18.4718H18.0407C18.1883 18.4869 18.332 18.5173 18.478 18.5388V25.4359C18.478 25.8765 18.8352 26.2338 19.2759 26.2338C19.4159 26.2338 19.5535 26.1969 19.6748 26.1268L25.6479 22.6791C25.7543 22.8164 25.859 22.9565 25.9623 23.0996C26.1474 23.3573 26.3205 23.627 26.4873 23.9079C26.5136 23.9526 26.5423 23.9956 26.5671 24.0403C26.5918 24.085 26.6213 24.1417 26.6469 24.1935L26.8064 24.5071C26.8439 24.5765 26.8814 24.6467 26.9197 24.7201C26.9732 24.8303 27.0298 24.9396 27.0793 25.0521C27.1344 25.1773 27.1886 25.3034 27.2389 25.4367L21.2706 28.894C20.889 29.1143 20.7583 29.6023 20.9786 29.9839C21.0486 30.1052 21.1493 30.2059 21.2706 30.2759L24.9848 32.4207L27.2477 33.7268L27.2405 33.7476ZM27.7392 32.1677L23.2654 29.5849L27.7392 27.0021C28.1573 28.6986 28.1573 30.4712 27.7392 32.1677Z" fill="black"/>
<path d="M16.8815 27.1912C15.5595 27.1912 14.4878 28.2628 14.4878 29.5849C14.4878 30.9069 15.5595 31.9786 16.8815 31.9786C18.2035 31.9786 19.2752 30.9069 19.2752 29.5849C19.2752 28.2628 18.2035 27.1912 16.8815 27.1912ZM16.8815 30.3828C16.4409 30.3828 16.0836 30.0255 16.0836 29.5849C16.0836 29.1442 16.4409 28.787 16.8815 28.787C17.3221 28.787 17.6794 29.1442 17.6794 29.5849C17.6794 30.0255 17.3221 30.3828 16.8815 30.3828Z" fill="black"/>
</g>
<defs>
<clipPath id="clip0_4263:5350">
<rect width="48" height="48" fill="white"/>
</clipPath>
</defs>
</svg>
