<svg width="49" height="48" viewBox="0 0 49 48" fill="none" xmlns="http://www.w3.org/2000/svg">
<g clip-path="url(#clip0_4263:5266)">
<path d="M44.4198 2.92535L43.6572 4.3316L45.0635 5.09416L45.826 3.68791L44.4198 2.92535Z" fill="black"/>
<path d="M42.91 17.6011L33.0978 15.0088C32.6707 14.8962 32.2331 15.1511 32.1204 15.5782V15.5783C32.0077 16.0054 32.2627 16.443 32.6898 16.5557H32.6899L42.5013 19.1479C42.5682 19.1652 42.637 19.1741 42.7061 19.1743C43.1478 19.1744 43.506 18.8164 43.5061 18.3747C43.5061 18.0114 43.2614 17.6936 42.91 17.6011Z" fill="black"/>
<path d="M44.5126 14.7209L34.6172 12.1951C34.1892 12.086 33.7537 12.3445 33.6446 12.7725C33.5355 13.2005 33.7941 13.6361 34.2221 13.7451L44.1175 16.2702C44.182 16.287 44.2484 16.2953 44.3151 16.295C44.7568 16.2933 45.1135 15.9337 45.1118 15.492C45.1103 15.1287 44.8642 14.8121 44.5126 14.7209Z" fill="black"/>
<path d="M31.0464 29.924H29.4468V31.5236H31.0464V29.924Z" fill="black"/>
<path d="M48.7061 3.41604C48.3838 1.23102 46.3512 -0.27895 44.1662 0.0433798C41.9812 0.365709 40.4712 2.39826 40.7936 4.58329C40.8489 4.9582 40.9571 5.32332 41.1152 5.66765L40.3418 7.08414L39.6403 6.70262C39.2525 6.49167 38.767 6.63484 38.5558 7.02255L37.2456 9.43563L36.0963 9.12849C35.6698 9.01322 35.2306 9.26546 35.1153 9.69197C35 10.1185 35.2523 10.5577 35.6788 10.673L45.715 13.3924C45.783 13.4111 45.8533 13.4205 45.9237 13.4204C46.3654 13.4215 46.7245 13.0642 46.7256 12.6225C46.7265 12.2597 46.483 11.9417 46.1325 11.8479L45.1799 11.5904L45.5854 10.8425C45.7964 10.4547 45.6532 9.96921 45.2655 9.75795L44.5624 9.37644L45.3335 7.95595C47.5184 7.63362 49.0285 5.60106 48.7061 3.41604ZM43.5907 11.1576L41.9414 10.7097L38.8293 9.86673L39.5763 8.49023L41.1288 9.33325L43.0948 10.4002L43.7954 10.7801L43.5907 11.1576ZM44.1289 6.8138L43.1547 8.60941L41.7487 7.84877L42.7236 6.05157C42.8594 5.80112 42.8518 5.49739 42.7036 5.25414C42.0092 4.12549 42.3612 2.64751 43.49 1.95316C44.6186 1.25871 46.0966 1.61084 46.7909 2.73949C47.4854 3.86814 47.1334 5.34612 46.0046 6.04047C45.644 6.26232 45.2312 6.38479 44.808 6.39549C44.5232 6.40409 44.2646 6.56345 44.1289 6.8138Z" fill="black"/>
<path d="M47.9402 24.8051H43.1412C42.6995 24.8051 42.3414 25.1632 42.3414 25.6049V28.0044H37.1825L38.2791 25.984C38.49 25.5962 38.3469 25.1107 37.9591 24.8995L36.5531 24.1364L38.1103 21.2658L40.8889 22.0249C41.3152 22.1413 41.7551 21.8901 41.8715 21.4638C41.9879 21.0375 41.7367 20.5976 41.3104 20.4812L31.5789 17.8234C31.1508 17.7144 30.7155 17.9732 30.6066 18.4013C30.5003 18.8188 30.7438 19.2455 31.1574 19.3663L33.3538 19.9669L32.3332 21.8457L30.9271 21.0827C30.5394 20.8722 30.0546 21.0154 29.8433 21.4026L28.3173 24.2148C28.1063 24.6026 28.2495 25.0881 28.6372 25.2994L30.0433 26.0616L29.6546 26.7814C29.3853 26.8211 29.1208 26.8881 28.8651 26.9814C28.2827 27.1968 27.7597 27.5475 27.3391 28.0044H21.5459V25.6049C21.5459 25.1632 21.1878 24.8051 20.7461 24.8051H18.3466V18.4065C18.344 16.199 16.555 14.4099 14.3475 14.4073H4.74961C2.5421 14.4099 0.753088 16.199 0.750488 18.4065V44.0009C0.753088 46.2084 2.5421 47.9974 4.74961 48H14.3475C16.555 47.9974 18.344 46.2084 18.3466 44.0009V37.6023H20.7461C21.1878 37.6023 21.5459 37.2442 21.5459 36.8025V34.403H28.7236C29.7008 34.8209 30.8065 34.8209 31.7837 34.403H42.3414V36.8025C42.3414 37.2442 42.6995 37.6023 43.1412 37.6023H47.9402C48.3819 37.6023 48.74 37.2442 48.74 36.8025V25.6049C48.74 25.1632 48.3819 24.8051 47.9402 24.8051ZM3.94979 46.2532C2.9945 45.9155 2.35434 45.0141 2.35014 44.0009V18.4065C2.35434 17.3933 2.9945 16.4919 3.94979 16.1542V46.2532ZM7.14909 46.4003H5.54944V16.007H7.14909V46.4003ZM10.3484 46.4003H8.74874V16.007H10.3484V46.4003ZM13.5477 46.4003H11.948V16.007H13.5477V46.4003ZM16.747 25.6049V44.0009C16.7428 45.0141 16.1026 45.9155 15.1473 46.2532V16.1542C16.1026 16.4919 16.7428 17.3933 16.747 18.4065V25.6049ZM19.9463 28.8042V36.0026H18.3466V26.4047H19.9463V28.8042ZM21.5459 32.8033V29.604H26.4081C26.3447 29.8253 26.301 30.0517 26.2777 30.2807C26.2777 30.3095 26.2697 30.3383 26.2665 30.3671C26.2473 30.5938 26.2473 30.8218 26.2665 31.0485C26.2665 31.0837 26.2713 31.1181 26.2753 31.1533C26.2995 31.3745 26.3423 31.5935 26.4033 31.8075C26.4129 31.8427 26.4233 31.8779 26.4345 31.9131C26.5001 32.1258 26.5833 32.3325 26.6832 32.5314C26.6992 32.5626 26.7168 32.593 26.7336 32.625C26.7656 32.6842 26.7944 32.7457 26.8296 32.8033H21.5459ZM34.815 20.6284L36.3475 21.1563L35.143 23.3734L33.7369 22.6104L34.815 20.6284ZM30.8671 22.8727L36.4915 25.9248L35.7284 27.3301L32.4108 25.5305L31.511 25.045L30.1041 24.2788L30.8671 22.8727ZM32.2836 29.4817C32.9735 30.6037 32.6233 32.0727 31.5012 32.7626C30.8118 33.1865 29.9545 33.2319 29.2243 32.8833C29.2027 32.8729 29.1267 32.8441 29.1043 32.8361C27.9398 32.2041 27.508 30.7479 28.1397 29.5832C28.1982 29.48 28.2648 29.3816 28.3389 29.2889C28.6124 28.9237 28.9861 28.6457 29.4146 28.4891C29.6607 28.3998 29.9192 28.3501 30.1808 28.3419C30.4654 28.3335 30.7239 28.1744 30.8599 27.9244L31.4526 26.831L32.8587 27.5941L32.2636 28.6842C32.1277 28.9347 32.1353 29.2384 32.2836 29.4817ZM39.1421 32.8033H33.6633C33.6977 32.7473 33.7305 32.6905 33.7617 32.6322C33.8731 32.4223 33.9652 32.2029 34.0368 31.9763C34.0488 31.9371 34.0632 31.8963 34.0744 31.8603C34.137 31.6456 34.1811 31.4259 34.2064 31.2037C34.2112 31.1597 34.2144 31.1157 34.2184 31.0717C34.238 30.844 34.238 30.6148 34.2184 30.3871C34.2184 30.3671 34.212 30.3487 34.2104 30.3287C34.1864 30.1086 34.1444 29.8909 34.0848 29.6776C34.0784 29.6544 34.0776 29.6296 34.0712 29.6064H39.1421V32.8033ZM42.3414 32.8033H40.7417V29.604H42.3414V32.8033ZM47.1403 36.0026H43.941V26.4047H47.1403V36.0026Z" fill="black"/>
</g>
<defs>
<clipPath id="clip0_4263:5266">
<rect width="48" height="48" fill="white" transform="translate(0.75)"/>
</clipPath>
</defs>
</svg>
