<svg width="44" height="44" viewBox="0 0 44 44" fill="none" xmlns="http://www.w3.org/2000/svg">
<path d="M43.7838 36.1471L39.3838 31.7471C39.2756 31.639 39.1364 31.5675 38.9856 31.5425L34.8174 30.8473L25.969 21.9989L34.8174 13.1506L38.9856 12.4554C39.1364 12.4304 39.2756 12.3589 39.3838 12.2508L43.7838 7.85081C44.07 7.56444 44.07 7.10024 43.7838 6.81388L37.1838 0.213912C36.8974 -0.0723618 36.4332 -0.0723618 36.1469 0.213912L31.7469 4.61389C31.639 4.72187 31.5675 4.86084 31.5423 5.01135L30.8471 9.18033L21.9988 18.0287L13.1504 9.18033L12.4552 5.01135C12.43 4.86084 12.3585 4.72187 12.2506 4.61389L7.85062 0.213912C7.56426 -0.0723618 7.10006 -0.0723618 6.8137 0.213912L0.213729 6.81388C-0.072545 7.10024 -0.072545 7.56444 0.213729 7.85081L4.61371 12.2508C4.72187 12.3589 4.86111 12.4304 5.0119 12.4554L9.18015 13.1506L18.0285 21.9989L9.18015 30.8473L5.0119 31.5425C4.86111 31.5675 4.72187 31.639 4.61371 31.7471L0.213729 36.1471C-0.072545 36.4334 -0.072545 36.8976 0.213729 37.184L6.8137 43.784C7.10006 44.0702 7.56426 44.0702 7.85062 43.784L12.2506 39.384C12.3585 39.276 12.43 39.137 12.4552 38.9865L13.1504 34.8175L21.9988 25.9692L30.8471 34.8175L31.5423 38.9865C31.5675 39.137 31.639 39.276 31.7469 39.384L36.1469 43.784C36.4332 44.0702 36.8974 44.0702 37.1838 43.784L43.7838 37.184C44.07 36.8976 44.07 36.4334 43.7838 36.1471ZM36.6653 1.7693L42.2284 7.33234L38.8653 10.6954L33.3023 5.13235L36.6653 1.7693ZM1.76912 7.33234L7.33216 1.7693L10.6952 5.13235L5.13217 10.6954L1.76912 7.33234ZM7.33216 42.2286L1.76912 36.6655L5.13217 33.3025L10.6952 38.8655L7.33216 42.2286ZM32.2551 34.3445C32.2299 34.194 32.1584 34.0551 32.0505 33.9471L22.5172 24.4138C22.2309 24.1275 21.7667 24.1275 21.4803 24.4138L11.947 33.9471C11.8391 34.0551 11.7676 34.194 11.7424 34.3445L11.243 37.3395L6.65823 32.7547L9.65241 32.2553C9.80321 32.2303 9.94245 32.1588 10.0506 32.0507L19.5839 22.5174C19.8702 22.231 19.8702 21.7668 19.5839 21.4805L10.0506 11.9472C9.94245 11.8391 9.80321 11.7676 9.65241 11.7426L6.65823 11.2432L11.243 6.65841L11.7424 9.65333C11.7676 9.80385 11.8391 9.94281 11.947 10.0508L21.4803 19.5841C21.7667 19.8704 22.2309 19.8704 22.5172 19.5841L32.0505 10.0508C32.1584 9.94281 32.2299 9.80385 32.2551 9.65333L32.7545 6.65841L37.3393 11.2432L34.3451 11.7426C34.1943 11.7676 34.0551 11.8391 33.9469 11.9472L24.4136 21.4805C24.1273 21.7668 24.1273 22.231 24.4136 22.5174L33.9469 32.0507C34.0551 32.1588 34.1943 32.2303 34.3451 32.2553L37.3393 32.7547L32.7545 37.3395L32.2551 34.3445ZM36.6653 42.2286L33.3023 38.8655L38.8653 33.3025L42.2284 36.6655L36.6653 42.2286Z" fill="black"/>
</svg>
