<svg width="48" height="48" viewBox="0 0 48 48" fill="none" xmlns="http://www.w3.org/2000/svg">
<path d="M47.6935 7.23053C46.3707 2.10777 41.1456 -0.972864 36.0228 0.349861C30.8999 1.67259 27.8194 6.89773 29.142 12.0206C30.0133 15.395 32.6483 18.0301 36.0228 18.9013V26.4016C36.0228 26.8425 36.3802 27.1999 36.8211 27.1999H37.6194V43.5656C37.6194 45.1088 36.3684 46.3597 34.8253 46.3597C33.2821 46.3597 32.0311 45.1088 32.0311 43.5656V40.4729C37.6284 32.5137 35.7137 21.5239 27.7545 15.9267C19.7953 10.3294 8.80555 12.2441 3.2083 20.2033C-2.38896 28.1625 -0.474278 39.1522 7.48502 44.7494C14.6485 49.7871 24.4247 48.7985 30.4346 42.4287V43.5655C30.4346 45.9905 32.4004 47.9563 34.8254 47.9563C37.2504 47.9563 39.2162 45.9905 39.2162 43.5655V27.1998H40.0145C40.4554 27.1998 40.8128 26.8424 40.8128 26.4015V21.6116H43.2078V22.4099H44.8044V19.2166H43.2078V20.0149H40.8128V18.9012C45.9356 17.5785 49.0162 12.3534 47.6935 7.23053ZM31.7182 37.9557C31.2829 36.8633 30.4298 35.9897 29.348 35.5288C29.7153 34.7024 29.9929 33.839 30.1758 32.9534V32.947C30.2229 32.7139 30.2477 32.476 30.282 32.2405C30.3091 32.0545 30.3467 31.8732 30.3618 31.6816C30.4102 31.2542 30.4345 30.8247 30.4345 30.3931C30.4345 29.9628 30.4121 29.5309 30.369 29.1014C30.3491 28.9051 30.3099 28.7151 30.2812 28.5219C30.2485 28.2943 30.2245 28.0652 30.179 27.8401V27.8337C29.8526 26.2488 29.2264 24.7409 28.3341 23.391C28.3269 23.3783 28.3253 23.3639 28.3173 23.3519C28.3093 23.3399 28.291 23.3184 28.279 23.3C28.1593 23.1212 28.0251 22.9535 27.8966 22.7811C27.7681 22.6087 27.6571 22.4394 27.5206 22.2782C27.4695 22.2167 27.412 22.1616 27.3609 22.1009C26.9452 21.615 26.4931 21.1612 26.0086 20.7438C25.9287 20.6751 25.8577 20.6001 25.7771 20.5338C25.6302 20.4125 25.4705 20.3047 25.3172 20.1897C25.1304 20.0492 24.9468 19.9039 24.752 19.7738C24.736 19.7626 24.7217 19.7499 24.7049 19.7395C24.6881 19.7291 24.6809 19.7307 24.6706 19.7243C23.3173 18.8298 21.8052 18.203 20.2159 17.8778C20.0826 17.8506 19.9469 17.8395 19.812 17.8171C19.5262 17.7684 19.2404 17.7157 18.9482 17.687C18.8747 17.679 18.8005 17.6814 18.7262 17.6758C18.3742 17.6447 18.0205 17.6199 17.6613 17.6199C17.302 17.6199 16.9484 17.6447 16.5971 17.6742C16.5229 17.6798 16.4486 17.6742 16.3752 17.6854C16.083 17.7141 15.7972 17.7652 15.5114 17.8155C15.3765 17.8379 15.2408 17.8491 15.1074 17.8762C13.5204 18.2024 12.0104 18.8295 10.6592 19.7235C10.648 19.7299 10.6352 19.7315 10.6248 19.7387C10.6145 19.7459 10.5937 19.7618 10.5777 19.773C10.3829 19.9031 10.1993 20.0484 10.0125 20.1889C9.85924 20.3039 9.69958 20.4117 9.55269 20.533C9.47285 20.5993 9.39941 20.6743 9.32117 20.743C8.83659 21.1604 8.38454 21.6142 7.96881 22.1001C7.91692 22.1608 7.85944 22.2159 7.80914 22.2774C7.67662 22.437 7.55847 22.6127 7.43313 22.7803C7.3078 22.948 7.17048 23.1204 7.05073 23.2992C7.03876 23.3176 7.02439 23.3335 7.01242 23.3511C7.00044 23.3687 7.00283 23.3775 6.99565 23.3902C6.10332 24.7401 5.47714 26.248 5.15072 27.8329V27.8393C5.10522 28.0644 5.08127 28.2935 5.04854 28.5211C5.0198 28.7143 4.98068 28.9043 4.96072 29.1006C4.91042 29.5309 4.88807 29.9628 4.88807 30.3931C4.88807 30.8234 4.91043 31.2553 4.95353 31.6848C4.97269 31.8732 5.01022 32.0545 5.03337 32.2437C5.0677 32.4832 5.09244 32.7171 5.13954 32.9502V32.9566C5.46536 34.5412 6.09135 36.049 6.98368 37.3984C6.99086 37.4112 6.99246 37.4256 7.00044 37.4376C7.00842 37.4495 7.02679 37.4711 7.03876 37.4894C7.15851 37.6683 7.29263 37.8359 7.42116 38.0084C7.54969 38.1808 7.66066 38.35 7.79717 38.5113C7.84826 38.5728 7.90574 38.6279 7.95683 38.6885C8.37256 39.1745 8.82461 39.6283 9.3092 40.0457C9.38903 40.1143 9.46008 40.1894 9.54071 40.2556C9.6876 40.377 9.84727 40.4848 10.0005 40.5997C10.1874 40.7402 10.371 40.8855 10.5658 41.0157C10.5817 41.0268 10.5961 41.0396 10.6129 41.05C10.6296 41.0604 10.636 41.0588 10.6472 41.0651C12.0021 41.9591 13.516 42.5849 15.1066 42.9085C15.2663 42.9396 15.426 42.954 15.58 42.9795C15.8419 43.0234 16.1029 43.0721 16.3704 43.0993C17.2282 43.1866 18.0928 43.1866 18.9506 43.0993C19.218 43.0721 19.4791 43.0234 19.7409 42.9795C19.9006 42.954 20.0602 42.9396 20.2143 42.9085C21.8012 42.5825 23.3109 41.9554 24.6618 41.0612C24.673 41.0548 24.6865 41.0532 24.6969 41.046C24.7073 41.0388 24.728 41.0228 24.744 41.0117C24.9388 40.8815 25.1224 40.7362 25.3092 40.5957C25.4625 40.4808 25.6222 40.373 25.7691 40.2517C25.8489 40.1854 25.9223 40.1104 26.0006 40.0417C26.4852 39.6243 26.9372 39.1705 27.3529 38.6845C27.4048 38.6239 27.4623 38.5688 27.5126 38.5073C27.6451 38.3476 27.7633 38.172 27.8886 38.0044C28.014 37.8367 28.1513 37.6643 28.271 37.4855C28.283 37.4671 28.2974 37.4511 28.3093 37.4336C28.3213 37.416 28.3189 37.4072 28.3261 37.3944C28.4195 37.2531 28.5033 37.1047 28.5911 36.9586C29.6933 37.3574 30.4294 38.4017 30.4345 39.5739V39.9323C27.431 43.9722 22.6952 46.355 17.6613 46.3596C8.83619 46.3666 1.67631 39.2181 1.66932 30.393C1.66234 21.5679 8.81084 14.4081 17.6359 14.4011C26.461 14.3941 33.6209 21.5426 33.6279 30.3677C33.6301 33.0162 32.9738 35.6237 31.7182 37.9557ZM25.3699 33.5864H28.3668C28.2005 34.1357 27.9915 34.6712 27.7417 35.1879C27.7074 35.1871 27.6747 35.1831 27.6403 35.1831C27.4316 35.1846 27.2232 35.2011 27.0168 35.2326L25.3699 33.5864ZM26.6001 37.0735C26.5626 37.1246 26.5251 37.1757 26.4868 37.2252C26.2147 37.5809 25.9215 37.9196 25.6086 38.2399L25.5096 38.3389C25.3388 38.5073 25.1472 38.6526 24.966 38.8091C25.1936 38.0047 25.7695 37.3445 26.5355 37.0097L26.6001 37.0735ZM23.4427 31.9898C23.0019 31.9899 22.6445 32.3473 22.6446 32.7883C22.6446 33 22.7287 33.2028 22.8783 33.3525L25.3571 35.8273C24.4072 36.408 23.7126 37.3272 23.4132 38.3995L20.6191 35.6054C20.3064 35.2946 19.8009 35.2961 19.49 35.6088C19.3405 35.7593 19.2568 35.9633 19.2579 36.1754V41.4444C19.1589 41.4563 19.0615 41.4755 18.9617 41.4899C18.8651 41.501 18.7686 41.5122 18.6712 41.521C18.3462 41.5505 18.0189 41.5697 17.6868 41.5705H17.6357C17.3036 41.5705 16.9763 41.5505 16.6514 41.521C16.554 41.5122 16.4574 41.501 16.3608 41.4899C16.2642 41.4787 16.1636 41.4587 16.0646 41.4444V36.1754C16.0645 35.7345 15.7071 35.3772 15.2661 35.3773C15.0544 35.3773 14.8516 35.4614 14.7019 35.611L10.9809 39.3344C10.9322 39.2977 10.8827 39.2625 10.8348 39.225C10.4765 38.9514 10.1354 38.6563 9.81294 38.3413L9.71395 38.2423C9.401 37.922 9.10782 37.5833 8.83579 37.2276C8.79747 37.1781 8.75596 37.127 8.72243 37.0759L12.4442 33.3549C12.7573 33.0445 12.7594 32.5389 12.4488 32.2259C12.2983 32.0742 12.0934 31.9892 11.8798 31.9898H6.61086C6.59649 31.89 6.57653 31.7926 6.56535 31.6928C6.55418 31.593 6.543 31.5012 6.53422 31.4054C6.50548 31.0709 6.48472 30.7348 6.48472 30.3931C6.48472 30.0515 6.50548 29.7154 6.53582 29.3817C6.5446 29.2851 6.55577 29.1893 6.56695 29.0935C6.57813 28.9977 6.59808 28.8955 6.61245 28.7965H11.8814C12.3223 28.7964 12.6796 28.4389 12.6795 27.998C12.6795 27.7863 12.5954 27.5834 12.4458 27.4337L8.72003 23.7127C8.75755 23.6617 8.79508 23.6106 8.8334 23.5611C9.10542 23.2054 9.39861 22.8666 9.71155 22.5464L9.81054 22.4474C10.133 22.1324 10.4742 21.8373 10.8324 21.5637C10.8803 21.5261 10.9298 21.491 10.9785 21.4543L14.6995 25.1753C15.0099 25.4883 15.5155 25.4904 15.8285 25.18C15.9802 25.0295 16.0652 24.8245 16.0646 24.6109V19.3419C16.1636 19.3275 16.261 19.3084 16.3608 19.2964C16.4606 19.2844 16.554 19.2741 16.6514 19.2653C16.9763 19.2357 17.3036 19.2166 17.6357 19.2158H17.6868C18.0189 19.2158 18.3462 19.2357 18.6712 19.2653C18.7686 19.2741 18.8651 19.2852 18.9617 19.2964C19.0583 19.3076 19.1589 19.3275 19.2579 19.3419V24.6109C19.258 25.0517 19.6155 25.4091 20.0564 25.409C20.2681 25.409 20.471 25.3249 20.6207 25.1753L24.3417 21.4519C24.3904 21.4886 24.4399 21.5237 24.4878 21.5613C24.846 21.8349 25.1872 22.13 25.5096 22.445L25.6086 22.544C25.9215 22.8642 26.2147 23.203 26.4868 23.5587C26.5251 23.6082 26.5626 23.6593 26.6001 23.7104L22.8783 27.4314C22.5653 27.7418 22.5632 28.2473 22.8737 28.5604C23.0242 28.7121 23.2292 28.7971 23.4428 28.7965H28.7118C28.7262 28.8955 28.7461 28.9937 28.7573 29.0935C28.7685 29.1933 28.7797 29.2851 28.7884 29.3817C28.8188 29.7154 28.8395 30.0515 28.8395 30.3931C28.8395 30.7348 28.8188 31.0709 28.7884 31.4054C28.7797 31.5012 28.7685 31.597 28.7573 31.6928C28.7461 31.7886 28.7262 31.89 28.7118 31.9898H23.4427ZM22.9749 40.2229C22.3004 40.5877 21.5898 40.8812 20.8546 41.0987V38.1026L22.9749 40.2229ZM14.468 38.1026V41.0987C13.7332 40.8813 13.0232 40.5882 12.3492 40.2237L14.468 38.1026ZM7.8315 35.7068C7.46686 35.0323 7.17338 34.3217 6.95573 33.5864H9.95265L7.8315 35.7068ZM6.95573 27.1998C7.17338 26.4646 7.46686 25.754 7.8315 25.0795L9.95265 27.1998H6.95573ZM12.3476 20.5634C13.0221 20.1986 13.7327 19.905 14.468 19.6876V22.6837L12.3476 20.5634ZM20.8546 22.6837V19.6876C21.5898 19.905 22.3004 20.1986 22.9749 20.5634L20.8546 22.6837ZM27.4911 25.0795C27.8557 25.754 28.1492 26.4646 28.3668 27.1998H25.3699L27.4911 25.0795ZM39.2161 25.6032H37.6194V24.0065H39.2161V25.6032ZM39.2161 22.4099H37.6194V19.2166H39.2161V22.4099ZM38.4177 17.6199C34.0107 17.615 30.4394 14.0437 30.4345 9.63668C30.4345 5.22763 34.0087 1.65343 38.4177 1.65343C42.8268 1.65343 46.401 5.22763 46.401 9.63668C46.401 14.0457 42.8268 17.6199 38.4177 17.6199Z" fill="black"/>
</svg>
