<svg width="48" height="48" viewBox="0 0 48 48" fill="none" xmlns="http://www.w3.org/2000/svg">
<path fill-rule="evenodd" clip-rule="evenodd" d="M24 35.4C29.7438 35.4 34.4 30.7438 34.4 25C34.4 19.2562 29.7438 14.6 24 14.6C18.2562 14.6 13.6 19.2562 13.6 25C13.6 30.7438 18.2562 35.4 24 35.4ZM24 37C30.6274 37 36 31.6274 36 25C36 18.3726 30.6274 13 24 13C17.3726 13 12 18.3726 12 25C12 31.6274 17.3726 37 24 37Z" fill="black"/>
<path fill-rule="evenodd" clip-rule="evenodd" d="M26.9 25C26.9 26.6016 25.6016 27.9 24 27.9C22.3984 27.9 21.1 26.6016 21.1 25C21.1 23.3984 22.3984 22.1 24 22.1C25.6016 22.1 26.9 23.3984 26.9 25ZM25.3 25C25.3 25.718 24.718 26.3 24 26.3C23.282 26.3 22.7 25.718 22.7 25C22.7 24.282 23.282 23.7 24 23.7C24.718 23.7 25.3 24.282 25.3 25Z" fill="black"/>
<path fill-rule="evenodd" clip-rule="evenodd" d="M24 37C30.6274 37 36 31.6274 36 25C36 18.3726 30.6274 13 24 13C17.3726 13 12 18.3726 12 25C12 31.6274 17.3726 37 24 37ZM24 35.4C24.3924 35.4 24.7798 35.3783 25.1609 35.3359V29.1285C25.893 28.9211 26.5455 28.5236 27.0617 27.9925L32.4273 31.0955C32.8644 30.4923 33.2383 29.8403 33.5393 29.1492L28.1508 26.0329C28.2324 25.7021 28.2757 25.3561 28.2757 25C28.2757 24.6133 28.2247 24.2386 28.1289 23.8822L33.5051 20.7731C33.1985 20.0847 32.8193 19.4357 32.3773 18.8359L27.0002 21.9455C26.4941 21.4455 25.8643 21.0707 25.1609 20.8715V14.6641C24.7798 14.6217 24.3924 14.6 24 14.6C23.636 14.6 23.2764 14.6187 22.9221 14.6552V20.8451C22.1963 21.0322 21.545 21.4051 21.0217 21.9101L15.6477 18.8023C15.2031 19.4003 14.8213 20.0478 14.512 20.7349L19.8701 23.8336C19.7657 24.2044 19.7099 24.5957 19.7099 25C19.7099 25.3738 19.7576 25.7364 19.8473 26.0821L14.4775 29.1876C14.7812 29.8773 15.1577 30.5278 15.5973 31.1294L20.9593 28.0285C21.4929 28.5647 22.1672 28.9603 22.9221 29.1549V35.3448C23.2764 35.3813 23.636 35.4 24 35.4ZM21.3647 29.5953V35.0632C19.5428 34.5874 17.9156 33.63 16.6273 32.335L21.3647 29.5953ZM18.688 24.9512L13.9514 27.6905C13.7222 26.8323 13.6 25.9304 13.6 25C13.6 24.0391 13.7303 23.1086 13.9743 22.2253L18.688 24.9512ZM21.3647 20.3072L16.6892 17.6033C17.9676 16.3396 19.5719 15.405 21.3647 14.9368V20.3072ZM26.7183 29.5953V35.0412C28.5209 34.5544 30.1294 33.5951 31.403 32.3045L26.7183 29.5953ZM34.4 25C34.4 25.9154 34.2817 26.8031 34.0597 27.6488L29.3952 24.9512L34.0371 22.2668C34.2737 23.1377 34.4 24.0541 34.4 25ZM26.7183 14.9588C28.4919 15.4378 30.0778 16.3742 31.3414 17.6336L26.7183 20.3072V14.9588Z" fill="black"/>
<circle cx="24.0004" cy="25" r="13.8" stroke="black" stroke-width="1.6"/>
<mask id="path-3-inside-1_4263:5319" fill="white">
<path fill-rule="evenodd" clip-rule="evenodd" d="M38.4357 21.15C37.3748 14.1304 31.3159 8.74997 24.0004 8.74997C16.6848 8.74997 10.6259 14.1304 9.56506 21.15C9.45661 20.4324 9.40039 19.6978 9.40039 18.95C9.40039 10.8866 15.937 4.34995 24.0004 4.34995C32.0637 4.34995 38.6004 10.8866 38.6004 18.95C38.6004 19.6978 38.5442 20.4324 38.4357 21.15Z"/>
</mask>
<path d="M38.4357 21.15L36.8537 21.3891L40.0178 21.3891L38.4357 21.15ZM9.56506 21.15L7.98302 21.3891L11.1471 21.3891L9.56506 21.15ZM24.0004 10.35C30.5128 10.35 35.9093 15.1402 36.8537 21.3891L40.0178 20.9109C38.8404 13.1206 32.1191 7.14997 24.0004 7.14997L24.0004 10.35ZM11.1471 21.3891C12.0915 15.1402 17.488 10.35 24.0004 10.35L24.0004 7.14997C15.8817 7.14997 9.16039 13.1206 7.98302 20.9109L11.1471 21.3891ZM11.1471 20.9109C11.0506 20.2722 11.0004 19.6174 11.0004 18.95L7.80039 18.95C7.80039 19.7781 7.86266 20.5927 7.98302 21.3891L11.1471 20.9109ZM11.0004 18.95C11.0004 11.7703 16.8207 5.94995 24.0004 5.94995L24.0004 2.74995C15.0534 2.74995 7.80039 10.0029 7.80039 18.95L11.0004 18.95ZM24.0004 5.94995C31.1801 5.94995 37.0004 11.7703 37.0004 18.95L40.2004 18.95C40.2004 10.0029 32.9474 2.74995 24.0004 2.74995L24.0004 5.94995ZM37.0004 18.95C37.0004 19.6174 36.9502 20.2722 36.8537 20.9109L40.0178 21.3891C40.1381 20.5926 40.2004 19.7781 40.2004 18.95L37.0004 18.95Z" fill="black" mask="url(#path-3-inside-1_4263:5319)"/>
</svg>
