<svg width="49" height="48" viewBox="0 0 49 48" fill="none" xmlns="http://www.w3.org/2000/svg">
<path fill-rule="evenodd" clip-rule="evenodd" d="M24.7501 39.3C33.2001 39.3 40.0501 32.45 40.0501 24C40.0501 15.55 33.2001 8.70001 24.7501 8.70001C16.3001 8.70001 9.4501 15.55 9.4501 24C9.4501 32.45 16.3001 39.3 24.7501 39.3ZM24.7501 40.9C34.0837 40.9 41.6501 33.3336 41.6501 24C41.6501 14.6664 34.0837 7.10001 24.7501 7.10001C15.4165 7.10001 7.8501 14.6664 7.8501 24C7.8501 33.3336 15.4165 40.9 24.7501 40.9Z" fill="black"/>
<path fill-rule="evenodd" clip-rule="evenodd" d="M24.7501 34.4C30.4939 34.4 35.1501 29.7438 35.1501 24C35.1501 18.2562 30.4939 13.6 24.7501 13.6C19.0063 13.6 14.3501 18.2562 14.3501 24C14.3501 29.7438 19.0063 34.4 24.7501 34.4ZM24.7501 36C31.3775 36 36.7501 30.6274 36.7501 24C36.7501 17.3726 31.3775 12 24.7501 12C18.1227 12 12.7501 17.3726 12.7501 24C12.7501 30.6274 18.1227 36 24.7501 36Z" fill="black"/>
<path fill-rule="evenodd" clip-rule="evenodd" d="M27.6501 24C27.6501 25.6016 26.3517 26.9 24.7501 26.9C23.1485 26.9 21.8501 25.6016 21.8501 24C21.8501 22.3984 23.1485 21.1 24.7501 21.1C26.3517 21.1 27.6501 22.3984 27.6501 24ZM26.0501 24C26.0501 24.718 25.4681 25.3 24.7501 25.3C24.0321 25.3 23.4501 24.718 23.4501 24C23.4501 23.282 24.0321 22.7 24.7501 22.7C25.4681 22.7 26.0501 23.282 26.0501 24Z" fill="black"/>
<path fill-rule="evenodd" clip-rule="evenodd" d="M24.7501 36C31.3775 36 36.7501 30.6274 36.7501 24C36.7501 17.3726 31.3775 12 24.7501 12C18.1227 12 12.7501 17.3726 12.7501 24C12.7501 30.6274 18.1227 36 24.7501 36ZM24.7501 34.4C25.1425 34.4 25.5299 34.3783 25.911 34.3359V28.1285C26.6431 27.9211 27.2956 27.5236 27.8118 26.9925L33.1774 30.0955C33.6145 29.4923 33.9884 28.8403 34.2894 28.1492L28.9009 25.0329C28.9825 24.7021 29.0258 24.3561 29.0258 24C29.0258 23.6133 28.9748 23.2386 28.879 22.8822L34.2552 19.7731C33.9486 19.0847 33.5694 18.4357 33.1274 17.8359L27.7503 20.9455C27.2442 20.4455 26.6144 20.0708 25.911 19.8715V13.6641C25.5299 13.6217 25.1425 13.6 24.7501 13.6C24.3861 13.6 24.0265 13.6187 23.6722 13.6552V19.8451C22.9464 20.0322 22.2951 20.4051 21.7718 20.9101L16.3978 17.8023C15.9532 18.4003 15.5714 19.0478 15.2621 19.7349L20.6202 22.8336C20.5158 23.2044 20.46 23.5957 20.46 24C20.46 24.3738 20.5077 24.7364 20.5974 25.0821L15.2276 28.1876C15.5313 28.8773 15.9078 29.5278 16.3474 30.1294L21.7094 27.0285C22.243 27.5647 22.9173 27.9603 23.6722 28.1549V34.3448C24.0265 34.3813 24.3861 34.4 24.7501 34.4ZM22.1148 28.5953V34.0632C20.2929 33.5874 18.6657 32.63 17.3774 31.335L22.1148 28.5953ZM19.4381 23.9513L14.7015 26.6905C14.4723 25.8323 14.3501 24.9304 14.3501 24C14.3501 23.0391 14.4804 22.1086 14.7244 21.2253L19.4381 23.9513ZM22.1148 19.3072L17.4393 16.6033C18.7177 15.3396 20.322 14.405 22.1148 13.9368V19.3072ZM27.4684 28.5953V34.0412C29.271 33.5544 30.8795 32.5951 32.1531 31.3045L27.4684 28.5953ZM35.1501 24C35.1501 24.9154 35.0318 25.8031 34.8098 26.6488L30.1453 23.9513L34.7872 21.2668C35.0238 22.1377 35.1501 23.0541 35.1501 24ZM27.4684 13.9589C29.242 14.4378 30.8279 15.3742 32.0915 16.6336L27.4684 19.3072V13.9589Z" fill="black"/>
<path d="M24.651 2.30024C24.4983 2.33597 24.3662 2.45579 24.3513 2.6597L24.143 5.50978C24.3445 5.50329 24.5468 5.50002 24.7498 5.50002C24.9531 5.50002 25.1557 5.5033 25.3574 5.50981L25.1492 2.6597C25.1343 2.4558 25.0021 2.33598 24.8494 2.30024C24.8162 2.30009 24.783 2.30002 24.7498 2.30002C24.7169 2.30002 24.6839 2.30009 24.651 2.30024Z" fill="black"/>
<path d="M30.2977 3.01569C30.1325 2.99996 29.9592 3.07939 29.8882 3.2836L28.9506 5.97903C29.3465 6.07095 29.7375 6.17558 30.1232 6.29246L30.6588 3.49011C30.6995 3.27751 30.5888 3.12193 30.4376 3.05307C30.391 3.04046 30.3444 3.028 30.2977 3.01569Z" fill="black"/>
<path d="M35.5304 5.16312C35.3768 5.1099 35.1939 5.14402 35.0749 5.31929L33.4713 7.68072C33.8288 7.87214 34.1792 8.07497 34.5221 8.28871L35.7659 5.71823C35.858 5.52785 35.7964 5.35266 35.674 5.24619C35.6262 5.21833 35.5784 5.19063 35.5304 5.16312Z" fill="black"/>
<path d="M40.023 8.58514C39.8899 8.50306 39.7123 8.49476 39.558 8.62804L37.3951 10.4964C37.6906 10.7732 37.977 11.0596 38.2538 11.3551L40.1222 9.19222C40.2555 9.03793 40.2472 8.86031 40.1651 8.7272C40.118 8.67964 40.0706 8.63226 40.023 8.58514Z" fill="black"/>
<path d="M43.5035 13.0757C43.397 12.9536 43.2221 12.8924 43.032 12.9844L40.4614 14.2282C40.6751 14.5711 40.878 14.9215 41.0694 15.279L43.4309 13.6753C43.6059 13.5565 43.6402 13.374 43.5873 13.2205C43.5596 13.1721 43.5316 13.1238 43.5035 13.0757Z" fill="black"/>
<path d="M45.6964 18.3111C45.6272 18.1607 45.472 18.0509 45.2601 18.0914L42.4575 18.6271C42.5744 19.0128 42.679 19.4038 42.7709 19.7997L45.4666 18.8621C45.6701 18.7913 45.7497 18.6189 45.7347 18.4542C45.7221 18.4064 45.7093 18.3587 45.6964 18.3111Z" fill="black"/>
<path d="M46.4496 23.8991C46.4133 23.7471 46.2937 23.6159 46.0905 23.6011L43.24 23.3928C43.2465 23.5944 43.2498 23.7968 43.2498 24C43.2498 24.2032 43.2465 24.4056 43.24 24.6072L46.0905 24.3989C46.2937 24.3841 46.4133 24.2529 46.4496 24.1009C46.4497 24.0673 46.4498 24.0337 46.4498 24C46.4498 23.9664 46.4497 23.9327 46.4496 23.8991Z" fill="black"/>
<path d="M45.7347 29.5458C45.7497 29.3811 45.6701 29.2087 45.4666 29.1379L42.7709 28.2003C42.679 28.5962 42.5744 28.9872 42.4575 29.3729L45.2601 29.9086C45.472 29.9491 45.6273 29.8393 45.6965 29.6889C45.7094 29.6413 45.7221 29.5936 45.7347 29.5458Z" fill="black"/>
<path d="M43.5873 34.7795C43.6402 34.6261 43.6059 34.4435 43.4309 34.3247L41.0694 32.721C40.878 33.0785 40.6751 33.4289 40.4614 33.7718L43.032 35.0156C43.2221 35.1076 43.3971 35.0464 43.5036 34.9243C43.5317 34.8762 43.5596 34.8279 43.5873 34.7795Z" fill="black"/>
<path d="M40.1651 39.2729C40.2472 39.1398 40.2555 38.9621 40.1222 38.8078L38.2539 36.6449C37.977 36.9404 37.6906 37.2268 37.3951 37.5037L39.558 39.372C39.7123 39.5053 39.89 39.4969 40.0231 39.4148C40.0706 39.3677 40.118 39.3204 40.1651 39.2729Z" fill="black"/>
<path d="M35.6738 42.7539C35.7964 42.6475 35.858 42.4722 35.7659 42.2818L34.5221 39.7113C34.1792 39.9251 33.8288 40.1279 33.4713 40.3193L35.0749 42.6807C35.1939 42.856 35.3769 42.8901 35.5306 42.8368C35.5784 42.8094 35.6262 42.7817 35.6738 42.7539Z" fill="black"/>
<path d="M30.4374 44.947C30.5887 44.8782 30.6995 44.7226 30.6588 44.5099L30.1232 41.7076C29.7375 41.8245 29.3465 41.9291 28.9506 42.021L29.8882 44.7164C29.9592 44.9207 30.1327 45.0001 30.2979 44.9843C30.3445 44.972 30.391 44.9596 30.4374 44.947Z" fill="black"/>
<path d="M24.8493 45.6998C25.002 45.6641 25.1343 45.5443 25.1492 45.3403L25.3574 42.4902C25.1557 42.4967 24.9531 42.5 24.7498 42.5C24.5468 42.5 24.3445 42.4967 24.143 42.4903L24.3513 45.3403C24.3662 45.5443 24.4984 45.6641 24.6512 45.6998C24.684 45.6999 24.7169 45.7 24.7498 45.7C24.783 45.7 24.8162 45.6999 24.8493 45.6998Z" fill="black"/>
<path d="M19.2012 44.9842C19.3669 45.0005 19.541 44.9212 19.6123 44.7164L20.5498 42.0212C20.1539 41.9293 19.7629 41.8247 19.3772 41.7078L18.8416 44.5099C18.8008 44.7231 18.9123 44.879 19.0642 44.9476C19.1098 44.9599 19.1555 44.9721 19.2012 44.9842Z" fill="black"/>
<path d="M13.9678 42.8361C14.1218 42.8904 14.306 42.8568 14.4256 42.6807L16.0289 40.3196C15.6715 40.1282 15.3211 39.9254 14.9782 39.7117L13.7346 42.2818C13.642 42.4731 13.7046 42.6491 13.8283 42.7554C13.8747 42.7825 13.9212 42.8094 13.9678 42.8361Z" fill="black"/>
<path d="M9.47511 39.4134C9.60848 39.4968 9.78725 39.506 9.94244 39.372L12.1049 37.504C11.8094 37.2272 11.523 36.9408 11.2462 36.6454L9.37825 38.8078C9.2442 38.963 9.25338 39.1418 9.33678 39.2751C9.38268 39.3214 9.4288 39.3675 9.47511 39.4134Z" fill="black"/>
<path d="M5.99432 34.9213C6.10058 35.0454 6.27681 35.1084 6.46844 35.0156L9.03839 33.7721C8.82467 33.4292 8.62186 33.0788 8.43045 32.7214L6.0695 34.3247C5.89309 34.4445 5.85967 34.629 5.91439 34.7832C5.94086 34.8294 5.96751 34.8754 5.99432 34.9213Z" fill="black"/>
<path d="M3.80192 29.6844C3.87008 29.8371 4.02631 29.9495 4.24032 29.9086L7.04215 29.3731C6.92528 28.9874 6.82066 28.5964 6.72876 28.2006L4.03382 29.1379C3.82826 29.2094 3.74912 29.3846 3.76623 29.5508C3.77799 29.5954 3.78989 29.6399 3.80192 29.6844Z" fill="black"/>
<path d="M3.05002 24.0973C3.08521 24.2508 3.20517 24.384 3.40991 24.3989L6.25958 24.6072C6.25308 24.4056 6.2498 24.2032 6.2498 24C6.2498 23.7968 6.25308 23.5944 6.25958 23.3928L3.40991 23.6011C3.20517 23.616 3.08521 23.7492 3.05002 23.9027C3.04988 23.9351 3.0498 23.9676 3.0498 24C3.0498 24.0325 3.04988 24.0649 3.05002 24.0973Z" fill="black"/>
<path d="M3.76623 18.4492C3.74914 18.6154 3.82827 18.7906 4.03382 18.8621L6.72876 19.7994C6.82067 19.4036 6.92529 19.0126 7.04216 18.6269L4.24032 18.0914C4.02633 18.0505 3.87011 18.1629 3.80194 18.3156C3.7899 18.3601 3.77799 18.4046 3.76623 18.4492Z" fill="black"/>
<path d="M5.91436 13.2169C5.85968 13.3711 5.89312 13.5556 6.0695 13.6753L8.43046 15.2786C8.62187 14.9212 8.82468 14.5708 9.0384 14.2279L6.46844 12.9844C6.27685 12.8917 6.10064 12.9546 5.99437 13.0786C5.96754 13.1246 5.94087 13.1707 5.91436 13.2169Z" fill="black"/>
<path d="M9.33673 8.72497C9.25337 8.85833 9.24423 9.03707 9.37825 9.19222L11.2462 11.3547C11.523 11.0592 11.8094 10.7728 12.1049 10.496L9.94244 8.62804C9.78728 8.49402 9.60855 8.50316 9.47519 8.58651C9.42883 8.63246 9.38268 8.67861 9.33673 8.72497Z" fill="black"/>
<path d="M13.8282 5.24472C13.7046 5.35104 13.642 5.52697 13.7346 5.71823L14.9782 8.28831C15.3211 8.0746 15.6715 7.87179 16.0289 7.68039L14.4256 5.31929C14.306 5.14322 14.122 5.10959 13.9679 5.16386C13.9212 5.19064 13.8746 5.2176 13.8282 5.24472Z" fill="black"/>
<path d="M19.0641 3.05252C18.9123 3.12109 18.8009 3.27694 18.8416 3.49011L19.3772 6.29222C19.7629 6.17536 20.1539 6.07075 20.5498 5.97885L19.6123 3.2836C19.5411 3.07886 19.367 2.99954 19.2014 3.01581C19.1556 3.0279 19.1098 3.04014 19.0641 3.05252Z" fill="black"/>
</svg>
