<svg width="49" height="48" viewBox="0 0 49 48" fill="none" xmlns="http://www.w3.org/2000/svg">
<path d="M33.5502 0H15.9502C13.7422 0.0026 11.9528 1.792 11.9502 4V44C11.9528 46.208 13.7422 47.9974 15.9502 48H33.5502C35.7582 47.9974 37.5476 46.208 37.5502 44V4C37.5476 1.792 35.7582 0.0026 33.5502 0ZM35.9502 44C35.9502 45.3255 34.8757 46.4 33.5502 46.4H15.9502C14.6247 46.4 13.5502 45.3255 13.5502 44V41.6H35.9502V44ZM16.7502 40V38.4H19.9502V40H16.7502ZM35.9502 40H21.5502V37.6C21.5502 37.1582 21.192 36.8 20.7502 36.8H15.9502C15.5084 36.8 15.1502 37.1582 15.1502 37.6V40H13.5502V8H35.9502V40ZM35.9502 6.4H13.5502V4C13.5502 2.6745 14.6247 1.6 15.9502 1.6H33.5502C34.8757 1.6 35.9502 2.6745 35.9502 4V6.4Z" fill="black"/>
<path d="M29.5502 3.20001H19.9502V4.80001H29.5502V3.20001Z" fill="black"/>
<path d="M25.5502 43.2H23.9502V44.8H25.5502V43.2Z" fill="black"/>
<path d="M30.2136 11.2H34.3504V9.59999H30.2136C29.5765 9.59799 28.9651 9.85119 28.516 10.3032L23.5864 15.2328L18.752 15.7128C16.7033 15.9119 15.1428 17.6377 15.1504 19.696V23.2C15.1504 23.6418 15.5086 24 15.9504 24H18.4304C18.87 26.165 20.9814 27.5636 23.1464 27.124C24.7205 26.8044 25.9508 25.5741 26.2704 24H34.3504V22.4H26.2704C26.2704 22.3856 26.2608 22.3728 26.2576 22.3584C26.2082 22.1306 26.1389 21.9076 26.0504 21.692C26.0192 21.616 25.9776 21.5464 25.9416 21.4728C25.873 21.3258 25.7955 21.1832 25.7096 21.0456C25.6584 20.9656 25.6008 20.8944 25.544 20.8192C25.4562 20.6992 25.3617 20.5844 25.2608 20.4752C25.1936 20.404 25.124 20.3376 25.052 20.2712C24.9448 20.1722 24.8321 20.0792 24.7144 19.9928C24.6344 19.9344 24.5544 19.8784 24.4744 19.8256C24.3468 19.7468 24.2148 19.6752 24.0792 19.6112C23.9944 19.5696 23.9112 19.5264 23.8232 19.4912C23.6677 19.4323 23.5087 19.3829 23.3472 19.3432C23.2672 19.3224 23.192 19.2952 23.1072 19.2792C22.6057 19.1768 22.0887 19.1768 21.5872 19.2792C21.5072 19.2952 21.4272 19.3224 21.3472 19.3432C21.1857 19.3828 21.0267 19.4323 20.8712 19.4912C20.7832 19.5264 20.7 19.5712 20.6152 19.6112C20.4796 19.6752 20.3476 19.7468 20.22 19.8256C20.14 19.8784 20.06 19.9344 19.98 19.9928C19.8623 20.0792 19.7496 20.1722 19.6424 20.2712C19.5704 20.3376 19.5008 20.404 19.4336 20.4752C19.3327 20.5844 19.2382 20.6992 19.1504 20.8192C19.0936 20.8944 19.036 20.9664 18.9848 21.0456C18.8989 21.1832 18.8214 21.3258 18.7528 21.4728C18.7168 21.5464 18.6728 21.616 18.644 21.692C18.5555 21.9076 18.4862 22.1306 18.4368 22.3584C18.4368 22.3728 18.4272 22.3856 18.424 22.4H16.7504V19.696C16.747 18.4621 17.6824 17.428 18.9104 17.308L23.9912 16.8H34.3504V15.2H25.8816L29.6472 11.4344C29.7974 11.2842 30.0012 11.1998 30.2136 11.2ZM22.3504 20.8C23.6759 20.8 24.7504 21.8745 24.7504 23.2C24.7504 24.5255 23.6759 25.6 22.3504 25.6C21.0249 25.6 19.9504 24.5255 19.9504 23.2C19.9504 21.8745 21.0249 20.8 22.3504 20.8Z" fill="black"/>
<path d="M34.3499 18.4H31.1499V20H34.3499V18.4Z" fill="black"/>
<path d="M23.1498 22.4H21.5498V24H23.1498V22.4Z" fill="black"/>
<path d="M22.3499 9.59998H15.1499V11.2H22.3499V9.59998Z" fill="black"/>
<path d="M19.1499 12.8H15.1499V14.4H19.1499V12.8Z" fill="black"/>
<path d="M20.7499 28.8H15.9499C15.5081 28.8 15.1499 29.1582 15.1499 29.6V34.4C15.1499 34.8418 15.5081 35.2 15.9499 35.2H20.7499C21.1917 35.2 21.5499 34.8418 21.5499 34.4V29.6C21.5499 29.1582 21.1917 28.8 20.7499 28.8ZM19.9499 33.6H16.7499V30.4H19.9499V33.6Z" fill="black"/>
<path d="M28.7499 28.8H23.1499V30.4H28.7499V28.8Z" fill="black"/>
<path d="M34.3499 32H23.1499V33.6H34.3499V32Z" fill="black"/>
<path d="M34.3501 28.8H30.3501V30.4H34.3501V28.8Z" fill="black"/>
<path d="M28.7499 36.8H23.1499V38.4H28.7499V36.8Z" fill="black"/>
<path d="M34.3501 36.8H30.3501V38.4H34.3501V36.8Z" fill="black"/>
</svg>
