<svg width="49" height="48" viewBox="0 0 49 48" fill="none" xmlns="http://www.w3.org/2000/svg">
<path fill-rule="evenodd" clip-rule="evenodd" d="M20.9498 42C29.3998 42 36.2498 35.15 36.2498 26.7C36.2498 18.2501 29.3998 11.4 20.9498 11.4C12.4998 11.4 5.6498 18.2501 5.6498 26.7C5.6498 35.15 12.4998 42 20.9498 42ZM20.9498 43.6C30.2834 43.6 37.8498 36.0336 37.8498 26.7C37.8498 17.3664 30.2834 9.80002 20.9498 9.80002C11.6162 9.80002 4.0498 17.3664 4.0498 26.7C4.0498 36.0336 11.6162 43.6 20.9498 43.6Z" fill="black"/>
<path fill-rule="evenodd" clip-rule="evenodd" d="M20.9498 37.1C26.6936 37.1 31.3498 32.4438 31.3498 26.7C31.3498 20.9563 26.6936 16.3 20.9498 16.3C15.206 16.3 10.5498 20.9563 10.5498 26.7C10.5498 32.4438 15.206 37.1 20.9498 37.1ZM20.9498 38.7C27.5772 38.7 32.9498 33.3274 32.9498 26.7C32.9498 20.0726 27.5772 14.7 20.9498 14.7C14.3224 14.7 8.9498 20.0726 8.9498 26.7C8.9498 33.3274 14.3224 38.7 20.9498 38.7Z" fill="black"/>
<path fill-rule="evenodd" clip-rule="evenodd" d="M23.8498 26.7C23.8498 28.3016 22.5514 29.6 20.9498 29.6C19.3482 29.6 18.0498 28.3016 18.0498 26.7C18.0498 25.0984 19.3482 23.8 20.9498 23.8C22.5514 23.8 23.8498 25.0984 23.8498 26.7ZM22.2498 26.7C22.2498 27.418 21.6678 28 20.9498 28C20.2318 28 19.6498 27.418 19.6498 26.7C19.6498 25.982 20.2318 25.4 20.9498 25.4C21.6678 25.4 22.2498 25.982 22.2498 26.7Z" fill="black"/>
<path fill-rule="evenodd" clip-rule="evenodd" d="M20.9498 38.7C27.5772 38.7 32.9498 33.3274 32.9498 26.7C32.9498 20.0726 27.5772 14.7 20.9498 14.7C14.3224 14.7 8.9498 20.0726 8.9498 26.7C8.9498 33.3274 14.3224 38.7 20.9498 38.7ZM20.9498 37.1C21.3422 37.1 21.7296 37.0783 22.1107 37.036V30.8285C22.8428 30.6211 23.4953 30.2236 24.0115 29.6925L29.3771 32.7955C29.8142 32.1923 30.1881 31.5403 30.4891 30.8492L25.1006 27.733C25.1822 27.4021 25.2255 27.0561 25.2255 26.7C25.2255 26.3133 25.1745 25.9386 25.0787 25.5822L30.4549 22.4731C30.1483 21.7847 29.7691 21.1357 29.3271 20.5359L23.95 23.6455C23.4439 23.1455 22.8141 22.7708 22.1107 22.5715V16.3641C21.7296 16.3218 21.3422 16.3 20.9498 16.3C20.5858 16.3 20.2262 16.3187 19.8719 16.3552V22.5452C19.1461 22.7322 18.4948 23.1051 17.9715 23.6101L12.5975 20.5023C12.1529 21.1004 11.7711 21.7478 11.4618 22.4349L16.8199 25.5336C16.7155 25.9044 16.6597 26.2957 16.6597 26.7C16.6597 27.0738 16.7074 27.4365 16.7971 27.7821L11.4273 30.8876C11.731 31.5773 12.1075 32.2278 12.5471 32.8294L17.9091 29.7285C18.4427 30.2647 19.117 30.6603 19.8719 30.8549V37.0448C20.2262 37.0813 20.5858 37.1 20.9498 37.1ZM18.3145 31.2954V36.7632C16.4926 36.2874 14.8654 35.33 13.5771 34.0351L18.3145 31.2954ZM15.6378 26.6513L10.9012 29.3905C10.672 28.5323 10.5498 27.6304 10.5498 26.7C10.5498 25.7391 10.6801 24.8086 10.9241 23.9253L15.6378 26.6513ZM18.3145 22.0072L13.639 19.3033C14.9174 18.0396 16.5217 17.105 18.3145 16.6368V22.0072ZM23.6681 31.2953V36.7412C25.4707 36.2544 27.0793 35.2951 28.3528 34.0045L23.6681 31.2953ZM31.3498 26.7C31.3498 27.6154 31.2315 28.5031 31.0095 29.3488L26.345 26.6513L30.9869 23.9668C31.2235 24.8377 31.3498 25.7541 31.3498 26.7ZM23.6681 16.6589C25.4417 17.1379 27.0276 18.0742 28.2912 19.3336L23.6681 22.0072V16.6589Z" fill="black"/>
<path d="M36.7349 32.738C37.744 30.0999 38.0759 27.251 37.7001 24.4516C37.3243 21.6522 36.2529 18.9916 34.5838 16.7131C32.9147 14.4345 30.7011 12.6106 28.1453 11.4081C25.5896 10.2056 22.7732 9.66286 19.9536 9.82944L20.3218 16.0614C22.0998 15.9563 23.8759 16.2986 25.4875 17.0569C27.0992 17.8152 28.4951 18.9653 29.5477 20.4022C30.6002 21.8391 31.2758 23.5168 31.5128 25.2822C31.7498 27.0475 31.5405 28.844 30.9042 30.5076L36.7349 32.738Z" fill="black"/>
<path fill-rule="evenodd" clip-rule="evenodd" d="M40.85 16.5C43.0591 16.5 44.85 14.7091 44.85 12.5C44.85 12.1194 44.6486 11.4086 44.1427 10.3928C43.6642 9.43178 43.0099 8.38435 42.3311 7.39602C41.8137 6.64267 41.2944 5.94148 40.85 5.3624C40.4056 5.94148 39.8863 6.64267 39.3689 7.39602C38.6901 8.38435 38.0358 9.43178 37.5573 10.3928C37.0514 11.4086 36.85 12.1194 36.85 12.5C36.85 14.7091 38.6409 16.5 40.85 16.5ZM39.826 4.07108C38.21 6.14526 35.25 10.2514 35.25 12.5C35.25 15.5928 37.7572 18.1 40.85 18.1C43.9428 18.1 46.45 15.5928 46.45 12.5C46.45 10.2514 43.49 6.14526 41.874 4.07108C41.2673 3.29231 40.85 2.79999 40.85 2.79999C40.85 2.79999 40.4327 3.29231 39.826 4.07108Z" fill="black"/>
</svg>
