<svg width="26" height="26" viewBox="0 0 26 26" fill="none" xmlns="http://www.w3.org/2000/svg">
<path d="M13 25C19.6274 25 25 19.6274 25 13C25 6.37258 19.6274 1 13 1C6.37258 1 1 6.37258 1 13C1 19.6274 6.37258 25 13 25Z" stroke="#99CEE9" stroke-width="2" stroke-linecap="round" stroke-linejoin="round"/>
<path d="M13 17C15.7614 17 18 14.7614 18 12C18 9.23858 15.7614 7 13 7C10.2386 7 8 9.23858 8 12C8 14.7614 10.2386 17 13 17Z" stroke="#99CEE9" stroke-width="2" stroke-linecap="round" stroke-linejoin="round"/>
<path d="M4.97461 21.9218C5.72787 20.4408 6.87626 19.1971 8.29265 18.3284C9.70903 17.4598 11.3382 17 12.9997 17C14.6613 17 16.2904 17.4598 17.7068 18.3284C19.1232 19.1971 20.2716 20.4407 21.0248 21.9217" stroke="#99CEE9" stroke-width="2" stroke-linecap="round" stroke-linejoin="round"/>
</svg>
