<svg width="49" height="48" viewBox="0 0 49 48" fill="none" xmlns="http://www.w3.org/2000/svg">
<circle cx="24.6667" cy="24" r="24" fill="#4680C2"/>
<path fill-rule="evenodd" clip-rule="evenodd" d="M37.9843 17.1797C38.1993 16.5143 37.9843 16.0303 37.0322 16.0303H33.8687C33.0702 16.0303 32.7016 16.4537 32.4867 16.9075C32.4867 16.9075 30.8588 20.7794 28.586 23.29C27.8489 24.016 27.5111 24.258 27.1119 24.258C26.8968 24.258 26.6205 24.016 26.6205 23.3506V17.1494C26.6205 16.363 26.3747 16 25.699 16H20.7235C20.2321 16 19.925 16.363 19.925 16.726C19.925 17.4823 21.0613 17.6637 21.1842 19.7811V24.379C21.1842 25.3773 21 25.5587 20.6007 25.5587C19.5257 25.5587 16.9151 21.6566 15.3487 17.21C15.0415 16.3327 14.7344 16 13.9359 16H10.7417C9.82032 16 9.66675 16.4235 9.66675 16.8773C9.66675 17.694 10.7417 21.8078 14.673 27.2527C17.2837 30.9733 21 32.9697 24.3477 32.9697C26.3747 32.9697 26.6205 32.516 26.6205 31.7598V28.9467C26.6205 28.0391 26.8047 27.888 27.4497 27.888C27.9104 27.888 28.7396 28.1299 30.6131 29.9146C32.763 32.032 33.1316 33 34.3294 33H37.4929C38.4143 33 38.8443 32.5463 38.5986 31.669C38.3221 30.7918 37.2779 29.5214 35.9265 28.0089C35.1894 27.162 34.0837 26.2243 33.7459 25.7704C33.2852 25.1655 33.408 24.9235 33.7459 24.379C33.7152 24.379 37.585 18.9947 37.9843 17.1797Z" fill="white"/>
</svg>
