<svg width="37" height="39" fill="none" xmlns="http://www.w3.org/2000/svg"><path d="M2.25 19.875h31.5m-2.25 9v3.375a1.125 1.125 0 01-1.125 1.125H27a1.125 1.125 0 01-1.125-1.125v-3.375m-15.75 0v3.375A1.125 1.125 0 019 33.375H5.625A1.125 1.125 0 014.5 32.25v-3.375m4.5-4.5h2.25m13.5 0H27" stroke="#fff" stroke-width="2" stroke-linecap="round" stroke-linejoin="round"/><path d="M31.5 19.875l-4.203-9.457a1.125 1.125 0 00-1.028-.668H9.73a1.125 1.125 0 00-1.028.668L4.5 19.875v9h27v-9z" stroke="#fff" stroke-width="2" stroke-linecap="round" stroke-linejoin="round"/><path d="M31.415 9.593c0-.593.113-.792.287-1.218.198-.475.554-.983 1.068-1.523.488-.534.798-.953.93-1.256.138-.303.207-.689.207-1.157 0-.428-.099-.778-.296-1.048-.198-.27-.511-.405-.94-.405-.712 0-1.46.253-2.244.761l-.93-1.977A5.976 5.976 0 0132.938.712c1.088 0 1.945.303 2.57.91.634.6.95 1.436.95 2.51 0 .752-.109 1.392-.326 1.919-.218.52-.67 1.15-1.355 1.888-.441.482-.725.854-.85 1.118-.02.043-.178.435-.178.536h-2.334zm-.464 3.302c0-.52.138-.92.415-1.196.283-.284.692-.425 1.226-.425.54 0 .95.145 1.226.435.277.283.415.679.415 1.186 0 .501-.141.897-.425 1.187-.283.29-.689.435-1.216.435s-.933-.142-1.216-.425c-.284-.284-.425-.683-.425-1.197z" fill="#fff"/></svg>