<svg width="49" height="48" fill="none" xmlns="http://www.w3.org/2000/svg"><path d="M.333 24c0-13.255 10.745-24 24-24s24 10.745 24 24-10.745 24-24 24-24-10.745-24-24z" fill="#F68634"/><path d="M26.93 29.44l3.586 3.463a1.769 1.769 0 010 2.566 1.926 1.926 0 01-2.657 0l-3.526-3.403-3.524 3.403a1.913 1.913 0 01-1.33.53 1.91 1.91 0 01-1.328-.53 1.77 1.77 0 01-.001-2.566l3.587-3.463a12.281 12.281 0 01-3.726-1.489c-.878-.534-1.142-1.654-.588-2.502.551-.85 1.711-1.105 2.59-.57 2.627 1.594 6.011 1.595 8.64 0 .879-.535 2.038-.28 2.591.57.553.847.289 1.968-.59 2.502a12.263 12.263 0 01-3.725 1.49z" fill="#fff"/><path fill-rule="evenodd" clip-rule="evenodd" d="M17.901 18.194c0 3.414 2.878 6.191 6.416 6.191 3.54 0 6.416-2.777 6.416-6.191 0-3.416-2.877-6.194-6.416-6.194-3.538 0-6.416 2.778-6.416 6.194zm9.073 0c0-1.415-1.192-2.564-2.657-2.564-1.464 0-2.657 1.15-2.657 2.564 0 1.413 1.193 2.563 2.657 2.563 1.465 0 2.657-1.15 2.657-2.563z" fill="#fff"/></svg>