<svg width="40" height="40" fill="none" xmlns="http://www.w3.org/2000/svg"><g clip-path="url(#clip0)"><path d="M0 4a4 4 0 014-4h32a4 4 0 014 4v32a4 4 0 01-4 4H4a4 4 0 01-4-4V4z" fill="#E0EB65"/><g clip-path="url(#clip1)"><g clip-path="url(#clip2)" fill-rule="evenodd" clip-rule="evenodd"><path d="M-3.649 21.973S-2.378 20.43.123 19.98c0 0-1.081-.854-1.253-2.139-.142-1.065.836-2.567.836-2.567s-.785-3.72 2.22-5.813c0 0 .337-1.288 2.307-1.584 1.969-.295 2.72.784 2.72.784s2.967.496 3.639 3.85c0 0 2.883 2.005 1.479 5.573 0 0 1.178-.254 2.247.114 0 0 1.278-.937 4.012-.282 0 0 1.66-1.657 4.303-.958 0 0 .687-1.304 2.443-1.762 0 0 .945-1.274 2.45-.998 0 0 .032-.705.759-1.472.726-.767 1.232-1.28 1.227-1.79-.004-.51-.128-1.673 1.626-1.908 1.504-.201 1.982.755 1.982.755s.9-.663 1.903-.797c1.002-.134 1.402.227 1.402.227s.789-.296 1.748.435c.959.733.572 1.423.572 1.423s.293.28.285.695c-.008.416-.07.68-.34 1.034-.271.356-.82.78-.82.78s-.323 1.159-.829 2.15c-.504.993-1.016 2.178-3.878 2.943 0 0-.12 2.44-1.496 3.357 0 0-.086 3.168-3.837 3.733 0 0-.763 3.355-4.553 3.862 0 0-.32.936-.97 1.564 0 0 .514 1.94-.598 3.397 0 0 .688 1.565-.436 4.362 0 0 1.475 1.014 1.651 4.243 0 0 3.47 1.385 4.294 5.643 0 0 .73.923.919 1.853 0 0 3.552 1.056 2.62 6.25 0 0 .935 1.98-.284 4.311 0 0 .145.363.147.618 0 0 1.848-1.204 3.709-1.357 1.861-.153 2.393.254 2.753.556.359.303.869.776.994 1.239 0 0 .175-.12.403.392.228.511.435 1.345.09 2.093-.347.747-.953.988-1.798 1.579-.846.592-3.137 2.301-5.038 4.054 0 0-1.19 1.116-1.455 1.279-.265.163-1.261.583-1.825.658-.564.075-1.796-.079-2.275-.556-.478-.478-.886-.902-.91-1.792-.022-.89-.14-2.723-.155-3.072-.015-.348-.339-1.58-1.17-2.553 0 0-2.9-.218-3.805-2.935 0 0-2.962-1.166-2.62-4.815l-.194-.483s-2.883-.826-3.651-2.988c0 0-1.64-.577-2.733-2.313 0 0-1.064 1.578-2.37 2.071 0 0-.685 3.217-4.287 4.178 0 0-1.51 2.306-4.172 2.662-2.036.273-3.552-.577-3.552-.577s-1.589.755-3.024.277c0 0 .086.403.165.998.08.596.654 4.408-3.104 4.911-2.068.277-3.942-.62-4.399-4.034-.457-3.414-.17-4.377-.322-5.506-.15-1.127-.32-1.2-.459-2.234-.138-1.033-.145-3.232 2.236-3.55 1.566-.21 1.575.331 1.982.277.407-.055.406-.533 1.006-1.06s1.19-1.115 2.975-1.354c.752-.101 1.02-.01 1.02-.01s.949-1.242 2.924-1.73c0 0-.17-1.03 1.198-3.444 0 0-.162-.967.132-2.346 0 0-.815-1.708-.676-3.385 0 0-.704-.734-.92-1.63 0 0-.36 1.355-.686 1.781 0 0 .54 1.65 1.796 3.172 0 0-.563 1.51-1.69 1.66-1.128.151-1.611-.357-1.611-.357s.017.125.13.492c.112.367.284.696.35 1.197.068.5-.087 2.913-2.086 2.511 0 0-.878 1.297-2.199.485 0 0-1.092.178-1.702-.569 0 0-1.609.118-2.335-3.386-.45-2.171 1.209-4.307 1.209-4.307l-.278-.887s-1.555-1.131-1.903-3.732c-.347-2.6 1.446-4.21 1.446-4.21s.473-1.945 2.262-3.11c0 0 1.252-4.301 6.355-4.133z" fill="#0651A7"/><path d="M.94 14.47s-.514-1.759.665-3.276C2.712 9.771 3.818 9.84 3.953 9.788c.136-.053.117-.2-.12-.21-.235-.011-.452-.046-.466-.15-.014-.105.396-.542 1.147-.643.752-.1 1.198.08 1.227.296.03.216-.101.17-.111.256-.01.087.082.138.21.142.129.004 1.093.066 1.743.469.648.402 1.664 1.159 1.834 2.432.036.272.09.35.023.401-.068.051-.256.076-.061.263s.415.242.675.441c.26.2 1.105.788 1.336 2.202.231 1.414-.212 2.548-.838 2.796 0 0 .1.109.235.324.135.216.231.46.162.574-.07.116-.196.281-.295.337-.099.055-.258.14-.244.245.014.104.45.025.693-.22.244-.245.327-.576.327-.576s.207-.048.46-.061c.253-.013 2.097-.217 3.685.697 1.59.914 2.695 1.871 2.824 2.832.042.314.213.482-.362.474-.575-.008-2.766.136-4.938.427-2.172.29-6.744 1.072-11.85 2.308 0 0-1.163-2.417-3.85-3.162 0 0 1.158-1.388 2.975-1.631.815-.109.96.02 1.266.086.306.065.573.157.635-.021.06-.178-.225-.247-.29-.259-.066-.012-.302-.193-.017-.444.286-.25.437-.228.078-.371-.36-.144-1.74-.618-1.972-2.352-.19-1.42.474-2.167.71-2.475.235-.308.744-.63 1.013-.688.269-.057.35-.409-.122-.281-.473.126-.589.182-.735.224z" fill="#fff"/><path d="M-8.523 25.898s.848-2.24 3.647-2.614C-2.078 22.91.38 24.75.787 27.798c.464 3.467-2.423 5.086-2.423 5.086s.548-1.306.37-2.643c-.33-2.464-2.726-5.12-6.067-4.672-.627.084-1.19.329-1.19.329z" fill="#fff"/><path d="M-8.03 31.806c2.631-.352 3.81 2.263 3.923 3.11.114.845-.269 1.566-.54 1.443s-.729-.445-1.128-.806c-.4-.36-.936-.8-1.04-.626-.105.173.046.345.236.574.19.23.823.91 1.214 1.209.39.298.635.457.71.542.075.086.247.414.351.719.105.305.293.758.536 1.14.242.382.838 1.26.838 1.26s-.177.342-.647.405c-.47.063-1.264-.629-1.6-1.476 0 0-.525-.344-.667.025-.142.37-.114 1.77-.108 2.055.007.286-.058.518.043.791.1.274.389 1 .391 1.255.002.255-.002 1.18-.471 1.243-.47.063-.673-.739-.734-.954-.06-.215-.565-1.838-.565-1.838l-.142-1.064a7.792 7.792 0 00-.268-1.048c-.048-.122-.054.548-.085 1.031-.031.483-.067.934-.012 1.34.054.408.21 1.09.362 1.515.152.425.339.624.236 1.052-.102.428-.233.637-.484.67-.25.034-.595-.398-.826-1.643-.23-1.244-.42-1.952-.354-2.408.067-.455.035-1.407-.09-1.39-.126.017-.234 1.115-.283 1.695-.05.581-.098.938-.008 1.372.09.435.54 2.128.446 2.14-.094.013-.489.161-.68-.546-.19-.708-.354-1.706-.46-2.01-.104-.305-.209-.61-.197-.995.013-.384.007-.67.205-1.334 0 0-.017-.604-.107-.56-.09.044-.215.54-.336 1.065-.12.526-.252 1.214-.201 1.59.05.376.28 1.142.313 1.392l.11.815s-.22.03-.366-.11c-.147-.14-.828-.942-1.012-2.32-.184-1.379.252-2.17.588-2.758.335-.587.652-1.075.84-1.579.188-.504.286-.962.482-1.404.196-.44.223-.476.413-.724.19-.249.376-.529.282-.516-.095.013-.528.103-.769.453-.24.351-.628.786-.696.986-.07.2-.188.504-.324.203-.136-.3-.164-.743-.214-1.119-.05-.376.17-3.498 2.895-3.862zm9.287-5.26s4.552-1.247 11.777-2.214c4.135-.553 7.326-1.49 7.829 2.268.145 1.086-.287 1.994-.58 2.331-.296.337-.586.716-2.323 1.076-1.737.36-5.156.86-7.328 1.15-2.172.291-10.553 1.2-10.553 1.2s2.168-1.906 1.178-5.812zM-.829 33.2s10.648-1.127 12.57-1.384c1.92-.257 7.701-.903 8.736-2.062 0 0 .496.53.658 1.74.213 1.587-.342 2.287-.661 2.682-.656.81-2.413 2.618-8.302 3.406-5.889.788-10.185.13-11.113-.128-.927-.258-2.304-.715-2.903-3.61l1.015-.644z" fill="#fff"/><path d="M-.592 37.506s1.066.665 2.756.907c1.69.24 5.007.563 10.186-.13 5.68-.76 8.268-3.02 8.268-3.02s.347 2.59-1.152 4.406c-1.67 2.022-6.462 2.862-7.882 3.052-4.553.61-9.253-.207-10.276-1.176-1.022-.968-1.69-1.516-1.9-4.04zm15.98-18.463s.52-.24.896-.29c.377-.05 2.097.102 3.303 1.173 1.207 1.072 2.683 2.575 3.102 5.707.42 3.133-1.209 4.626-1.209 4.626l-.49-1.125s.854-.922.613-2.718c-.33-2.464-2.485-3.324-2.485-3.324s.077-2.603-3.73-4.05z" fill="#fff"/><path d="M19.186 18.832s1.1-1.337 3.491-.595c0 0-.217.284-.094 1.203s.775 3.25 2.55 4.76c.864.735 1.53.944 1.53.944s-.197 2.661-3.474 3.27c0 0 .44-1.164.177-3.127-.263-1.963-1.682-5.259-4.18-6.455z" fill="#fff"/><path d="M24.994 16.481s-.29 1.017-.155 2.02a4.2 4.2 0 001.596 2.72c.9.687 1.872 1.28 3.943.875 0 0-.018 2.086-2.44 2.41-2.423.324-3.837-2.93-3.837-2.93s-.345-.677-.537-1.161c-.192-.485-.416-1.518-.124-2.195.293-.677.44-1.164 1.554-1.739z" fill="#fff"/><path d="M27.71 15.183s-.476-.064-.726-.03c-.251.033-.585.077-.955.808-.37.73-.57 1.139-.414 2.308.252 1.88 1.614 3.483 4.203 3.136 2.047-.274 2.294-1.922 2.063-2.699 0 0-.563.245-.855.444-.292.199-.593.335-.946.318-.353-.017-1.03-.31-1.099-.587-.069-.277.26-.194.364-.144.102.05.494.125.682.1.188-.025.57-.268.741-.418.172-.151.249-.288 1.356-.596 1.107-.308 2.897-.957 3.5-1.967.702-1.178.875-2.03 1.076-2.44.2-.409.25-.99-.289-.727-.538.264-.544.457-.8.937-.253.48-.99 1.408-1.17 1.496-.18.087-.297-.311-.215-.418.081-.107.659-.79.818-1.034.158-.244.417-.693.522-.867a1.115 1.115 0 01.884-.533c.506-.035.608.015.852.173 0 0 .637-.723.938-.858 0 0-.276-.634-.94-.353-.663.28-.894.47-1.33.784-.437.313-.959.702-1.212.959-.252.257-.477.479-.657.566-.18.088-.576-.018-.495-.125.082-.107 3.044-2.99 4.04-2.932 0 0-.134-.524-.9-.294-.766.23-2.16 1.246-3.635 2.623 0 0-.503-.189.213-.794.715-.606 2.085-1.81 2.593-2.07 0 0-.4-.36-1.861.633-1.169.794-1.234 1.026-1.234 1.026s-.543 1.189-.943 1.53c0 0 .071.532-.02.799-.093.267-.221.73-.221.73s-.33-.082-.34-.623c-.008-.54-.041-.792-.325-1.009 0 0 1.177-1.209 1.022-2.369-.155-1.159-1.098-.585-1.098-.585s.074 1.265-.663 2.192c-.737.928-1.05.97-1.328 1.517-.278.547-.409.756-.35 1.195.059.439.13.97.025 1.144-.104.174-.337.332-.402.564-.065.232-.126.495-.074.647.053.153-.132.433-.132.433s-.66-.167-.59-.59c.07-.425.14-.625.313-.999.172-.374.172-.937.014-1.001zM.017 41.186s.623.842 1.61 1.316c.99.473 3.734 1.923 11.477.696 0 0-.208 4.874-5.095 5.528-3.195.428-7.455-1.617-8.033-5.94-.126-.94.04-1.6.04-1.6zm14.269 1.79s5.043-1.153 5.92-3.184c0 0 1.459 1.145 1.434 3.572 0 0-.754-.155-2.039.017-1.284.171-4.024 1.144-5.094 2.913-1.07 1.77-1.48 2.526-1.13 4.902 0 0-1.18-.48-1.822-1.7 0 0 .422-.663.478-1.436 0 0 2.027-1.291 2.253-5.084z" fill="#fff"/><path d="M3.958 17.341s.03-.09.125-.336c.095-.246.108-.345.25-.38.141-.034.182.018.241.269 0 0 .357-.066.56-.136.204-.07 1.115-.404 1.724-.464.608-.06.882-.076 1.034-.053.152.022.26.029.331-.066.073-.095.19-.174.31-.063.122.111.273.46.195.584-.078.123-.373-.178-.717.273-.344.45-.668 1.046-1.17 1.113-.667.089-1.195-.52-1.554-.664-.36-.143-.803-.177-.913-.094-.11.082-.126.275-.293.297-.168.023-.19-.144-.123-.28z" fill="#0651A7"/><path d="M5.495 17.071s.646-.256 1.376-.354c.731-.098.965-.053.965-.053s-.091.064-.254.277c-.163.213-.438.696-.814.746-.251.034-.624-.213-.81-.338-.187-.123-.392-.287-.463-.278z" fill="#fff"/><path d="M5.264 13.574l.01.086.008.086.005.085v.084l.001.082-.004.081-.006.08-.008.077-.011.076-.013.074-.016.072-.017.07-.02.068-.021.064-.025.063-.025.06-.027.057-.029.054-.03.051-.032.047-.032.045-.035.04-.035.038-.035.034-.037.031-.038.027-.037.024-.039.02-.039.017-.038.014-.04.01-.043.007.054.401.073-.013.071-.019.071-.024.067-.03.064-.034.063-.038.06-.045.056-.046.054-.052.052-.055.048-.059.046-.061.042-.065.041-.067.037-.07.035-.073.033-.076.028-.077.027-.08.024-.082.022-.085.018-.086.016-.088.012-.089.01-.092.007-.092.004-.094.002-.096-.004-.096-.005-.097-.007-.098-.012-.1-.401.054zm-1.137-1.478l.043-.004h.042l.04.002.043.006.043.01.042.013.043.016.044.02.043.024.043.027.045.03.043.034.043.038.042.041.042.044.042.048.04.052.04.054.037.057.037.06.035.062.034.066.032.068.03.07.03.072.026.076.025.077.021.08.022.08.017.084.015.084.013.087.4-.054-.014-.099-.018-.096-.021-.096-.022-.094-.027-.091-.028-.09-.031-.087-.034-.086-.036-.083-.038-.081-.04-.078-.043-.076-.045-.073-.047-.07-.048-.067-.051-.065-.053-.06-.054-.058-.057-.054-.058-.052-.06-.047-.063-.044-.064-.04-.065-.035-.067-.03-.07-.027-.07-.02-.071-.018-.072-.01-.075-.005h-.074l-.074.007.053.401z" fill="#0651A7"/><path d="M3.42 13.82l-.01-.087-.007-.085-.005-.085-.002-.084v-.082l.004-.081.006-.08.008-.077.011-.076.013-.075.016-.071.018-.07.02-.068.02-.065.025-.062.025-.06.027-.057.029-.053.03-.052.032-.047.032-.044.035-.041.035-.038.035-.034.036-.03.038-.027.038-.025.039-.02.038-.017.04-.014.04-.01.042-.007-.054-.4-.073.012-.071.02-.07.023-.069.03-.064.035-.062.038-.06.044-.056.047-.054.052-.051.054-.048.059-.046.062-.043.064-.04.067-.038.071-.035.072-.033.076-.028.078-.027.08-.024.082-.02.084-.02.086-.015.088-.013.09-.01.09-.007.093-.003.094-.002.096.003.096.005.098.008.098.011.1.401-.055z" fill="#0651A7"/><path d="M4.556 15.298l-.042.005h-.042L4.43 15.3l-.042-.006-.043-.01-.042-.013-.044-.016-.043-.02-.043-.023-.044-.028-.044-.03-.043-.034L4 15.083l-.042-.042-.042-.044-.041-.048-.04-.051-.04-.053-.038-.058-.036-.06-.036-.063-.034-.065-.032-.068-.03-.071-.03-.072-.025-.076-.025-.077-.022-.08-.021-.08-.017-.083-.016-.085-.013-.087-.4.054.014.1.019.096.02.095.023.094.026.091.029.09.031.088.033.085.036.083.038.08.04.08.043.075.045.072.047.07.048.069.051.064.053.06.055.059.056.054.059.051.06.047.062.044.064.04.065.035.067.03.07.028.07.02.07.017.074.01.074.005h.074l.074-.007-.054-.4z" fill="#0651A7"/><path d="M4.598 15.345c.422-.07.68-.639.575-1.273-.104-.633-.53-1.09-.953-1.02-.422.07-.68.64-.575 1.273.104.633.53 1.09.953 1.02zm3.778-2.275l.012.087.01.086.008.084.005.084v.162l-.004.08-.006.08-.009.075-.01.075-.014.072-.015.07-.018.068-.02.066-.021.063-.024.06-.025.058-.027.054-.03.053-.03.048-.031.045-.032.043-.034.038-.035.035-.036.031-.037.029-.037.025-.037.022-.039.018-.039.014-.04.012-.04.009.064.398.073-.015.071-.021.07-.027.066-.031.063-.036.062-.041.058-.045.055-.05.052-.053.05-.056.047-.059.043-.064.041-.066.038-.067.036-.072.033-.073.03-.077.027-.079.024-.08.02-.083.02-.085.016-.087.013-.088.01-.09.007-.091.004-.093.002-.094-.003-.096-.005-.096-.007-.097-.012-.098-.015-.098-.398.064z" fill="#0651A7"/><path d="M7.195 11.626l.042-.005.042-.001.042.001.043.005.042.009.043.012.043.015.045.018.044.022.044.027.044.029.045.033.044.035.044.04.043.044.042.046.042.05.041.053.04.055.038.06.038.06.035.066.034.066.033.07.031.072.03.075.026.075.025.079.022.08.02.083.018.084.016.086.398-.064-.018-.099-.02-.096-.023-.095-.027-.093-.028-.09-.032-.09-.033-.086-.036-.085-.038-.082-.04-.08-.044-.076-.044-.075-.048-.07-.048-.07-.05-.066-.054-.062-.055-.06-.056-.056-.058-.053-.06-.05-.061-.045-.064-.042-.065-.037-.066-.034-.068-.029-.07-.024-.071-.02-.072-.013-.073-.009-.074-.002-.074.002-.073.01.064.397z" fill="#0651A7"/><path d="M6.54 13.373l-.013-.088-.01-.085-.007-.085-.005-.083v-.162l.003-.08.006-.08.01-.075.01-.075.013-.072.015-.07.019-.068.02-.066.02-.063.025-.061.025-.057.027-.055.029-.052.03-.049.032-.045.032-.042.034-.039.035-.035.036-.032.036-.028.037-.025.038-.021.038-.019.04-.014.04-.012.04-.009-.064-.397-.074.015-.07.02-.07.027-.067.031-.063.036-.061.041-.058.046-.056.049-.052.053-.05.056-.046.06-.044.063-.04.066-.039.068-.036.072-.032.074-.03.076-.027.078-.024.08-.021.083-.02.086-.015.087-.013.088-.01.09-.007.091-.005.093-.001.094.003.096.004.096.008.097.011.098.016.098.397-.064z" fill="#0651A7"/><path d="M7.72 14.816l-.042.004-.042.003-.042-.002-.042-.005-.043-.009-.043-.01-.043-.016-.044-.02-.044-.021-.045-.026-.044-.029-.044-.033-.045-.036-.043-.04-.044-.044-.042-.045-.041-.05-.042-.053-.04-.056-.038-.059-.037-.061-.036-.065-.034-.067-.033-.07-.031-.071-.029-.075-.026-.076-.025-.078-.022-.08-.021-.083-.018-.085-.016-.085-.398.064.018.098.02.097.024.095.026.093.029.09.031.09.034.086.036.085.038.081.04.08.043.077.045.075.047.07.048.07.051.065.053.063.055.06.056.056.059.053.059.05.062.045.063.042.065.037.067.033.068.03.07.024.07.019.073.013.073.01.073.002.074-.003.074-.01-.065-.397z" fill="#0651A7"/><path d="M7.67 14.827c.42-.075.671-.647.56-1.279-.113-.632-.546-1.084-.967-1.009-.42.074-.672.648-.56 1.28.112.631.544 1.083.966 1.008z" fill="#0651A7"/></g></g></g><defs><clipPath id="clip0"><path d="M0 4a4 4 0 014-4h32a4 4 0 014 4v32a4 4 0 01-4 4H4a4 4 0 01-4-4V4z" fill="#fff"/></clipPath><clipPath id="clip1"><path fill="#fff" transform="translate(-1)" d="M0 0h41v40H0z"/></clipPath><clipPath id="clip2"><path fill="#fff" transform="rotate(-7.621 53.016 216.284)" d="M0 0h73.621v73.621H0z"/></clipPath></defs></svg>