<svg width="40" height="40" fill="none" xmlns="http://www.w3.org/2000/svg"><path d="M0 4a4 4 0 014-4h32a4 4 0 014 4v32a4 4 0 01-4 4H4a4 4 0 01-4-4V4z" fill="#E0EB65"/><mask id="a" fill="#fff"><path fill-rule="evenodd" clip-rule="evenodd" d="M17 38c7.732 0 14-6.268 14-14s-6.268-14-14-14S3 16.268 3 24s6.268 14 14 14zm0-6a8 8 0 100-16 8 8 0 000 16z"/></mask><path fill-rule="evenodd" clip-rule="evenodd" d="M17 38c7.732 0 14-6.268 14-14s-6.268-14-14-14S3 16.268 3 24s6.268 14 14 14zm0-6a8 8 0 100-16 8 8 0 000 16z" fill="#fff"/><path d="M29.6 24c0 6.959-5.641 12.6-12.6 12.6v2.8c8.505 0 15.4-6.895 15.4-15.4h-2.8zM17 11.4c6.959 0 12.6 5.641 12.6 12.6h2.8c0-8.505-6.895-15.4-15.4-15.4v2.8zM4.4 24c0-6.959 5.641-12.6 12.6-12.6V8.6C8.495 8.6 1.6 15.495 1.6 24h2.8zM17 36.6c-6.959 0-12.6-5.641-12.6-12.6H1.6c0 8.505 6.895 15.4 15.4 15.4v-2.8zM23.6 24a6.6 6.6 0 01-6.6 6.6v2.8a9.4 9.4 0 009.4-9.4h-2.8zM17 17.4a6.6 6.6 0 016.6 6.6h2.8a9.4 9.4 0 00-9.4-9.4v2.8zM10.4 24a6.6 6.6 0 016.6-6.6v-2.8A9.4 9.4 0 007.6 24h2.8zm6.6 6.6a6.6 6.6 0 01-6.6-6.6H7.6a9.4 9.4 0 009.4 9.4v-2.8z" fill="#0651A7" mask="url(#a)"/><path fill-rule="evenodd" clip-rule="evenodd" d="M17 32a8 8 0 100-16 8 8 0 000 16zm0-1a7 7 0 100-14 7 7 0 000 14z" fill="#0651A7"/><circle cx="27.5" cy="11.5" r="6.794" fill="#fff" stroke="#0651A7" stroke-width="1.412"/><path d="M27.5 7.088V11.5l2.647 2.647" stroke="#0651A7" stroke-width="1.412"/></svg>