<svg width="41" height="40" fill="none" xmlns="http://www.w3.org/2000/svg"><g clip-path="url(#clip0)"><path d="M.5 4a4 4 0 014-4h32a4 4 0 014 4v32a4 4 0 01-4 4h-32a4 4 0 01-4-4V4z" fill="#E0EB65"/><mask id="a" maskUnits="userSpaceOnUse" x="1.5" y="5.595" width="38" height="32" fill="#000"><path fill="#fff" d="M1.5 5.595h38v32h-38z"/><path d="M20.443 12.373c0 .656-.447 1.259-1.196 1.738-1.034-.661-2.643-1.086-4.452-1.086-1.808 0-3.418.425-4.452 1.086-.749-.48-1.195-1.082-1.195-1.738 0-1.56 2.528-2.823 5.647-2.823 3.12 0 5.648 1.264 5.648 2.823zm13.514 17.11c-.568.327-1.313.242-2.103-.167.056-1.226-.381-2.832-1.285-4.398-.904-1.566-2.077-2.748-3.167-3.312.04-.889.34-1.577.907-1.905 1.35-.78 3.71.778 5.27 3.48 1.56 2.7 1.729 5.522.378 6.302z"/><path fill-rule="evenodd" clip-rule="evenodd" d="M24.537 16.836h.013v-4.364c0-2.694-4.367-4.877-9.755-4.877-5.387 0-9.755 2.183-9.755 4.877v4.364c.001 0-1.54 1.493-1.54 2.633v4.363h.013c.09.873.64 1.685 1.53 2.377-.074 1.487.002 2.998-.003 4.488h.013c.267 2.574 4.527 4.62 9.742 4.62 5.013 0 9.143-1.89 9.693-4.323 2.497 3.357 5.635 5.166 7.651 4.265 1.26-.727 2.527-1.444 3.786-2.17 2.333-1.347 2.04-6.22-.653-10.886-2.694-4.665-6.77-7.356-9.102-6.01l-1.69.977a2.71 2.71 0 00.057-.334zm-5.263 4.077c-1.342.347-2.864.543-4.479.543-3.437 0-6.46-.889-8.197-2.232-.012.08-.017.162-.017.245 0 1.843 2.988 3.337 6.674 3.337 2.651 0 4.942-.773 6.019-1.893zm2.196-8.441c0 1.843-2.989 3.337-6.675 3.337s-6.674-1.494-6.674-3.337c0-1.843 2.988-3.337 6.674-3.337 3.686 0 6.675 1.494 6.675 3.337zm12.915 17.95c-1.596.92-4.384-.92-6.227-4.112-1.844-3.192-2.044-6.527-.448-7.448 1.596-.922 4.384.919 6.228 4.11 1.843 3.193 2.043 6.528.447 7.45zm-19.59-.752c-2.508 0-4.692-.691-5.833-1.714a18.14 18.14 0 004.293.497c3.446 0 6.475-.894 8.21-2.242.206 2.855-4.787 3.46-6.67 3.46z"/></mask><path d="M20.443 12.373c0 .656-.447 1.259-1.196 1.738-1.034-.661-2.643-1.086-4.452-1.086-1.808 0-3.418.425-4.452 1.086-.749-.48-1.195-1.082-1.195-1.738 0-1.56 2.528-2.823 5.647-2.823 3.12 0 5.648 1.264 5.648 2.823zm13.514 17.11c-.568.327-1.313.242-2.103-.167.056-1.226-.381-2.832-1.285-4.398-.904-1.566-2.077-2.748-3.167-3.312.04-.889.34-1.577.907-1.905 1.35-.78 3.71.778 5.27 3.48 1.56 2.7 1.729 5.522.378 6.302z" fill="#fff"/><path fill-rule="evenodd" clip-rule="evenodd" d="M24.537 16.836h.013v-4.364c0-2.694-4.367-4.877-9.755-4.877-5.387 0-9.755 2.183-9.755 4.877v4.364c.001 0-1.54 1.493-1.54 2.633v4.363h.013c.09.873.64 1.685 1.53 2.377-.074 1.487.002 2.998-.003 4.488h.013c.267 2.574 4.527 4.62 9.742 4.62 5.013 0 9.143-1.89 9.693-4.323 2.497 3.357 5.635 5.166 7.651 4.265 1.26-.727 2.527-1.444 3.786-2.17 2.333-1.347 2.04-6.22-.653-10.886-2.694-4.665-6.77-7.356-9.102-6.01l-1.69.977a2.71 2.71 0 00.057-.334zm-5.263 4.077c-1.342.347-2.864.543-4.479.543-3.437 0-6.46-.889-8.197-2.232-.012.08-.017.162-.017.245 0 1.843 2.988 3.337 6.674 3.337 2.651 0 4.942-.773 6.019-1.893zm2.196-8.441c0 1.843-2.989 3.337-6.675 3.337s-6.674-1.494-6.674-3.337c0-1.843 2.988-3.337 6.674-3.337 3.686 0 6.675 1.494 6.675 3.337zm12.915 17.95c-1.596.92-4.384-.92-6.227-4.112-1.844-3.192-2.044-6.527-.448-7.448 1.596-.922 4.384.919 6.228 4.11 1.843 3.193 2.043 6.528.447 7.45zm-19.59-.752c-2.508 0-4.692-.691-5.833-1.714a18.14 18.14 0 004.293.497c3.446 0 6.475-.894 8.21-2.242.206 2.855-4.787 3.46-6.67 3.46z" fill="#fff"/><path d="M24.55 16.836v1.6h1.6v-1.6h-1.6zm-.013 0v-1.6h-1.443l-.149 1.435 1.592.165zm-19.497 0h-1.6v1.6h1.6v-1.6zM3.5 23.832H1.9v1.6h1.6v-1.6zm.013 0l1.592-.165-.15-1.435H3.514v1.6zm1.53 2.377l1.598.08.042-.832-.657-.51-.983 1.262zm-.003 4.488l-1.6-.005-.005 1.605H5.04v-1.6zm.013 0l1.592-.165-.149-1.435H5.053v1.6zm19.435.297l1.284-.955-2.077-2.792-.768 3.394 1.56.353zm7.651 4.265l.653 1.46.075-.033.072-.041-.8-1.386zm3.786-2.17l-.8-1.386.8 1.386zm-.653-10.886l1.385-.8-1.385.8zm-9.102-6.01l-.8-1.385.8 1.386zm-1.69.977l-1.556-.376-.877 3.628 3.232-1.866-.8-1.386zm-5.206 3.743l1.153 1.109 3.918-4.075-5.472 1.417.4 1.549zM6.598 19.224l.979-1.266-2.17-1.676-.392 2.713 1.583.23zm12.649-5.113l-.862 1.348.862.551.862-.551-.862-1.348zm-8.904 0l-.862 1.348.862.551.862-.551-.862-1.348zM28.158 26.31l1.385-.8-1.385.8zm6.227 4.111l-.8-1.386.8 1.386zm-6.675-11.56l-.8-1.385.8 1.386zm4.144 10.455l-1.598-.073-.047 1.022.909.471.736-1.42zm2.103.167l-.8-1.386.8 1.386zm-3.388-4.565l1.385-.8-1.385.8zm-3.167-3.312l-1.598-.073-.046 1.022.908.471.736-1.42zm.907-1.905l.8 1.386-.8-1.386zm5.27 3.48l-1.386.8 1.386-.8zM8.961 27.955l.381-1.554-1.449 2.746 1.068-1.192zm12.503-1.745l1.596-.116-.216-2.984-2.362 1.836.982 1.264zm3.085-10.975h-.013v3.2h.013v-3.2zm-9.755-6.041c2.5 0 4.683.51 6.182 1.26 1.596.797 1.973 1.603 1.973 2.017h3.2c0-2.28-1.806-3.912-3.742-4.88-2.03-1.015-4.725-1.597-7.613-1.597v3.2zM6.64 12.472c0-.414.378-1.22 1.973-2.018 1.5-.75 3.683-1.259 6.182-1.259v-3.2c-2.888 0-5.582.582-7.613 1.597-1.935.968-3.742 2.6-3.742 4.88h3.2zm-3.127 9.76H3.5v3.2h.013v-3.2zm2.513 2.714c-.688-.534-.891-.99-.921-1.279l-3.183.33c.15 1.457 1.046 2.625 2.139 3.475l1.965-2.526zm-.973 4.15H5.04v3.2h.013v-3.2zm9.742 4.621c-2.417 0-4.543-.477-6.038-1.19-1.587-.755-2.066-1.556-2.112-1.995l-3.183.33c.221 2.134 2.005 3.643 3.919 4.555 2.004.954 4.616 1.5 7.414 1.5v-3.2zm8.132-3.076c-.108.477-.701 1.263-2.268 1.968-1.487.668-3.542 1.108-5.864 1.108v3.2c2.691 0 5.208-.505 7.176-1.39 1.889-.849 3.635-2.225 4.078-4.18l-3.122-.706zm8.56 3.157c-.338.15-1.055.18-2.208-.469-1.108-.624-2.357-1.744-3.507-3.29l-2.568 1.91c1.347 1.81 2.915 3.273 4.505 4.168 1.544.87 3.404 1.353 5.083.603l-1.306-2.922zm2.399-10.795c1.25 2.164 1.9 4.31 2 5.983.107 1.78-.402 2.51-.76 2.717l1.6 2.771c1.973-1.14 2.484-3.52 2.354-5.68-.136-2.266-.979-4.89-2.423-7.391l-2.771 1.6zM26.97 17.58c.359-.208 1.245-.284 2.734.7 1.399.923 2.932 2.559 4.182 4.723l2.771-1.6c-1.444-2.501-3.295-4.543-5.19-5.794-1.806-1.193-4.123-1.94-6.097-.8l1.6 2.77zm-4.025-.91a.933.933 0 01-.021.124l3.11.752a4.13 4.13 0 00.094-.545l-3.183-.33zm-4.072 2.694c-1.202.311-2.59.492-4.078.492v3.2c1.741 0 3.4-.211 4.88-.594l-.802-3.098zm-4.078.492c-3.224 0-5.855-.844-7.218-1.898L5.62 20.49c2.111 1.633 5.525 2.566 9.175 2.566v-3.2zm-9.78-.861a3.306 3.306 0 00-.034.474h3.2v-.016l-3.166-.458zm-.034.474c0 1.854 1.461 3.101 2.839 3.79 1.474.737 3.397 1.147 5.435 1.147v-3.2c-1.649 0-3.062-.338-4.004-.809-.47-.235-.765-.474-.924-.663-.152-.178-.146-.264-.146-.265h-3.2zm8.274 4.937c2.85 0 5.661-.814 7.172-2.384l-2.307-2.218c-.643.669-2.413 1.402-4.865 1.402v3.2zm1.54-6.997c2.038 0 3.961-.41 5.435-1.146 1.378-.69 2.84-1.937 2.84-3.791h-3.2c0 .002.005.087-.146.266-.16.188-.454.427-.925.662-.942.471-2.355.809-4.004.809v3.2zm-8.274-4.937c0 1.854 1.461 3.102 2.84 3.79 1.473.737 3.396 1.147 5.434 1.147v-3.2c-1.649 0-3.062-.338-4.004-.809-.47-.235-.764-.474-.924-.662-.151-.179-.146-.264-.146-.266h-3.2zm8.274-4.937c-2.037 0-3.961.41-5.435 1.146-1.378.69-2.84 1.937-2.84 3.791h3.2c0-.002-.004-.087.147-.265.16-.19.453-.428.924-.663.942-.471 2.355-.809 4.004-.809v-3.2zm8.275 4.937c0-1.854-1.462-3.102-2.84-3.79-1.474-.737-3.397-1.147-5.435-1.147v3.2c1.649 0 3.062.338 4.004.809.47.235.765.474.925.662.15.18.146.264.146.266h3.2zm-2.96 2.987c.958-.614 1.933-1.643 1.933-3.086h-3.2c0-.054.022-.054-.027.016-.056.08-.184.216-.431.374l1.724 2.696zm-5.315-.834c1.598 0 2.884.382 3.59.834l1.724-2.696c-1.361-.87-3.296-1.338-5.314-1.338v3.2zm-3.59.834c.706-.452 1.992-.834 3.59-.834v-3.2c-2.018 0-3.953.467-5.314 1.338l1.724 2.696zm-3.657-3.086c0 1.443.974 2.472 1.933 3.086l1.724-2.696c-.247-.158-.374-.294-.43-.374-.05-.07-.027-.07-.027-.016h-3.2zm7.247-4.423c-1.754 0-3.421.352-4.709.996-1.192.596-2.538 1.715-2.538 3.427h3.2c0 .153-.083-.14.77-.565.755-.378 1.912-.658 3.277-.658v-3.2zm7.248 4.423c0-1.712-1.347-2.831-2.539-3.427-1.288-.644-2.955-.996-4.709-.996v3.2c1.365 0 2.522.28 3.278.658.852.426.77.718.77.565h3.2zm4.729 14.737c1.019 1.764 2.335 3.226 3.71 4.133 1.286.849 3.097 1.49 4.703.564l-1.6-2.772c-.002.001-.073.048-.303.007-.244-.044-.597-.18-1.037-.47-.878-.58-1.877-1.635-2.702-3.062l-2.771 1.6zm.138-9.634c-1.605.927-1.955 2.816-1.863 4.354.099 1.645.706 3.515 1.725 5.28l2.771-1.6c-.824-1.428-1.238-2.82-1.302-3.872-.031-.525.029-.899.112-1.132.08-.22.156-.258.157-.259l-1.6-2.771zm8.413 4.697c-1.019-1.765-2.335-3.226-3.71-4.134-1.286-.848-3.097-1.49-4.703-.563l1.6 2.771c.002 0 .073-.048.303-.006.244.044.598.179 1.037.469.879.58 1.878 1.635 2.702 3.063l2.771-1.6zm-.138 9.634c1.606-.927 1.956-2.817 1.863-4.354-.099-1.645-.706-3.516-1.725-5.28l-2.77 1.6c.823 1.428 1.238 2.82 1.3 3.871.032.526-.027.9-.111 1.132-.08.22-.155.259-.157.26l1.6 2.77zm-4.067-1.07c1.01.523 2.39.853 3.639.131l-1.6-2.771c.047-.027.058-.008-.027-.015-.098-.009-.279-.052-.54-.187l-1.472 2.841zm-1.935-5.02c.8 1.385 1.11 2.689 1.073 3.526l3.197.145c.073-1.614-.49-3.523-1.499-5.27l-2.77 1.6zm-2.517-2.69c.744.385 1.718 1.307 2.517 2.69l2.771-1.6c-1.009-1.747-2.381-3.188-3.816-3.932l-1.472 2.841zm.843-4.711c-1.25.721-1.654 2.08-1.705 3.217l3.197.145c.013-.293.066-.471.108-.56.036-.077.047-.058 0-.031l-1.6-2.771zm7.455 4.064c-.877-1.519-2.015-2.787-3.217-3.58-1.112-.734-2.755-1.34-4.238-.484l1.6 2.771c-.132.076.08-.141.875.384.706.466 1.526 1.327 2.209 2.51l2.771-1.6zm-.207 8.488c1.483-.856 1.78-2.582 1.7-3.912-.087-1.437-.616-3.057-1.493-4.576l-2.771 1.6c.683 1.182 1.018 2.324 1.069 3.168.057.95-.237 1.025-.105.949l1.6 2.771zm-26.863-1.72c1.548 1.387 4.184 2.122 6.901 2.122v-3.2c-2.299 0-4.031-.648-4.765-1.305l-2.136 2.383zm5.36-2.295c-1.419 0-2.747-.165-3.91-.45L8.58 29.51a19.75 19.75 0 004.674.543v-3.2zm7.23-1.906c-1.36 1.057-3.996 1.906-7.23 1.906v3.2c3.66 0 7.082-.938 9.193-2.58l-1.964-2.526zM5.1 23.832V19.47H1.9v4.362h3.2zm1.54 6.87c.005-1.615-.07-2.966.001-4.413l-3.196-.16c-.076 1.526 0 3.2-.005 4.563l3.2.01zm8.155.568c1.05 0 2.963-.162 4.645-.748.84-.292 1.749-.733 2.453-1.422.75-.734 1.259-1.75 1.168-3.005l-3.192.23c.013.173-.026.304-.213.487-.232.227-.65.472-1.269.688-1.233.43-2.76.57-3.592.57v3.2zm8.155-18.798v4.364h3.2v-4.364h-3.2zM6.64 16.836v-4.364h-3.2v4.364h3.2zM5.1 19.469c0 .052-.01-.006.083-.199.084-.176.214-.38.37-.588a6.871 6.871 0 01.6-.697l.008-.008.005-.005.01-.01a1.756 1.756 0 00.064-.068c.047-.055.227-1.782-1.2-2.658v3.2c-1.427-.877-1.246-2.603-1.2-2.659l.044-.047.02-.02.006-.007a.06.06 0 01.002-.002l-.001.002-.018.017a9.394 9.394 0 00-.274.287c-.169.185-.398.449-.63.76-.23.307-.486.691-.69 1.116-.196.408-.399.963-.399 1.586h3.2zm20.18-.913l1.69-.976-1.6-2.772-1.69.976 1.6 2.772zm9.845 13.147c-.626.361-1.254.72-1.886 1.081-.631.36-1.266.724-1.9 1.09l1.6 2.77c.626-.36 1.255-.72 1.887-1.081.631-.36 1.266-.723 1.9-1.089l-1.6-2.771z" fill="#0651A7" mask="url(#a)"/></g><defs><clipPath id="clip0"><path d="M.5 4a4 4 0 014-4h32a4 4 0 014 4v32a4 4 0 01-4 4h-32a4 4 0 01-4-4V4z" fill="#fff"/></clipPath></defs></svg>