<svg width="40" height="40" fill="none" xmlns="http://www.w3.org/2000/svg"><rect width="40" height="40" rx="6" fill="#1E9CDB"/><path d="M15.56 19.602a10.543 10.543 0 004.881 4.86.99.99 0 00.979-.075l3.13-2.086a1 1 0 01.948-.088l5.855 2.51a.997.997 0 01.6 1.037A6.002 6.002 0 0126 31 17 17 0 019 14a6.001 6.001 0 015.24-5.952.997.997 0 011.037.6l2.512 5.86a1 1 0 01-.083.94l-2.08 3.178a.992.992 0 00-.066.976v0zM24 11v5h5m-5 0l6-6" stroke="#fff" stroke-width="2" stroke-linecap="round" stroke-linejoin="round"/></svg>