<svg width="49" height="48" fill="none" xmlns="http://www.w3.org/2000/svg"><path d="M33.55 0h-17.6a4.005 4.005 0 00-4 4v40a4.005 4.005 0 004 4h17.6a4.005 4.005 0 004-4V4a4.005 4.005 0 00-4-4zm2.4 44a2.4 2.4 0 01-2.4 2.4h-17.6a2.4 2.4 0 01-2.4-2.4v-2.4h22.4V44zm-19.2-4v-1.6h3.2V40h-3.2zm19.2 0h-14.4v-2.4a.8.8 0 00-.8-.8h-4.8a.8.8 0 00-.8.8V40h-1.6V8h22.4v32zm0-33.6h-22.4V4a2.4 2.4 0 012.4-2.4h17.6a2.4 2.4 0 012.4 2.4v2.4z" fill="#000"/><path d="M29.55 3.2h-9.6v1.6h9.6V3.2zm-4 40h-1.6v1.6h1.6v-1.6zm4.664-32h4.136V9.6h-4.136a2.382 2.382 0 00-1.698.703l-4.93 4.93-4.834.48a3.987 3.987 0 00-3.602 3.983V23.2a.8.8 0 00.8.8h2.48a4 4 0 007.84 0h8.08v-1.6h-8.08c0-.014-.01-.027-.012-.042a3.971 3.971 0 00-.208-.666c-.03-.076-.072-.146-.108-.22a4.005 4.005 0 00-.232-.426c-.052-.08-.11-.152-.166-.227a3.901 3.901 0 00-.283-.344 4.186 4.186 0 00-.547-.482 6.207 6.207 0 00-.24-.167 4.008 4.008 0 00-.395-.215c-.085-.041-.168-.085-.256-.12a4.121 4.121 0 00-.476-.148c-.08-.02-.155-.048-.24-.064a3.799 3.799 0 00-1.52 0c-.08.016-.16.043-.24.064-.161.04-.32.09-.476.148-.088.035-.171.08-.256.12a4.008 4.008 0 00-.395.215 4.96 4.96 0 00-.24.167 4.186 4.186 0 00-.546.482 4.05 4.05 0 00-.284.344c-.056.075-.114.147-.165.227-.086.137-.164.28-.232.427-.036.073-.08.143-.109.219a3.971 3.971 0 00-.207.666c0 .015-.01.028-.013.042H16.75v-2.704a2.393 2.393 0 012.16-2.388l5.081-.508h10.36v-1.6h-8.47l3.766-3.766a.8.8 0 01.567-.234zm-7.864 9.6a2.4 2.4 0 110 4.8 2.4 2.4 0 010-4.8z" fill="#000"/><path d="M34.35 18.4h-3.2V20h3.2v-1.6zm-11.2 4h-1.6V24h1.6v-1.6zm-.8-12.8h-7.2v1.6h7.2V9.6zm-3.2 3.2h-4v1.6h4v-1.6zm1.6 16h-4.8a.8.8 0 00-.8.8v4.8a.8.8 0 00.8.8h4.8a.8.8 0 00.8-.8v-4.8a.8.8 0 00-.8-.8zm-.8 4.8h-3.2v-3.2h3.2v3.2zm8.8-4.8h-5.6v1.6h5.6v-1.6zm5.6 3.2h-11.2v1.6h11.2V32zm0-3.2h-4v1.6h4v-1.6zm-5.6 8h-5.6v1.6h5.6v-1.6zm5.6 0h-4v1.6h4v-1.6z" fill="#000"/></svg>