<svg width="44" height="44" fill="none" xmlns="http://www.w3.org/2000/svg"><path d="M43.784 36.147l-4.4-4.4a.733.733 0 00-.398-.204l-4.169-.696L25.97 22l8.848-8.848 4.169-.696a.733.733 0 00.398-.204l4.4-4.4a.733.733 0 000-1.037l-6.6-6.6a.733.733 0 00-1.037 0l-4.4 4.4a.734.734 0 00-.205.397l-.695 4.17L22 18.028 13.15 9.18l-.695-4.169a.734.734 0 00-.204-.397l-4.4-4.4a.733.733 0 00-1.037 0l-6.6 6.6a.733.733 0 000 1.037l4.4 4.4c.108.108.247.18.398.204l4.168.696 8.849 8.848-8.849 8.848-4.168.695a.733.733 0 00-.398.205l-4.4 4.4a.733.733 0 000 1.037l6.6 6.6a.733.733 0 001.037 0l4.4-4.4a.734.734 0 00.204-.398l.695-4.168L22 25.969l8.848 8.849.695 4.169c.025.15.097.289.205.397l4.4 4.4a.733.733 0 001.037 0l6.6-6.6a.733.733 0 000-1.037zM36.665 1.77l5.563 5.563-3.363 3.363-5.563-5.563 3.363-3.363zM1.77 7.332L7.332 1.77l3.363 3.363-5.563 5.563L1.77 7.332zM7.332 42.23L1.77 36.666l3.363-3.363 5.563 5.563-3.363 3.363zm24.923-7.885a.734.734 0 00-.205-.397l-9.533-9.533a.733.733 0 00-1.037 0l-9.533 9.533a.734.734 0 00-.205.397l-.499 2.995-4.585-4.584 2.994-.5a.733.733 0 00.399-.204l9.533-9.534a.733.733 0 000-1.037l-9.533-9.533a.733.733 0 00-.399-.204l-2.994-.5 4.585-4.585.5 2.995c.025.15.096.29.204.398l9.533 9.533a.733.733 0 001.037 0l9.534-9.533a.734.734 0 00.204-.398l.5-2.995 4.584 4.585-2.994.5a.733.733 0 00-.398.204l-9.533 9.534a.733.733 0 000 1.036l9.533 9.534c.108.108.247.18.398.204l2.994.5-4.584 4.584-.5-2.995zm4.41 7.885l-3.363-3.364 5.563-5.563 3.363 3.364-5.563 5.563z" fill="#000"/></svg>