<svg width="49" height="48" fill="none" xmlns="http://www.w3.org/2000/svg"><g clip-path="url(#clip0_4263:5266)" fill="#000"><path d="M44.42 2.925l-.763 1.407 1.407.762.762-1.406-1.406-.763zm-1.51 14.676l-9.812-2.592a.8.8 0 00-.408 1.547l9.811 2.592a.8.8 0 10.409-1.547zm1.603-2.881l-9.896-2.525a.8.8 0 10-.395 1.55l9.895 2.525a.8.8 0 00.395-1.55zM31.046 29.924h-1.6v1.6h1.6v-1.6z"/><path d="M48.706 3.416a4 4 0 10-7.59 2.252l-.774 1.416-.702-.381a.8.8 0 00-1.084.32l-1.31 2.413-1.15-.308a.8.8 0 10-.417 1.545l10.036 2.72a.8.8 0 10.417-1.545l-.952-.258.405-.748a.8.8 0 00-.32-1.084l-.703-.382.772-1.42a4 4 0 003.372-4.54zm-5.115 7.742l-1.65-.448-3.112-.843.747-1.377 1.553.843 1.966 1.067.7.38-.204.378zm.538-4.344l-.974 1.795-1.406-.76.975-1.797a.8.8 0 00-.02-.798 2.4 2.4 0 112.104 1.141.8.8 0 00-.68.419zm3.811 17.991h-4.799a.8.8 0 00-.8.8v2.4h-5.159l1.097-2.021a.8.8 0 00-.32-1.085l-1.406-.763 1.557-2.87 2.779.759a.8.8 0 10.421-1.544l-9.731-2.658a.8.8 0 00-.422 1.543l2.197.6-1.02 1.88-1.407-.763a.8.8 0 00-1.084.32l-1.526 2.812a.8.8 0 00.32 1.084l1.406.763-.388.72a3.925 3.925 0 00-2.316 1.223h-5.793v-2.4a.8.8 0 00-.8-.8h-2.4v-6.398a4.004 4.004 0 00-3.998-4H4.75a4.004 4.004 0 00-4 4V44a4.004 4.004 0 004 3.999h9.598a4.004 4.004 0 003.999-4v-6.398h2.4a.8.8 0 00.799-.8v-2.399h7.178a3.891 3.891 0 003.06 0H42.34v2.4a.8.8 0 00.8.8h4.8a.8.8 0 00.799-.8V25.605a.8.8 0 00-.8-.8zM3.95 46.253a2.4 2.4 0 01-1.6-2.252V18.407a2.4 2.4 0 011.6-2.253v30.1zm3.2.147h-1.6V16.007h1.6V46.4zm3.198 0h-1.6V16.007h1.6V46.4zm3.2 0h-1.6V16.007h1.6V46.4zm3.199-20.795V44a2.4 2.4 0 01-1.6 2.252V16.154a2.4 2.4 0 011.6 2.253v7.198zm3.2 3.2v7.198h-1.6v-9.598h1.6v2.4zm1.599 3.998v-3.199h4.862a3.885 3.885 0 00-.13.677c0 .029-.008.057-.011.086-.02.227-.02.455 0 .681 0 .036.004.07.008.105a3.957 3.957 0 00.16.76c.065.213.148.42.248.618l.05.094c.033.06.061.12.097.178h-5.284zm13.269-12.175l1.532.528-1.204 2.217-1.406-.763 1.078-1.982zm-3.948 2.245l5.625 3.052-.764 1.405-3.317-1.8-.9-.485-1.407-.766.763-1.406zm1.417 6.609a2.385 2.385 0 01-3.06 3.401 2.194 2.194 0 00-.12-.047 2.4 2.4 0 01-.964-3.253c.058-.103.125-.201.199-.294a2.353 2.353 0 011.076-.8c.246-.09.504-.139.766-.147a.8.8 0 00.679-.418l.593-1.093 1.406.763-.595 1.09a.8.8 0 00.02.798zm6.858 3.321h-5.479c.035-.056.068-.112.099-.17.111-.21.203-.43.275-.657l.037-.116a3.85 3.85 0 00.132-.656l.012-.132c.02-.228.02-.457 0-.685 0-.02-.006-.038-.008-.058a4.05 4.05 0 00-.125-.651c-.007-.024-.007-.048-.014-.072h5.071v3.197zm3.2 0h-1.6v-3.199h1.6v3.2zm4.798 3.2h-3.199v-9.598h3.2v9.598z"/></g><defs><clipPath id="clip0_4263:5266"><path fill="#fff" transform="translate(.75)" d="M0 0h48v48H0z"/></clipPath></defs></svg>