<svg width="49" height="48" fill="none" xmlns="http://www.w3.org/2000/svg"><path fill-rule="evenodd" clip-rule="evenodd" d="M24.75 39.3c8.45 0 15.3-6.85 15.3-15.3 0-8.45-6.85-15.3-15.3-15.3-8.45 0-15.3 6.85-15.3 15.3 0 8.45 6.85 15.3 15.3 15.3zm0 1.6c9.334 0 16.9-7.566 16.9-16.9S34.084 7.1 24.75 7.1 7.85 14.666 7.85 24s7.566 16.9 16.9 16.9z" fill="#000"/><path fill-rule="evenodd" clip-rule="evenodd" d="M24.75 34.4c5.744 0 10.4-4.656 10.4-10.4 0-5.744-4.656-10.4-10.4-10.4-5.744 0-10.4 4.656-10.4 10.4 0 5.744 4.656 10.4 10.4 10.4zm0 1.6c6.628 0 12-5.373 12-12s-5.372-12-12-12c-6.627 0-12 5.373-12 12s5.373 12 12 12z" fill="#000"/><path fill-rule="evenodd" clip-rule="evenodd" d="M27.65 24a2.9 2.9 0 11-5.8 0 2.9 2.9 0 015.8 0zm-1.6 0a1.3 1.3 0 11-2.6 0 1.3 1.3 0 012.6 0z" fill="#000"/><path fill-rule="evenodd" clip-rule="evenodd" d="M24.75 36c6.628 0 12-5.373 12-12s-5.372-12-12-12c-6.627 0-12 5.373-12 12s5.373 12 12 12zm0-1.6c.392 0 .78-.022 1.161-.064v-6.207a4.279 4.279 0 001.9-1.137l5.366 3.104c.438-.604.811-1.256 1.112-1.947l-5.388-3.116a4.308 4.308 0 00-.022-2.15l5.376-3.11a10.395 10.395 0 00-1.128-1.937l-5.377 3.11a4.277 4.277 0 00-1.839-1.075v-6.207a10.497 10.497 0 00-2.239-.009v6.19a4.274 4.274 0 00-1.9 1.065l-5.374-3.108a10.383 10.383 0 00-1.136 1.933l5.358 3.099a4.298 4.298 0 00-.023 2.248l-5.37 3.106c.304.69.68 1.34 1.12 1.941l5.362-3.1a4.276 4.276 0 001.963 1.126v6.19c.354.036.714.055 1.078.055zm-2.635-5.805v5.468a10.387 10.387 0 01-4.738-2.728l4.738-2.74zm-2.677-4.644l-4.736 2.74c-.23-.859-.352-1.76-.352-2.691 0-.96.13-1.891.374-2.775l4.714 2.726zm2.677-4.644l-4.676-2.704a10.386 10.386 0 014.676-2.666v5.37zm5.353 9.288v5.446a10.391 10.391 0 004.685-2.736l-4.685-2.71zM35.15 24c0 .915-.118 1.803-.34 2.649l-4.665-2.698 4.642-2.684c.237.87.363 1.787.363 2.733zm-7.682-10.041a10.388 10.388 0 014.624 2.675l-4.624 2.673V13.96z" fill="#000"/><path d="M24.651 2.3a.38.38 0 00-.3.36l-.208 2.85a18.85 18.85 0 011.214 0l-.208-2.85a.38.38 0 00-.3-.36 22.045 22.045 0 00-.198 0zm5.647.716a.382.382 0 00-.41.268l-.937 2.695c.395.092.787.197 1.172.313l.536-2.802a.382.382 0 00-.221-.437 22.144 22.144 0 00-.14-.037zm5.232 2.147a.381.381 0 00-.455.156L33.47 7.681c.358.191.708.394 1.051.608l1.244-2.57a.382.382 0 00-.092-.473 22.758 22.758 0 00-.144-.083zm4.493 3.422a.38.38 0 00-.465.043l-2.163 1.868c.296.277.582.564.859.86l1.868-2.164a.38.38 0 00.043-.465 20.247 20.247 0 00-.142-.142zm3.481 4.491a.381.381 0 00-.472-.092l-2.57 1.244c.213.343.416.694.607 1.051l2.362-1.604a.381.381 0 00.156-.455 18.792 18.792 0 00-.084-.144zm2.192 5.235a.382.382 0 00-.436-.22l-2.802.536c.116.386.221.777.313 1.173l2.696-.938a.382.382 0 00.268-.408 21.42 21.42 0 00-.039-.143zm.754 5.589a.38.38 0 00-.36-.299l-2.85-.208a18.841 18.841 0 010 1.214l2.85-.208a.38.38 0 00.36-.298 33.87 33.87 0 000-.202zm-.715 5.646a.382.382 0 00-.268-.408L42.77 28.2c-.092.396-.197.787-.313 1.173l2.802.536c.212.04.367-.07.437-.22l.038-.143zm-2.148 5.234a.381.381 0 00-.156-.455l-2.362-1.604a17.58 17.58 0 01-.608 1.05l2.571 1.245c.19.092.365.03.472-.092l.083-.145zm-3.422 4.493a.38.38 0 00-.043-.465l-1.868-2.163c-.277.295-.563.582-.859.859l2.163 1.868a.38.38 0 00.465.043l.142-.142zm-4.491 3.481a.381.381 0 00.092-.472l-1.244-2.57c-.343.213-.693.416-1.05.607l1.603 2.362c.119.175.302.21.456.156l.143-.083zm-5.237 2.193a.382.382 0 00.222-.437l-.536-2.802c-.386.117-.777.221-1.172.313l.937 2.695a.382.382 0 00.41.268l.14-.037zm-5.587.753a.38.38 0 00.3-.36l.207-2.85a18.866 18.866 0 01-1.214 0l.208 2.85a.38.38 0 00.3.36 32.341 32.341 0 00.198 0zm-5.649-.716a.382.382 0 00.411-.268l.938-2.695a18.338 18.338 0 01-1.173-.313l-.535 2.802a.382.382 0 00.222.438l.137.036zm-5.233-2.148c.154.054.338.02.458-.155l1.603-2.361a18.495 18.495 0 01-1.05-.608l-1.244 2.57a.382.382 0 00.093.473l.14.081zm-4.493-3.423a.38.38 0 00.467-.041l2.163-1.868a18.64 18.64 0 01-.859-.859l-1.868 2.163a.38.38 0 00-.041.467l.138.138zm-3.481-4.492a.381.381 0 00.474.095l2.57-1.244a18.49 18.49 0 01-.608-1.05l-2.36 1.603a.382.382 0 00-.156.458l.08.138zm-2.192-5.237a.382.382 0 00.438.225l2.802-.536a18.373 18.373 0 01-.313-1.172l-2.695.937a.382.382 0 00-.268.413l.036.133zm-.752-5.587a.38.38 0 00.36.302l2.85.208a18.841 18.841 0 010-1.214l-2.85.208a.38.38 0 00-.36.302 22.541 22.541 0 000 .194zm.716-5.647a.382.382 0 00.268.412l2.695.937c.092-.395.196-.786.313-1.172L4.24 18.09a.382.382 0 00-.438.225l-.036.133zm2.148-5.233a.382.382 0 00.155.458L8.43 15.28c.192-.358.395-.708.608-1.051l-2.57-1.244a.382.382 0 00-.474.095l-.08.138zm3.423-4.492a.38.38 0 00.041.467l1.868 2.163c.277-.296.563-.582.859-.859L9.942 8.628a.38.38 0 00-.467-.041l-.138.138zm4.491-3.48a.382.382 0 00-.093.473l1.243 2.57a18.49 18.49 0 011.05-.608l-1.602-2.36a.382.382 0 00-.458-.156l-.14.08zm5.236-2.192a.382.382 0 00-.222.437l.535 2.802c.386-.117.777-.221 1.173-.313l-.938-2.695a.382.382 0 00-.41-.268l-.138.037z" fill="#000"/></svg>