<svg width="49" height="48" fill="none" xmlns="http://www.w3.org/2000/svg"><path fill-rule="evenodd" clip-rule="evenodd" d="M20.95 42c8.45 0 15.3-6.85 15.3-15.3 0-8.45-6.85-15.3-15.3-15.3-8.45 0-15.3 6.85-15.3 15.3 0 8.45 6.85 15.3 15.3 15.3zm0 1.6c9.333 0 16.9-7.566 16.9-16.9S30.283 9.8 20.95 9.8c-9.334 0-16.9 7.566-16.9 16.9s7.566 16.9 16.9 16.9z" fill="#000"/><path fill-rule="evenodd" clip-rule="evenodd" d="M20.95 37.1c5.744 0 10.4-4.656 10.4-10.4 0-5.744-4.656-10.4-10.4-10.4-5.744 0-10.4 4.656-10.4 10.4 0 5.744 4.656 10.4 10.4 10.4zm0 1.6c6.627 0 12-5.373 12-12s-5.373-12-12-12c-6.628 0-12 5.373-12 12s5.372 12 12 12z" fill="#000"/><path fill-rule="evenodd" clip-rule="evenodd" d="M23.85 26.7a2.9 2.9 0 11-5.8 0 2.9 2.9 0 015.8 0zm-1.6 0a1.3 1.3 0 11-2.6 0 1.3 1.3 0 012.6 0z" fill="#000"/><path fill-rule="evenodd" clip-rule="evenodd" d="M20.95 38.7c6.627 0 12-5.373 12-12s-5.373-12-12-12c-6.628 0-12 5.373-12 12s5.372 12 12 12zm0-1.6c.392 0 .78-.022 1.16-.064v-6.208a4.279 4.279 0 001.902-1.136l5.365 3.103c.437-.603.811-1.255 1.112-1.946l-5.388-3.116a4.31 4.31 0 00-.022-2.15l5.376-3.11a10.395 10.395 0 00-1.128-1.937l-5.377 3.11a4.277 4.277 0 00-1.84-1.075v-6.207a10.521 10.521 0 00-2.238-.009v6.19a4.273 4.273 0 00-1.9 1.065l-5.375-3.108a10.386 10.386 0 00-1.135 1.933l5.358 3.099a4.298 4.298 0 00-.023 2.248l-5.37 3.106c.304.69.68 1.34 1.12 1.941l5.362-3.1a4.276 4.276 0 001.963 1.126v6.19c.354.036.714.055 1.078.055zm-2.636-5.805v5.468a10.388 10.388 0 01-4.737-2.728l4.737-2.74zm-2.676-4.644l-4.737 2.74a10.428 10.428 0 01-.351-2.691c0-.96.13-1.891.374-2.775l4.714 2.726zm2.676-4.644l-4.675-2.704a10.386 10.386 0 014.675-2.666v5.37zm5.354 9.288v5.446a10.39 10.39 0 004.685-2.736l-4.685-2.71zM31.35 26.7c0 .915-.119 1.803-.34 2.649l-4.665-2.698 4.642-2.684c.237.87.363 1.787.363 2.733zm-7.682-10.041a10.389 10.389 0 014.623 2.675l-4.623 2.673V16.66z" fill="#000"/><path d="M36.735 32.738A16.9 16.9 0 0019.954 9.829l.368 6.232a10.656 10.656 0 0110.582 14.447l5.83 2.23z" fill="#000"/><path fill-rule="evenodd" clip-rule="evenodd" d="M40.85 16.5a4 4 0 004-4c0-.38-.201-1.091-.707-2.107-.479-.961-1.133-2.009-1.812-2.997a48.266 48.266 0 00-1.481-2.034c-.444.58-.964 1.28-1.481 2.034-.679.988-1.333 2.036-1.812 2.997-.506 1.016-.707 1.726-.707 2.107a4 4 0 004 4zM39.826 4.071c-1.616 2.074-4.576 6.18-4.576 8.429a5.6 5.6 0 1011.2 0c0-2.249-2.96-6.355-4.576-8.429C41.267 3.292 40.85 2.8 40.85 2.8s-.417.492-1.024 1.271z" fill="#000"/></svg>