<svg width="48" height="48" fill="none" xmlns="http://www.w3.org/2000/svg"><g clip-path="url(#clip0_4263:5350)" fill="#000"><path d="M48 13.627v-7.98a3.994 3.994 0 00-3.99-3.989H20.075a3.994 3.994 0 00-3.99 3.99v7.222C6.845 13.234-.35 21.018.015 30.258c.363 9.239 8.148 16.434 17.387 16.07a16.74 16.74 0 001.652-.147c.331.099.675.153 1.02.16h23.938A3.994 3.994 0 0048 42.35v-7.979a3.994 3.994 0 00-3.99-3.99h-.021a3.948 3.948 0 00.819-2.393V20.01a3.948 3.948 0 00-.82-2.394h.022a3.994 3.994 0 003.99-3.99zM20.073 3.254h23.938a2.394 2.394 0 012.393 2.394H17.68a2.394 2.394 0 012.393-2.394zm-2.393 3.99h28.724V8.84H17.68V7.244zm0 3.191h28.724v1.596H17.68v-1.596zm5.41 32.966c-.247.11-.497.214-.75.31-.115.045-.232.087-.35.13-7.876 2.826-16.553-1.269-19.38-9.145-2.826-7.877 1.268-16.554 9.145-19.38a15.139 15.139 0 015.127-.891c.479 0 .945.028 1.409.07.148.015.294.037.442.054a15.095 15.095 0 011.444.247c.287.065.57.14.85.22.17.048.34.092.508.147.272.088.537.19.798.293.41.16.814.337 1.21.534.118.058.24.11.354.17.283.15.559.315.835.479.09.056.182.11.273.166.276.178.549.367.817.563.08.058.154.115.231.173.276.213.544.432.803.657.1.087.197.177.294.267.222.203.439.411.647.627.141.147.276.3.412.453.16.177.319.353.467.538.174.217.337.443.5.67.105.143.214.282.313.43.063.093.115.195.176.29.24.374.465.757.672 1.16.033.065.062.133.096.198.222.454.43.92.612 1.403l.038.102c.17.462.32.932.444 1.41l.011.043c.13.5.233 1.006.31 1.516v.015c.054.361.094.695.124 1.016.033.411.063.823.063 1.242a15.236 15.236 0 01-.08 1.522c0 .045-.013.09-.017.134-.043.385-.104.762-.174 1.137-.032.16-.062.32-.098.479-.06.274-.134.542-.209.81a15.245 15.245 0 01-1.02 2.643c-.032.066-.062.133-.095.197-.246.481-.519.95-.815 1.401l-.006.01c-.107.16-.224.32-.336.479-.137.19-.276.379-.422.558a14.609 14.609 0 01-1.035 1.185c-.115.119-.239.235-.355.35-.217.21-.44.412-.669.608-.144.124-.292.24-.44.361-.2.16-.4.307-.608.455-.153.108-.304.22-.46.324a15.744 15.744 0 01-1.616.918 4.751 4.751 0 01-.49.252zm10.48-15.157v-.003c-.007-.084-.005-.171-.013-.255h9.656a2.394 2.394 0 01-2.394 2.394h-7.2a14.755 14.755 0 00-.049-2.135zm-.246-1.85a17.37 17.37 0 00-.392-1.596h10.28v1.595h-9.888zm-.957-3.192a16.586 16.586 0 00-.755-1.596h11.6v1.596H32.368zm-1.742-3.192c-.126-.18-.27-.345-.399-.52-.167-.22-.329-.444-.506-.655-.12-.143-.251-.276-.376-.413-.24-.27-.478-.538-.739-.79l-.016-.016h12.23a2.394 2.394 0 012.394 2.394H30.625zM44.01 44.745H23.997c.153-.072.301-.155.453-.231.175-.09.354-.173.526-.269.372-.205.735-.429 1.091-.663.146-.096.287-.197.43-.296.265-.188.526-.383.783-.587.118-.094.24-.184.353-.28.028-.024.058-.045.085-.068h18.685a2.394 2.394 0 01-2.394 2.394zm2.393-3.99H29.356c.089-.098.171-.204.257-.305.104-.121.208-.24.309-.366.24-.301.479-.608.697-.924h15.785v1.596zm0-3.191h-14.79c.28-.518.531-1.05.755-1.596h14.036v1.596zm-2.394-5.586a2.394 2.394 0 012.394 2.394H32.932c.024-.08.04-.16.062-.24.096-.336.186-.672.26-1.012.04-.178.068-.36.1-.541.037-.2.08-.4.111-.601H44.01zM26.69 16.02c-.035-.026-.072-.048-.107-.073a16.834 16.834 0 00-1.212-.784c-.235-.14-.468-.28-.71-.406a17.95 17.95 0 00-1.152-.559c-.16-.068-.32-.125-.48-.188-.306-.122-.614-.24-.927-.341-.043-.014-.08-.032-.125-.046h24.427a2.394 2.394 0 01-2.391 2.397H26.69z"/><path d="M28.982 25.55v-.007a12.082 12.082 0 00-.451-1.152l-.03-.073c-.028-.06-.06-.116-.09-.173a12.457 12.457 0 00-.456-.885c-.016-.026-.025-.05-.042-.08-.028-.048-.064-.095-.093-.143a13.94 13.94 0 00-.54-.832c-.02-.028-.036-.058-.056-.086-.04-.053-.085-.101-.125-.154-.192-.259-.392-.51-.604-.752-.024-.028-.045-.06-.07-.087-.009-.012-.022-.016-.033-.027a12.754 12.754 0 00-6.985-4.027c-.239-.048-.46-.072-.687-.104-.18-.027-.356-.064-.538-.08-.093-.01-.186-.006-.278-.014a11.62 11.62 0 00-1.022-.055c-.343 0-.68.024-1.016.051-.093.008-.186 0-.279.014-.171.017-.336.053-.506.08-.226.033-.445.056-.687.104h-.005a12.753 12.753 0 00-7.045 4.065c-.008.008-.018.012-.025.02-.019.02-.034.043-.052.064-.213.245-.415.499-.61.76-.037.05-.08.096-.116.146-.019.025-.034.053-.051.08-.198.276-.38.558-.559.853-.03.05-.065.095-.095.146l-.053.098c-.08.134-.15.268-.222.405-.108.207-.213.42-.315.643l-.022.056a12.61 12.61 0 00-.412 1.053c-.01.03-.024.059-.035.09v.01a12.6 12.6 0 000 8.055v.014c.075.226.16.457.257.691.063.16.129.313.198.467l.03.073c.02.04.045.08.064.123.152.319.313.638.49.947.012.021.02.043.034.065.028.048.063.094.091.142.173.286.352.567.545.838.02.026.034.054.053.08.037.05.08.096.117.146.195.26.4.514.61.76.025.028.045.06.07.089.011.01.025.016.035.027a12.756 12.756 0 006.984 4.026c.24.048.46.071.688.104.18.026.356.063.538.08a13.016 13.016 0 002.589 0l.029-.005c.39-.04.782-.098 1.232-.187a12.747 12.747 0 006.961-4.02c.01-.011.024-.016.035-.027.025-.029.046-.06.07-.09.215-.245.417-.5.612-.761.036-.05.08-.095.116-.146.019-.024.034-.053.051-.08.197-.274.378-.558.552-.848.03-.05.067-.097.097-.149.014-.024.025-.05.038-.073.13-.226.248-.458.363-.692.064-.12.126-.24.19-.383.01-.019.014-.037.023-.056.147-.332.278-.672.399-1.017.014-.042.036-.085.05-.127v-.014c.88-2.615.878-5.446-.006-8.059zm-8.908-6.665a11.158 11.158 0 014.468 2.592l-4.468 2.58v-5.172zm-6.383 0v5.172l-4.469-2.58a11.155 11.155 0 014.469-2.592zM6.025 32.17a10.797 10.797 0 010-5.167l4.474 2.583-4.474 2.584zm7.666 8.116a11.158 11.158 0 01-4.469-2.592l4.469-2.58v5.172zm6.383 0v-5.172l4.468 2.58a11.159 11.159 0 01-4.468 2.592zm7.166-6.537c-.053.13-.111.264-.172.399-.02.046-.045.09-.066.135-.06.127-.124.252-.19.374l-.165.32a3.107 3.107 0 01-.086.165c-.032.058-.061.099-.091.149a10.763 10.763 0 01-.823 1.2l-5.972-3.45a.798.798 0 00-1.197.694v6.894c-.145.021-.287.052-.435.067h-.026c-.755.076-1.515.076-2.27 0h-.023c-.148-.015-.292-.046-.438-.067v-6.894a.798.798 0 00-1.197-.691l-5.972 3.449a20.233 20.233 0 01-.319-.422 11.18 11.18 0 01-.526-.809c-.025-.043-.052-.08-.08-.127-.16-.274-.302-.558-.443-.861-.025-.053-.053-.104-.08-.16a18.958 18.958 0 01-.155-.363l-.008-.022 5.988-3.452a.798.798 0 000-1.382l-5.977-3.451v-.006c.053-.134.111-.268.172-.405.023-.05.049-.1.073-.15.132-.283.276-.566.44-.854l.09-.145a11.591 11.591 0 01.821-1.2l5.976 3.447a.798.798 0 001.197-.694v-6.894c.145-.02.287-.051.434-.066l.028-.004a11.358 11.358 0 012.27 0h.023c.147.015.291.045.437.067v6.897a.798.798 0 001.197.69l5.973-3.447a11.07 11.07 0 01.84 1.229c.026.045.054.088.08.132l.079.154.16.313.113.213c.053.11.11.22.16.332.054.125.109.251.159.385l-5.968 3.457a.798.798 0 000 1.382l3.714 2.145 2.263 1.306-.008.02zm.5-1.58l-4.475-2.583 4.474-2.583c.418 1.697.418 3.47 0 5.166z"/><path d="M16.881 27.191a2.394 2.394 0 100 4.787 2.394 2.394 0 000-4.787zm0 3.192a.798.798 0 110-1.596.798.798 0 010 1.596z"/></g><defs><clipPath id="clip0_4263:5350"><path fill="#fff" d="M0 0h48v48H0z"/></clipPath></defs></svg>