<svg width="48" height="48" fill="none" xmlns="http://www.w3.org/2000/svg"><path d="M47.694 7.23a9.58 9.58 0 10-11.671 11.671v7.5c0 .442.357.799.798.799h.798v16.366a2.794 2.794 0 11-5.588 0v-3.093c5.597-7.96 3.683-18.95-4.276-24.546-7.96-5.598-18.95-3.683-24.547 4.276-5.597 7.96-3.682 18.95 4.277 24.546 7.163 5.038 16.94 4.05 22.95-2.32v1.136a4.39 4.39 0 108.781 0V27.2h.798a.8.8 0 00.799-.799v-4.79h2.395v.799h1.596v-3.193h-1.596v.798h-2.395V18.9a9.58 9.58 0 006.88-11.67zM31.718 37.957a4.414 4.414 0 00-2.37-2.427c.367-.827.645-1.69.828-2.576v-.006c.047-.233.072-.471.106-.707.027-.186.065-.367.08-.558.048-.428.073-.857.073-1.289 0-.43-.023-.862-.066-1.292-.02-.196-.06-.386-.088-.58-.032-.227-.056-.456-.102-.68v-.007a12.704 12.704 0 00-1.845-4.443c-.007-.013-.009-.027-.017-.04-.008-.011-.026-.033-.038-.051-.12-.179-.254-.347-.382-.519-.129-.172-.24-.342-.376-.503-.052-.061-.109-.116-.16-.177a12.62 12.62 0 00-1.352-1.357c-.08-.069-.151-.144-.232-.21-.147-.121-.306-.23-.46-.344-.187-.14-.37-.286-.565-.416-.016-.011-.03-.024-.047-.035-.017-.01-.024-.008-.034-.015a12.693 12.693 0 00-4.455-1.846c-.133-.027-.27-.038-.404-.06-.286-.05-.572-.102-.864-.131-.073-.008-.148-.006-.222-.011a12.064 12.064 0 00-1.065-.056c-.359 0-.713.025-1.064.054-.074.006-.148 0-.222.011-.292.03-.578.08-.864.13-.134.023-.27.034-.404.061a12.693 12.693 0 00-4.448 1.848c-.011.006-.024.008-.034.015l-.047.034c-.195.13-.379.275-.566.416-.153.115-.312.223-.46.344-.08.066-.153.141-.23.21-.485.417-.937.871-1.353 1.357-.052.06-.11.116-.16.177-.132.16-.25.336-.376.503-.125.168-.263.34-.382.52-.012.018-.027.034-.039.051-.012.018-.01.027-.016.04a12.703 12.703 0 00-1.845 4.442v.006c-.046.225-.07.455-.102.682-.03.193-.068.383-.088.58-.05.43-.073.862-.073 1.292 0 .43.022.862.066 1.292.019.188.056.37.08.559.034.24.058.473.106.706v.007a12.685 12.685 0 001.844 4.441c.007.013.008.028.016.04.008.011.027.033.039.051.12.18.254.347.382.52.129.172.24.341.376.502.051.062.109.117.16.177.416.486.868.94 1.352 1.358.08.068.151.143.232.21.147.121.306.229.46.344.186.14.37.285.565.416.016.01.03.024.047.034.017.01.023.009.034.015a12.691 12.691 0 004.46 1.843c.16.032.319.046.473.072.262.043.523.092.79.12.858.087 1.723.087 2.58 0 .268-.028.53-.077.79-.12.16-.026.32-.04.474-.072a12.68 12.68 0 004.448-1.847c.011-.006.024-.008.035-.015l.047-.034c.195-.13.378-.276.565-.416.153-.115.313-.223.46-.344.08-.067.153-.142.232-.21.484-.418.936-.872 1.352-1.358.052-.06.11-.115.16-.177.132-.16.25-.335.376-.503.125-.167.262-.34.382-.518.012-.019.026-.035.038-.052.012-.018.01-.027.017-.04.093-.14.177-.29.265-.435a2.794 2.794 0 011.843 2.615v.358a15.934 15.934 0 01-12.773 6.428c-8.825.007-15.985-7.142-15.992-15.967-.007-8.825 7.142-15.985 15.967-15.992 8.825-.007 15.985 7.142 15.992 15.967a15.978 15.978 0 01-1.91 7.588zm-6.348-4.37h2.997c-.166.55-.376 1.085-.625 1.602-.035 0-.067-.005-.102-.005a4.34 4.34 0 00-.623.05l-1.647-1.647zm1.23 3.488a11.123 11.123 0 01-.992 1.166l-.098.099c-.171.168-.363.314-.544.47a2.794 2.794 0 011.57-1.8l.064.065zm-3.157-5.084a.798.798 0 00-.565 1.363l2.48 2.474a4.407 4.407 0 00-1.945 2.573l-2.794-2.795a.798.798 0 00-1.361.57v5.27c-.1.011-.197.03-.296.045-.097.011-.193.022-.29.031-.326.03-.653.049-.985.05h-.051a10.7 10.7 0 01-1.275-.081c-.097-.011-.197-.031-.296-.046v-5.269a.798.798 0 00-1.363-.564l-3.721 3.723-.146-.109a11.12 11.12 0 01-1.022-.884l-.1-.099c-.312-.32-.605-.659-.877-1.014-.039-.05-.08-.101-.114-.152l3.722-3.721a.798.798 0 00-.564-1.365H6.61c-.014-.1-.033-.197-.045-.297-.01-.1-.022-.192-.03-.288-.03-.334-.05-.67-.05-1.012a11.14 11.14 0 01.082-1.3c.011-.095.031-.198.045-.296h5.27a.798.798 0 00.564-1.363L8.72 23.713l.113-.152c.272-.356.566-.694.879-1.015l.099-.099c.322-.315.663-.61 1.021-.883.048-.038.098-.073.146-.11l3.722 3.721a.798.798 0 001.365-.564v-5.27c.099-.014.196-.033.296-.045a11.122 11.122 0 011.275-.08h.05a10.829 10.829 0 011.276.08c.096.012.197.032.296.046v5.269a.798.798 0 001.363.564l3.72-3.723c.05.037.099.072.147.11.358.273.7.568 1.022.883l.099.099c.313.32.606.659.878 1.015l.113.151-3.722 3.721a.798.798 0 00.565 1.366h5.269c.014.098.034.197.045.296.011.1.023.192.031.289.03.333.052.67.052 1.011a11.152 11.152 0 01-.083 1.3c-.01.096-.03.197-.045.297h-5.27zm-.468 8.233a11.04 11.04 0 01-2.12.876v-2.996l2.12 2.12zm-8.507-2.12V41.1a11.035 11.035 0 01-2.119-.875l2.119-2.121zm-6.636-2.396a11.059 11.059 0 01-.876-2.12h2.997l-2.121 2.12zM6.955 27.2a11.06 11.06 0 01.875-2.12l2.122 2.12H6.956zm5.392-6.637a11.033 11.033 0 012.12-.875v2.996l-2.12-2.12zm8.507 2.12v-2.995c.735.217 1.445.51 2.12.875l-2.12 2.12zm6.636 2.396c.365.675.658 1.386.876 2.12H25.37l2.121-2.12zm11.725.524H37.62v-1.597h1.597v1.597zm0-3.193H37.62v-3.193h1.597v3.193zm-.798-4.79a7.992 7.992 0 01-7.983-7.983 7.983 7.983 0 117.983 7.983z" fill="#000"/></svg>