<svg width="48" height="48" fill="none" xmlns="http://www.w3.org/2000/svg"><path fill-rule="evenodd" clip-rule="evenodd" d="M24 35.4c5.744 0 10.4-4.656 10.4-10.4 0-5.744-4.656-10.4-10.4-10.4-5.744 0-10.4 4.656-10.4 10.4 0 5.744 4.656 10.4 10.4 10.4zm0 1.6c6.627 0 12-5.373 12-12s-5.373-12-12-12-12 5.373-12 12 5.373 12 12 12z" fill="#000"/><path fill-rule="evenodd" clip-rule="evenodd" d="M26.9 25a2.9 2.9 0 11-5.8 0 2.9 2.9 0 015.8 0zm-1.6 0a1.3 1.3 0 11-2.6 0 1.3 1.3 0 012.6 0z" fill="#000"/><path fill-rule="evenodd" clip-rule="evenodd" d="M24 37c6.627 0 12-5.373 12-12s-5.373-12-12-12-12 5.373-12 12 5.373 12 12 12zm0-1.6c.392 0 .78-.022 1.16-.064v-6.207a4.279 4.279 0 001.902-1.137l5.365 3.104c.437-.604.811-1.256 1.112-1.947l-5.388-3.116a4.308 4.308 0 00-.022-2.15l5.376-3.11a10.395 10.395 0 00-1.128-1.937L27 21.946a4.276 4.276 0 00-1.84-1.075v-6.207a10.497 10.497 0 00-2.238-.009v6.19a4.274 4.274 0 00-1.9 1.065l-5.374-3.108a10.383 10.383 0 00-1.136 1.933l5.358 3.099a4.298 4.298 0 00-.023 2.248l-5.37 3.106c.304.69.68 1.34 1.12 1.941l5.362-3.1a4.276 4.276 0 001.963 1.126v6.19c.354.036.714.055 1.078.055zm-2.635-5.805v5.468a10.387 10.387 0 01-4.738-2.728l4.738-2.74zm-2.677-4.644l-4.737 2.74A10.428 10.428 0 0113.6 25c0-.96.13-1.891.374-2.775l4.714 2.726zm2.677-4.644l-4.676-2.704a10.386 10.386 0 014.676-2.666v5.37zm5.353 9.288v5.446a10.391 10.391 0 004.685-2.736l-4.685-2.71zM34.4 25c0 .915-.118 1.803-.34 2.649l-4.665-2.698 4.642-2.684c.237.87.363 1.787.363 2.733zm-7.682-10.041a10.39 10.39 0 014.623 2.675l-4.623 2.673V14.96z" fill="#000"/><circle cx="24" cy="25" r="13.8" stroke="#000" stroke-width="1.6"/><mask id="a" fill="#fff"><path fill-rule="evenodd" clip-rule="evenodd" d="M38.436 21.15C37.375 14.13 31.316 8.75 24 8.75c-7.315 0-13.374 5.38-14.435 12.4a14.715 14.715 0 01-.165-2.2c0-8.063 6.537-14.6 14.6-14.6 8.064 0 14.6 6.537 14.6 14.6 0 .748-.056 1.482-.164 2.2z"/></mask><path d="M38.436 21.15l-1.582.24h3.164l-1.582-.24zm-28.87 0l-1.583.24h3.164l-1.582-.24zM24 10.35c6.513 0 11.91 4.79 12.854 11.04l3.164-.48C38.84 13.12 32.119 7.15 24 7.15v3.2zM11.147 21.39c.944-6.25 6.341-11.04 12.853-11.04v-3.2c-8.118 0-14.84 5.97-16.017 13.76l3.164.48zm0-.48A13.12 13.12 0 0111 18.95H7.8c0 .828.063 1.643.183 2.44l3.164-.48zM11 18.95c0-7.18 5.82-13 13-13v-3.2c-8.947 0-16.2 7.253-16.2 16.2H11zm13-13c7.18 0 13 5.82 13 13h3.2c0-8.947-7.253-16.2-16.2-16.2v3.2zm13 13c0 .667-.05 1.322-.146 1.96l3.164.48c.12-.797.182-1.612.182-2.44H37z" fill="#000" mask="url(#a)"/></svg>