<svg width="49" height="48" fill="none" xmlns="http://www.w3.org/2000/svg"><circle cx="24.667" cy="24" r="24" fill="#4680C2"/><path fill-rule="evenodd" clip-rule="evenodd" d="M37.984 17.18c.215-.666 0-1.15-.952-1.15H33.87c-.799 0-1.167.424-1.382.877 0 0-1.628 3.872-3.901 6.383-.737.726-1.075.968-1.474.968-.215 0-.491-.242-.491-.907v-6.202c0-.786-.246-1.149-.922-1.149h-4.976c-.49 0-.798.363-.798.726 0 .756 1.136.938 1.26 3.055v4.598c0 .998-.185 1.18-.584 1.18-1.075 0-3.686-3.902-5.252-8.349-.308-.877-.615-1.21-1.413-1.21h-3.194c-.922 0-1.075.424-1.075.877 0 .817 1.075 4.93 5.006 10.376 2.61 3.72 6.327 5.717 9.675 5.717 2.027 0 2.273-.454 2.273-1.21v-2.813c0-.908.184-1.059.829-1.059.46 0 1.29.242 3.163 2.027C32.763 32.032 33.132 33 34.33 33h3.164c.921 0 1.351-.454 1.106-1.331-.277-.877-1.321-2.148-2.672-3.66-.738-.847-1.843-1.785-2.181-2.239-.46-.604-.338-.846 0-1.391-.03 0 3.839-5.384 4.238-7.2z" fill="#fff"/></svg>